<svg xmlns="http://www.w3.org/2000/svg" width="42.358" height="15.377" viewBox="0 0 136.48 49.55" shape-rendering="geometricPrecision" text-rendering="geometricPrecision" image-rendering="optimizeQuality" fill-rule="evenodd" clip-rule="evenodd"><path d="M26.06 19.76v10.02h-8.72c-1.18 0-2.03.18-2.52.53-.5.36-.75.96-.75 1.81 0 .96.25 1.58.76 1.89.51.3 1.54.45 3.09.45h9.02v12.87H16.41c-4.96 0-8.77-1.18-11.4-3.54C2.38 41.42 1.07 38 1.07 33.53V15.84c0-4.33 1.24-7.7 3.73-10.09 2.49-2.38 5.98-3.58 10.49-3.58h11.65v13h-8.55c-2.29 0-3.43.76-3.43 2.26 0 .88.27 1.49.81 1.83.55.35 1.52.52 2.91.52h7.38zm24.92 4.87v11.92h-3.86v10.77H33.71V18.6c0-5.54 1.51-9.85 4.55-12.92 3.04-3.07 7.3-4.6 12.8-4.6 5.3 0 9.22 1.39 11.76 4.18 2.54 2.79 3.8 7.08 3.8 12.89v29.18H53.21V19.04c0-1.74-.21-2.93-.63-3.61-.43-.67-1.18-1-2.28-1-2.12 0-3.18 1.53-3.18 4.62v5.61h3.86zM95.93 1.95v12.89c-.97-.28-1.73-.43-2.25-.43-1.02 0-1.89.37-2.62 1.13-.73.74-1.09 1.65-1.09 2.71 0 .9.39 2.04 1.2 3.43l1.03 1.78c1.86 3.22 2.79 6.32 2.79 9.32 0 4.38-1.56 8.09-4.68 11.13-3.13 3.04-6.94 4.56-11.44 4.56-2.17 0-4.3-.51-6.42-1.51V33.89c1.28.82 2.42 1.24 3.41 1.24 1.17 0 2.14-.34 2.93-1 .78-.68 1.17-1.52 1.17-2.54 0-.65-.62-2.1-1.87-4.32-2-3.53-3-7.05-3-10.58 0-4.25 1.51-7.92 4.55-10.99 3.02-3.08 6.65-4.62 10.86-4.62 1.85 0 3.67.29 5.45.88zm38.6.2l-12.76 20.09v25.08h-13.41V22.24L95.49 2.15h13.62l5.81 9.31 6.24-9.31h13.36z" fill="#a2d9f7" fill-rule="nonzero" stroke="#727271" stroke-width="2.15" stroke-miterlimit="22.926"/></svg>