<svg xmlns="http://www.w3.org/2000/svg" width="42.358" height="15.377" viewBox="0 0 139.49 50.64" shape-rendering="geometricPrecision" text-rendering="geometricPrecision" image-rendering="optimizeQuality" fill-rule="evenodd" clip-rule="evenodd"><path d="M26.63 20.2v10.24h-8.92c-1.21 0-2.08.18-2.57.54-.51.37-.76.98-.76 1.85 0 .98.25 1.62.77 1.93.52.31 1.57.46 3.16.46h9.22v13.15H16.77c-5.07 0-8.96-1.21-11.65-3.62-2.69-2.42-4.03-5.92-4.03-10.48V16.19c0-4.43 1.27-7.87 3.81-10.31 2.55-2.43 6.11-3.66 10.73-3.66h11.9v13.29h-8.74c-2.34 0-3.51.77-3.51 2.31 0 .9.28 1.52.83 1.87.57.36 1.56.53 2.98.53h7.54zm25.47 4.98v12.18h-3.95v11h-13.7V19.01c0-5.66 1.55-10.07 4.65-13.21 3.1-3.14 7.46-4.71 13.08-4.71 5.42 0 9.42 1.42 12.02 4.27 2.6 2.85 3.89 7.23 3.89 13.17v29.83h-13.7V19.44c0-1.78-.22-3-.65-3.69-.44-.68-1.21-1.03-2.33-1.03-2.17 0-3.25 1.57-3.25 4.72v5.73h3.95zM98.04 2v13.17c-.99-.29-1.76-.44-2.3-.44-1.04 0-1.94.38-2.67 1.15-.75.76-1.12 1.68-1.12 2.77 0 .92.4 2.09 1.22 3.51l1.05 1.82c1.9 3.29 2.85 6.46 2.85 9.53 0 4.48-1.59 8.27-4.79 11.37-3.19 3.1-7.09 4.66-11.7 4.66-2.21 0-4.39-.52-6.56-1.55V34.63c1.3.84 2.47 1.27 3.48 1.27 1.2 0 2.19-.35 3-1.03.8-.69 1.2-1.56 1.2-2.59 0-.67-.63-2.15-1.91-4.42-2.04-3.61-3.07-7.21-3.07-10.82 0-4.35 1.55-8.1 4.65-11.24 3.09-3.15 6.79-4.72 11.1-4.72 1.89 0 3.75.3 5.57.9zm39.45.21l-13.04 20.53v25.63h-13.7V22.74L97.6 2.21h13.92l5.94 9.51 6.38-9.51h13.66z" fill="#fefefe" fill-rule="nonzero" stroke="#727271" stroke-width="2.2" stroke-miterlimit="22.926"/></svg>