<svg xmlns="http://www.w3.org/2000/svg" width="52.085" height="15.105" viewBox="0 0 317.01 91.93" shape-rendering="geometricPrecision" text-rendering="geometricPrecision" image-rendering="optimizeQuality" fill-rule="evenodd" clip-rule="evenodd"><path d="M34.39 34.65v22.51h-7.03v32.23H2.03V4.07h25.33v30.57h7.03zM64.06 4.08V89.4H38.73V4.08h25.33zm47.92 42.47v22.51h-7.29V89.4H79.37V35.14c0-10.47 2.86-18.61 8.59-24.41 5.73-5.8 13.79-8.7 24.17-8.7 10.02 0 17.42 2.62 22.21 7.89 4.8 5.27 7.19 13.37 7.19 24.35V89.4H116.2V35.95c0-3.28-.4-5.54-1.19-6.82-.81-1.26-2.24-1.9-4.31-1.9-4.01 0-6.01 2.9-6.01 8.72v10.6h7.29zm70.2-19.57V89.4h-25.33V4.08h32.47c9.89 0 17.57 2.45 23.02 7.38 6.08 5.52 9.1 12.49 9.1 20.95 0 8.63-3.75 15.93-11.26 21.85l14.6 35.13h-26.61l-12.3-27.46V40.02h2c5.31 0 7.97-2.3 7.97-6.93 0-4.07-3.07-6.12-9.23-6.12h-4.45zm76.51 1.66V89.4h-25.33V4.08h32.98c14.47 0 25.81 3.28 34.02 9.87 9.74 7.89 14.6 18.57 14.6 32.08 0 12.92-4.16 23.45-12.49 31.61-8.31 8.16-19.04 12.26-32.15 12.26-1.53 0-4.05-.09-7.55-.26V64.57h4.05c14.77 0 22.17-6.18 22.17-18.53 0-11.62-7.27-17.42-21.79-17.42h-8.53z" fill="#a2d9f7" fill-rule="nonzero" stroke="#727271" stroke-width="4.06" stroke-miterlimit="22.926"/></svg>