<svg xmlns="http://www.w3.org/2000/svg" width="52.085" height="15.105" viewBox="0 0 315.61 91.53" shape-rendering="geometricPrecision" text-rendering="geometricPrecision" image-rendering="optimizeQuality" fill-rule="evenodd" clip-rule="evenodd"><path d="M34.24 34.5v22.41h-7V89H2.02V4.06h25.22V34.5h7zM63.78 4.06V89H38.56V4.06h25.22zm47.71 42.28v22.41h-7.26V89H79.02V34.98c0-10.42 2.84-18.53 8.55-24.3 5.71-5.77 13.73-8.66 24.07-8.66 9.97 0 17.34 2.61 22.11 7.85 4.78 5.24 7.15 13.31 7.15 24.24V89h-25.22V35.79c0-3.27-.4-5.52-1.19-6.79-.81-1.25-2.23-1.89-4.29-1.89-3.99 0-5.99 2.89-5.99 8.68v10.55h7.26zm69.89-19.49V89h-25.22V4.06h32.32c9.85 0 17.49 2.44 22.92 7.34 6.05 5.49 9.06 12.44 9.06 20.86 0 8.6-3.74 15.86-11.21 21.76L223.79 89H197.3l-12.25-27.34V39.84h1.99c5.28 0 7.94-2.29 7.94-6.9 0-4.05-3.06-6.09-9.19-6.09h-4.43zm76.17 1.66V89h-25.22V4.06h32.84c14.41 0 25.7 3.27 33.87 9.83 9.7 7.85 14.54 18.48 14.54 31.94 0 12.86-4.14 23.35-12.44 31.47-8.28 8.13-18.95 12.2-32.01 12.2-1.53 0-4.03-.08-7.51-.25V64.29h4.03c14.71 0 22.07-6.16 22.07-18.45 0-11.57-7.24-17.34-21.69-17.34h-8.49z" fill="#fefefe" fill-rule="nonzero" stroke="#727271" stroke-width="4.04" stroke-miterlimit="22.926"/></svg>