<svg xmlns="http://www.w3.org/2000/svg" viewBox="0 0 104.24 108.72"><path d="M103 108.72c-1.62-.43-2.11-2-3.15-3.08a46.1 46.1 0 01-3-3.76 17.73 17.73 0 00-11-6.12 30.84 30.84 0 00-6.22-.86 39.53 39.53 0 00-9 1 20.43 20.43 0 01-11.39-.31 24 24 0 00-6.72-.81 67.55 67.55 0 01-20.35-3.09c-3.44-1.09-6.95-2-10.38-3.12a26.89 26.89 0 01-7.52-3.93 55.34 55.34 0 00-7.19-4.2 12.78 12.78 0 01-4.9-3.89c-.16-.24-.55-.33-.84-.49L.4 74.85c-.7-2.2-.63-2.74 1.42-3.76 1.61-.81 3.41-1.52 5.21-.24 2 1.41 4.1 1.22 6.29.73a26.34 26.34 0 014.44-.85c3-.14 5.53-1.35 8.15-2.52a11.3 11.3 0 001.35-.67c3.19-1.89 6.53-1 9.85-.59 2.32.3 4.64.66 7 .75a37.44 37.44 0 0110.7 1.56A37.67 37.67 0 0063.18 71a18.6 18.6 0 0111.14 5.37 71.49 71.49 0 015.58 6.23c1.64 1.94 3.2 4 4.73 6a6.48 6.48 0 004.65 2.65c.55.06-.39-3.47-1.54-5-.78-1-1.6-2-2.36-3-.59-.79-1.18-1.18-2.08-.43-.67.56-1.22.29-1.74-.3a5.74 5.74 0 01-1.63-3.6c-.06-1.5-.38-1.86-1.7-1.93-.64 0-1.45 0-1.85-.35a5.09 5.09 0 01-1.79-2.41c-.31-1.66 1.54-2 2.43-2.86a1.12 1.12 0 011.93.16 17.93 17.93 0 011.7 3c.42 1 .63 2 2 2.29.7.15 1.23 1.07 1.83 1.63l.37.31a2.63 2.63 0 00.06-.47 9.65 9.65 0 00-2-5.61c-5.12-6.34-10.25-12.78-15.24-19.32-2-2.67-3.68-5.62-5.52-8.44A13 13 0 0061 43.28a9.89 9.89 0 01-2.37-4.69c-.07-.33-.06-.77-.27-1-1.52-1.46-1.71-3.46-2-5.32-.43-2.46-.53-5-.74-7.48 0-.58.12-1.17.07-1.74a29.65 29.65 0 011.24-11.9C57.55 9 58.16 6.69 59 4.5a3.64 3.64 0 00.06-3.19c-.18-.31.04-.87.08-1.31.44.13 1.06.13 1.28.42a14.45 14.45 0 004.67 4.2 5.71 5.71 0 001.56.82c3.42.6 4.62 3.51 5.95 6a32 32 0 002.09 3.69c1.12 1.58 2.16 3.21 3.2 4.84.23.34.54.8.47 1.14-.38 1.76.69 2.88 1.67 4a28.31 28.31 0 014.72 8.87 11.88 11.88 0 01.55 5c-.24 2.65.83 4.81 2.08 6.89a16.66 16.66 0 012.54 10.43c-.25 2.76-.16 5.55-.33 8.33-.07 1.16-.43 2.31-.61 3.48a9.47 9.47 0 00-.13 2c.05.81.36 1.35 1.25.65l1.21-.94c.81-.62 1.58-1.37 2.69-.51 1.36 1.06 1.89 2.37 1.19 3.71-1.25 2.4-2.66 4.73-3.16 7.42a9.14 9.14 0 00-.25 3.69 35 35 0 003.72 9.33 77.51 77.51 0 006.76 9.18c1.25 1.56 2.24 3.07 1.92 5.14zM87.4 59.38c-.76 1.1-1.52 2.2-2.25 3.32a.92.92 0 00-.16.68c.43 1.18.91 2.34 1.39 3.49.05.13.35.29.39.25a.82.82 0 00.37-.48c.1-1 .17-2 .21-3 .05-1.41.06-2.83.09-4.24v-.19zm2.94 18.5c.52-1 1.07-2.09 1.57-3.15s.9-2 1.29-3c.07-.17-.1-.46-.23-.65s-.34 0-.45 0c-1.1.77-2.5 1.37-3.15 2.42-.4.67.33 2 .57 3.09.09.41.23.81.35 1.21v.2zM86.2 48c-.24.8-.42 1.62-.73 2.4-.83 2.08-1.72 4.14-2.56 6.22a3.54 3.54 0 00.72 3.38 1 1 0 00.92-.23c3-3.58 4.11-7.44 1.7-11.81v-.19zm-8.91-3.93a3.31 3.31 0 00.47-.89 76.12 76.12 0 001.78-11.89 9 9 0 00-2.6-7.23 3.7 3.7 0 01-1-2.51 13.15 13.15 0 00-1-3.3c-.08-.2-.37-.32-.56-.48-.11.22-.22.45-.32.67a51.68 51.68 0 01-3 6.36 3 3 0 00-.44 3.2c.16.38.27.8.43 1.18q3.09 7.45 6.2 14.9v.19zM68.64 80.5l-.26.14c-.26-.33-.5-.68-.78-1-3.31-3.71-6.68-7.34-12.08-7.82-.33 0-.63-.31-1-.32-2-.08-3.68-1.8-5.84-1.3a8.46 8.46 0 01-.88.09c.17.27.27.64.52.79a25.47 25.47 0 016.74 6.35c1.12 1.49 2.26 3 3.47 4.37a4.56 4.56 0 001.78 1.27c3.47 1.26 7 2.4 10.46 3.64.92.33 1.16 0 .8-.73-.88-1.85-1.93-3.65-2.93-5.48zm4.21-41.65c-.58-1.19-1.84-1.06-2.7-1.46-.67-.32-1.47-.38-2.1-.75-2.55-1.48-5-3-7.56-4.56-.65-.39-1.34-.72-2-1.06-.17-.09-.61-.67-.45.12.28 1.47.33 3.16 1.11 4.34A35.72 35.72 0 0161.66 41c.64 1.44 1.44 2.81 3.34 3a3.41 3.41 0 011.44 1c2.56 2.16 5.56 2.9 8.74 3.22.67.06 1-.25.75-.9-1.01-2.83-2.05-5.65-3.08-8.47zm-16.1 47.71l.06.08c.4-.32.81-.62 1.19-1a3.39 3.39 0 00.44-.56 3.54 3.54 0 00-.66-.3c-1.56-.34-3.13-.67-4.7-1s-3.14-.67-4.72-.82a3.19 3.19 0 00-2.08.57c-2.78 2.08-5.49 4.27-8.2 6.43a3 3 0 00-.49.74 6.35 6.35 0 00.7.23c3.07.49 6.14 1 9.22 1.42a2.56 2.56 0 001.64-.35c2.56-1.78 5.07-3.62 7.6-5.44zm-2.35-7.2l.14-.14c-1.2-1.17-2.39-2.35-3.6-3.51-1.81-1.74-3.6-3.52-5.5-5.16a4.37 4.37 0 00-2.28-.82c-2.33-.25-4.68-.36-7-.51a6.26 6.26 0 00-.75 0 6.69 6.69 0 00.59.6c3.08 2.35 6.16 4.68 8.43 7.93.62.87.69 2.23 1.76 2.63a21.32 21.32 0 003.44.62c1.47.29 2.93.65 4.4.95.82.16 1.66.25 2.49.38-.44-.66-.86-1.33-1.31-2-.21-.33-.54-.63-.81-.97zm-24.19-3.88a9.38 9.38 0 01.89 1.15c1.21 2.31 3.12 2.76 5.51 2.27a6.16 6.16 0 012.18.27c1.31.25 2.6.55 3.91.77.53.09 1.13 0 .53-.74a21.53 21.53 0 00-2.92-3.49A59.56 59.56 0 0030.6 69a1.3 1.3 0 00-.91-.15c-1.55.61-3.08 1.28-4.61 1.93l-.42.22a2.16 2.16 0 00.51.36 9.8 9.8 0 015.04 4.12zm49.05 9.09a33.15 33.15 0 00-7.43-7.76 15.87 15.87 0 00-6-3c-.41-.09-.83-.15-1.24-.22a10.11 10.11 0 00.75 1c.65.65 1.4 1.22 2 1.92 1.57 1.9 3.11 3.81 4.56 5.79a12.82 12.82 0 012 3.48 3.65 3.65 0 002.31 2.46c2.36.89 4.71 1.8 7.07 2.68a5.28 5.28 0 001 .16 5.06 5.06 0 00-.45-.79c-1.42-1.73-2.73-3.39-4.57-5.72zM58 20.93c-.1.25-.22.4-.22.55a44 44 0 00.16 5.27 4.08 4.08 0 001.44 2.17 21.52 21.52 0 003.32 2.25c2.38 1.38 4.8 2.68 7.21 4a.55.55 0 00.24.07c.6.07 1 0 .73-.8-.72-2-1.47-3.92-2.12-5.91a4.15 4.15 0 00-3.55-3 3.53 3.53 0 01-1.45-.37c-1.77-1.25-3.49-2.57-5.22-3.87zm8.7 70.89c.93-.73 1.84-1.49 2.8-2.19s.29-1-.27-1.19c-2.36-.88-4.72-1.77-7.12-2.54a2.46 2.46 0 00-1.83.29c-2.45 1.62-4.84 3.33-7.25 5a9.48 9.48 0 00-.79.63 4 4 0 00-.37.35c.21 0 .41.12.61.16 2.65.42 5.32.71 7.92 1.31 2.21.5 4.2.77 5.72-1.36a3 3 0 01.56-.46zm12-27.18c2 2.53 3.92 5.12 6 7.57a9 9 0 012.48 6.18 4 4 0 001.24 2.68 3.06 3.06 0 00.35.37 2.5 2.5 0 000-.55c-1-4.08-1.63-8.29-3.47-12.14-1.13-2.35-2.23-4.75-3.3-7.07-.18-.38-.3-.79-.5-1.16-.68-1.28-1.33-2.35-3.16-2.43-1.23-.05-2.44-1-3.64-1.58-.81-.4-1.56-.91-2.37-1.31a2 2 0 00-.89 0c.13.21.23.45.38.65zm-48.4 20.2q1.8-1.41 3.59-2.83a3.9 3.9 0 00.33-.38c-.2-.13-.38-.35-.58-.36-1.43-.08-2.86-.1-4.29-.16-2.69-.12-5.39-.18-8.07-.39-.81-.07-1.3.05-1.62.78s-.77 1.65-1.1 2.49c-.09.22-.08.65.06.76 2.19 1.67 4.88 2.2 7.38 3.17l3.71-2.6c.22-.15.41-.32.61-.48zm52.07-51.56l-.63-.8a5.13 5.13 0 00-.09.67c.14 3.22-.85 6.27-1.45 9.37a23.12 23.12 0 01-1.63 3.91 2 2 0 00-.21 1.33c.83 2 1.75 4 2.67 6a.66.66 0 00.58.06 4.8 4.8 0 00.55-1.14c1-3.06 3.34-5.92 1.46-9.43V43c-.19-2.34-.34-4.69-.61-7a18 18 0 00-.64-2.72zm-42.7 53.27a669.6 669.6 0 004.17-3.29c.36-.28.67-.65-.06-.8-1.8-.36-3.61-.72-5.43-1a2.48 2.48 0 00-1.6.54c-2.54 1.94-5 4-7.56 5.92-.89.69-.05.61.29.75 2.84 1.17 5.64 2.2 8.23-.57a16 16 0 011.96-1.55zm-20.49-11h.06c.31.4.65.78.94 1.2a3.13 3.13 0 003.1 1.67 35.57 35.57 0 015 .23c.74 0 1.48.15 2.22.22-.44-.61-.87-1.22-1.31-1.82a4.33 4.33 0 00-.8-1 67.34 67.34 0 00-5.68-3.7c-.57-.31-1.58.2-2.39.32l-2.88.4zm39.65-56.62a20.47 20.47 0 006.41 4.26 6.6 6.6 0 001.18.31 5.62 5.62 0 00-.07-1.17 25.32 25.32 0 01-1.12-3.6 3.68 3.68 0 00-2.38-3c-1.28-.63-2.67-1.09-3.48-2.41 0-.08-.61 0-.64.09-.56 1.87-1.57 3.72.1 5.52zm10.91-8.59l.2-.14-.71-.59c-.06.25-.09.49-.17.73-.56 1.75-1.2 3.48-1.65 5.26a6.53 6.53 0 00-.14 2.91 41.51 41.51 0 001.51 4.26c.22.61.38.92.92.2 1.69-2.24 2.07-4.89 2.49-7.53a1.27 1.27 0 00-.12-.72c-.76-1.47-1.55-2.92-2.33-4.38zm-.51 42.07s.47.42.8.32c2.2-.69 3.63.67 5.26 1.68a17.33 17.33 0 003.41 1.4c.13 0 .66-.49.62-.64-.61-2.27-1.69-4-4.28-4.62s-5.72-.51-8-2.62a15.86 15.86 0 00-1.37-1.08c-.12-.11-.25-.21-.38-.31a2.65 2.65 0 00.18.52c1.18 1.65 2.33 3.29 3.76 5.35zm.65 39.12l-2.74 2.16a1.52 1.52 0 00-.26.35 2.42 2.42 0 00.47.07h1.27c3.93-.3 7.71-1.9 11.74-1.41.13 0 .27-.09.4-.15-.11-.1-.19-.24-.32-.3-1.09-.45-2.22-.81-3.27-1.33-2.76-1.37-5.41-2.16-7.29.61zM16.75 75.2c-.6-1.92-2.27-2-4.28-1.35a7.43 7.43 0 01-6-.84c-1.23-.73-2.45-.39-3.69-.35-.18 0-.35.3-.53.46.14.15.26.37.43.42 1.42.43 2.85.84 4.29 1.21q5.2 1.35 10.43 2.66c.31.08.62.12.93.17a4.53 4.53 0 00-.33-.82c-.31-.42-.65-.76-1.25-1.56zM4.6 76.46a3.72 3.72 0 00.56.49c1 .61 2 1.2 3 1.8 2.46 1.45 4.93 2.9 7.41 4.33.19.12.65.17.7.08a18.56 18.56 0 001.4-2.87 3.37 3.37 0 00-1.48-.9c-3.62-1-7.27-1.93-10.91-2.87a4.07 4.07 0 00-.68-.06zm93.88 24.74c.74.93 1.46 1.87 2.21 2.79a7.82 7.82 0 00.72.69 7.57 7.57 0 00-.47-.84c-3.12-4.08-6.66-7.86-8.88-12.58-.06-.13-.21-.22-.32-.32a4.14 4.14 0 00-.06.7c.15 1.92-.87 2.72-2.67 2-.48-.18-.92-.43-1.39-.62a5.86 5.86 0 00-.72-.19 3 3 0 00.57.79c.34.22.81.24 1.17.43 3.65 1.95 7.77 3.11 9.84 7.15zM66.6 7.8c-.74-.41-1.39-.81-2.07-1.13s-1.18-.46-1.77-.67a10.55 10.55 0 00.47 1.88c.65 1.45 1.4 2.84 2.1 4.27a9.41 9.41 0 01.39 1 4.56 4.56 0 00.54-1 22.9 22.9 0 00.61-2.94 4.58 4.58 0 00-.27-1.41zm-6.71 3.61c.84.65 1.49 1.18 2.18 1.64a3.12 3.12 0 00.93.26c0-.31.24-.67.14-.92-.7-1.7-1.46-3.37-2.21-5.05 0 0-.38 0-.41.12a17.49 17.49 0 00-.72 2.41 6 6 0 00.09 1.54zm26.74 70.08l-.78-.69a5 5 0 00.45.82 5.79 5.79 0 00.68.72c-.13-.29-.25-.59-.35-.85z" fill="#575756" data-name="Слой 2"/></svg>