<svg xmlns="http://www.w3.org/2000/svg" viewBox="0 0 112.81 100.04"><defs><style>.cls-1{fill:#575756}</style></defs><g id="Слой_2" data-name="Слой 2"><g id="EVF11101"><path class="cls-1" d="M78.11 36.45a.7.7 0 01-.06-.09l-.07.11zM83.52 28zm8.71-3.22a.82.82 0 01-.06-.25l-.29.18z"/><path class="cls-1" d="M105 81.84c-1.16-1.51-1.78-3.31-3.2-4.72-1.09-1.08-2.64-2-3-3.8 1.4 0 2.9.31 3.56-1.26s-.06-2.94-1.33-4.18c-3.95-3.83-9-5.56-14.06-7.6.37-.32.6-.56.87-.75 1.34-.91 1.28-2.37 1.1-3.63s-1.63-.86-2.52-1.19c-3.13-1.12-6.16.27-9.57.52 1-.91 1.78-1.63 1.37-2.75s-1.36-.82-2.15-1c-2.57-.65-4.88.49-7.29 1-1.56.34-3 1.4-5.16.92 1.68-.81 3-1.89 4.33-2 5-.45 9.68-2 14.58-2.61 1.74-.21 3.07-.35 3.13-2.55 0-1.1 1.17-.93 1.94-1.09 4.27-.86 8.65-1.21 12.82-2.62 2.23-.75 2.79-2.34 1.53-4.4-.27-.45-.83-.8-.66-1.58 2.12-.3 3.7-1 4-3.56.28-2.11-.75-3.14-2.45-4.16 3.62-2 5.75-5.49 9-7.76 1.59-1.12 1.24-3.94-.47-4.82-1.11-.57-.55-1.29-.46-1.91.52-3.43 1.13-6.84 1.67-10.26S112.2-.28 109 .45c-5.1 1.15-9.1 4.28-12.87 7.72-.4.37-.55 1.21-1.24 1-.46-.14-.5-.77-.45-1.32.14-1.91-1-2-2.43-1.64a6 6 0 00-3 2.11c-2.44 2.66-5 5.22-7.81 8.14.25-1.52.48-2.57.58-3.64s.9-2.27-.39-3c-1.13-.61-2.23 0-3.29.6-3.21 1.81-4.91 4.93-6.85 7.85-2.51-2.15-3.51-2-5.08.72-1.31 2.28-2.72 4.51-3.85 6.88-.7 1.47-1.16 2.71-3.15 1.84-.32-.14-1.27.26-1.31.51-.34 2.22-2.47 3.05-3.52 4.71-2.43 3.8-6 6.68-8.62 10.52-.37-1.21.21-1.83.61-2.57.77-1.44 2.23-2.63 2.24-4.36 0-3 1.42-4.86 3.85-6.42 2.26-1.46 3.65-4.92 2.51-6.92-1.29-2.25.11-3.39 1.07-4.83.51-.75 1.2-1.37 1.71-2.12 1.63-2.37 1-3.78-1.79-4a4 4 0 00-1.24 0c-1.64.4-2.1-.2-1.78-1.82.52-2.65.84-5.34 1.36-8C54.7.3 54-.41 51.9.23a16.8 16.8 0 00-6.65 4 44.94 44.94 0 00-9.17 11.53c-1.07-1.89-2.45-2.59-4.29-2.11s-1.8 2.17-2.06 3.61-.47 2.66-.65 4c-.12.86-.36 1.22-1.42 1.2-3.17 0-4.66 1.35-5.18 4.52-.84 5-1.44 10-2.55 15a26.44 26.44 0 00.57 13.52c.84 2.75 0 4.31-1.47 6.11-.36.45-.77.87-1.17 1.28a98.29 98.29 0 00-9.46 11c-2.84 4-4.65 8.53-7.29 12.63A6.06 6.06 0 00.79 93l2 .33q2.73-3.63 5.48-7.24c4.16-5.43 9.55-9.5 15.05-13.43A13.27 13.27 0 0141 74.5a16.16 16.16 0 012.1 3.37c.66 1.27 1.8 1.4 3 1.49 1.43.1 1.18-1.31 1.78-2.16a11 11 0 012 4c.95 2.79 2.39 4.66 5.73 4.94 4 .34 4 .59 6.89 4.59.2.28.42.54.59.83 1.09 1.76 3 1.38 4.55 1.5s.91-1.67 1.68-2.61c1.35 2.27 3.45 3.66 5.28 5.3 2.83 2.52 5.58 1.53 6.23-2.09.06-.33.14-.66.21-1a7.29 7.29 0 013 1.65c3.48 2.88 7.11 5.53 11.96 5.69 1.62.07 2.21-.28 2.54-1.87.56-2.62-.59-4.87-1.23-7.22-.52-1.89-.7-2.9 1.85-2.31a28.25 28.25 0 004.71.3 1.24 1.24 0 001.45-1.09c.44-2.01 1.08-4.1-.32-5.97zm-2.74 4.32a13.8 13.8 0 01-4.72-.34c-2.92-.41-3.94.46-3.44 3.41.4 2.41 1.51 4.68 1.72 7.15 0 .29.07.58.1.82-3.05.25-5.16-1.33-7.29-3S84.15 91 82 89.38a2.62 2.62 0 00-3-.38c-1.13.59-.54 1.53-.44 2.41a7.11 7.11 0 01-.22 1.75c-.17 1.31-.69 1.7-1.76.67-1.9-1.83-3.82-3.65-5.71-5.5-.76-.75-1.37-1.66-2.66-1.5-1.54.21-1.34 1.44-1.56 2.45-.1.46 0 1.08-.76 1.08s-1.17-.65-1.47-1.22c-1.32-2.58-2.27-5.38-4.19-7.62-.48-.56-.56-1.64-1.8-1.39s-1.2 1.14-1.4 2c-.13.58.13 1.51-1 1.46s-2.34-.25-2.92-1.56c-1.19-2.73-2.09-5.58-3.9-8-.67-.92-.62-2.55-2.3-2.37s-1.1 1.77-1.47 2.76a8.81 8.81 0 00-.24 1c-2-1.11-2.15-3.51-3.76-4.86A6.53 6.53 0 0038 68.79a34.38 34.38 0 01-5.49-.92c-4.21-1.25-7.74.29-11 2.58a99 99 0 00-15 12.92c1-3.28 2.82-5.54 4.28-8C13.46 70.82 17.63 67.6 21 63.7c2.29-2.62 3.53-5.14 2.22-9a23.22 23.22 0 01-.79-12.51c1-4.61 1.58-9.32 2.37-14 .48-2.88 1.25-3.25 3.87-2.12 1.42.61 2.18 0 2.4-1.56.37-2.64.85-5.26 1.28-7.86.43 0 .66 0 .74.08 3.18 3.63 3.83 3.43 6.18-1.14a29.11 29.11 0 016.5-8c1.68-1.53 2.8-3.8 5.7-4.05-.43 2.61-.71 5.26-1.34 7.82-.58 2.36.19 3.32 2.51 3.39a11.46 11.46 0 012.08.44c-1.31 1.9-2.6 3.59-3.69 5.4-.68 1.13-1.31 2.33.58 3.29 1.48.75 1.19 2.33-.66 3.77s-4 3-5.05 5.36c0 .08-.17.14-.16.19.52 4.88-4.27 8.17-3.91 13 .06.88-.63 1.93.32 2.58 1.11.77 1.87-.3 2.63-.87 4-2.92 6.41-7.33 9.84-10.78 2-2 2.76-5.31 6.49-5.42 1.08 0 2-1.38 2.57-2.55 1.49-2.89 3.08-5.73 4.66-8.66 1.63 3.1 2.49 3.2 4.38.53a60.93 60.93 0 003.95-5.92 6.11 6.11 0 012.53-2.26c-.42 2.52-.78 4.7-1.14 6.88-.14.91-.47 1.87.74 2.35a2 2 0 002.45-.8 63.75 63.75 0 017.33-8.65c.94-.91 1.84-1.87 2.77-2.82 2.24 3.46 3.93 3.69 6.46.49 2.73-3.45 6.72-4.95 10.24-7.15 1.06-.66 2.19-.32 1.79 1.43-.79 3.42-.72 7-2.19 10.31-.94 2.12.42 3.16 2.38 3.82a52 52 0 00-5.9 5.62c-.64.69-1.28 1.53-2.4 1.51a1.8 1.8 0 01-1.26.9c-2.2 2.38-2 3.42.93 4.73.58.26 1.13.48 1.15 1.13s-.69 1-1.17 1.17a15.72 15.72 0 01-2.68.36c-.87.11-1.85-.13-2.17 1.16a2.47 2.47 0 00.96 2.71c.69.58 1.48 1.05 2.37 1.67a28.55 28.55 0 01-6.31 1.82c-2.11.35-4.21.81-6.34 1-1.44.12-2.69.8-4.07 1-.16 0-.39.14-.42.26-1.44 4.41-5.62 2.95-8.59 3.87-3.75 1.16-7.92.84-11.36 3.17a8.66 8.66 0 00-2.18 1.78c-1.16 1.63-.54 2.64 1.36 3.26 3.51 1.15 6.43-1 9.65-1.43.64-.08 1.24-.65 1.93-.21-.91 3.4.18 4.34 3.74 3.71 2.73-.48 5.49-1.88 8.58-.47-.71.82-1.68.94-2.14 1.81-.7 1.33-.91 2.1.79 2.9 4.39 2 9.19 3.28 13.08 6.35.7.55 1.85 1 1.6 2-.11.43-1.42.53-2.3.35s-1.75-.1-2.13.8a2.15 2.15 0 00.38 2.57c1.41 1.39 2.77 2.83 4.2 4.2 1.86 1.79 2.82 4.11 3.78 6.41.28.7.1 1.18-.9 1.34z"/><path class="cls-1" d="M98.48 25a11.45 11.45 0 01-4.23.68c-.77 0-1.68 0-2-.79v-.08l-.35-.07.29-.18c-.06-.66.65-1.07 1.15-1.46 2.53-2 5.42-3.41 8.11-5.15 1.78-1.14 3.87-2 4.84-4.1a1 1 0 00-1.49 0c-4.34 3.67-9.72 5.76-14.16 9.27-1.65 1.31-3.26 2.68-4.9 4-.65.51-1.34 1.41-2.17.87-.81-.6-.39-1.66-.2-2.53a12.9 12.9 0 011-2c.13-.32.2-.69-.09-.93s-.78-.05-1.08.25a5.61 5.61 0 00-1.36 3.73 9 9 0 01-3.68 6.88c-4 3.11-7.73 6.54-11.84 9.49-.68.49-1.53 1.59-2.38.79s-.22-1.92.28-2.81a90.51 90.51 0 015.9-9.13 5.84 5.84 0 001.51-3c-.91-.41-1.27.15-1.59.61A125.75 125.75 0 0062.92 40a7.61 7.61 0 00-.86 3.15c-.15 2.1-1.31 3.29-3.13 4.2-5.43 2.71-10.93 5.29-16.28 8.16-1.36.72-4 1.8-3.35 2.77 1 1.53 2.34-.84 3.56-1.42 5-2.38 9.93-5 15-7.43a56.39 56.39 0 0014.66-9.78 5.74 5.74 0 014.81-1.52c4.64.35 9-1.06 13.19-2.88a.54.54 0 00.27-.69c-.91-.59-1.75 0-2.58.28a57.71 57.71 0 01-8.09 2c-.7.11-1.55.27-2-.43h-.13l.07-.11c-.36-.74.4-1.21.87-1.65A91.62 91.62 0 0187 27.86a3.22 3.22 0 012.12-.67 34.17 34.17 0 009.29-.85c.73-.17 1.51-.34 2.06.44a1.8 1.8 0 001.26-.9 2.46 2.46 0 00-3.25-.88z"/><path class="cls-1" d="M98.45 26.34a34.17 34.17 0 01-9.29.85 3.22 3.22 0 00-2.12.67 91.62 91.62 0 00-8.13 6.84c-.47.44-1.23.91-.87 1.65a7.75 7.75 0 012.46-2.29c3.38-2.25 5.5-6.7 10.49-6.25 3.23.29 6.32-.86 9.51-1-.5-.81-1.32-.64-2.05-.47zm-12.73.78c1.64-1.32 3.25-2.69 4.9-4 4.44-3.51 9.82-5.6 14.16-9.27a1 1 0 011.49 0c-1 2.11-3.06 3-4.84 4.1-2.69 1.74-5.58 3.17-8.11 5.15-.5.39-1.21.8-1.15 1.46 2.2-1.25 3.72-2.62 5.6-3.6a72.47 72.47 0 008-5.2c.88-.62 2.27-1.59 1.3-2.78s-2.2 0-3.17.65-1.68 1.47-2.68 2.11c-4.37 2.81-9.21 4.93-13 8.62a50.41 50.41 0 01-4.7 3.64c.86.53 1.55-.37 2.2-.88z"/><path class="cls-1" d="M80.08 36.88a57.71 57.71 0 008.09-2c.83-.25 1.67-.87 2.58-.28a.54.54 0 01-.27.69c-4.21 1.82-8.55 3.23-13.19 2.88a5.74 5.74 0 00-4.81 1.52 56.39 56.39 0 01-14.66 9.78c-5 2.38-9.93 5-15 7.43-1.22.58-2.53 3-3.56 1.42-.65-1 2-2.05 3.35-2.77 5.39-2.91 10.89-5.49 16.32-8.2 1.82-.91 3-2.1 3.13-4.2a7.61 7.61 0 01.86-3.15A125.75 125.75 0 0170 29.21c.32-.46.68-1 1.59-.61a5.84 5.84 0 01-1.51 3 90.51 90.51 0 00-5.9 9.13c-.5.89-1.1 2-.28 2.81s1.7-.3 2.38-.79c4.11-2.95 7.85-6.38 11.84-9.49a9 9 0 003.68-6.88 5.61 5.61 0 011.36-3.73c.3-.3.65-.62 1.08-.25s.22.61.09.93a12.9 12.9 0 00-1 2c-.19.87-.61 1.93.2 2.53.18-1.71.27-3 1.49-4.14a1.66 1.66 0 00-.11-2.49c-.87-.57-1.58.11-2.25.83-1.64 1.78-1.34 4.08-1.81 6.17a4.88 4.88 0 01-1.53 3 190.81 190.81 0 01-15.27 12.39 4.46 4.46 0 011-3.37c2.17-3.46 4.45-6.84 6.77-10.2.63-.92 1.21-1.91.19-2.62s-1.78.22-2.39 1C68.33 30.23 67 32 65.89 33.9c-1.8 3-4.4 5.66-4.51 9.45a3.26 3.26 0 01-2.19 3.19c-2.5 1.09-4.95 2.29-7.35 3.57-4.32 2.29-8.84 4.11-12.92 6.94-.81.57-1.62 1.19-.74 2.21.7.8 1.56.64 2.49.11S42 58 43 57.58c5.81-2.81 11.53-5.78 17.3-8.67a57.39 57.39 0 0011.39-7.66c1.21-1 2-3.11 4.19-2.64 4.68 1 9-.64 13.22-2.13 1.09-.39 3.56-.09 2.77-2.24-.72-2-2.49-.36-3.67 0-3.26.87-6.45 2-10.07 2.25.4.66 1.25.51 1.95.39zM99.53 24a12.53 12.53 0 01-7.3.78v.08c.32.77 1.23.79 2 .79a11.45 11.45 0 004.25-.65 2.46 2.46 0 013.29.91c.29-1.91-.35-2.55-2.24-1.91zm-9 53c-3.22-1-6.52-1.89-9.18-4.09a75.53 75.53 0 00-6.79-5.48 6.7 6.7 0 014.44-.61 1.7 1.7 0 002.28-1.66c0-1.18-1.06-.89-2-1-3.58-.64-6.88 1.46-10.69.16-7.1-2.42-14.8-1.44-22.14-2.78a1.23 1.23 0 00-.74 0c-.52.3-1.46.14-1.37 1.15a1.21 1.21 0 001.08 1.2c2.83.31 5.56 1.3 8.47 1.06 4.43-.38 5-.08 6.12 4.11a15.42 15.42 0 004.65 7.52c.87.79 2.07 2 3.22.6.94-1.13-.22-1.89-1.07-2.6a13 13 0 01-4.76-9 29.81 29.81 0 014.17.72c4.27 1.38 8.09 3.23 10.16 7.74 1.47 3.22 3.2 6.44 6.09 8.74.68.54 1.5 1.35 2.39.33s.1-1.82-.57-2.37a11.66 11.66 0 01-3-4.25c2.66 1.49 5.6 2 8.42 2.88.88.27 2 .47 2.26-.81.26-1.07-.55-1.33-1.44-1.56zM45.58 26.2c-1.18-.88-1.92.43-2.67 1.31-1.43 1.67-2.64 3.67-5.71 4.27 2.52-3.16 3.8-6.4 6.56-8.69a36.53 36.53 0 004-4.61 1.2 1.2 0 00.06-1.6c-.49-.76-1-.16-1.55-.13-1.75.13-2 1.88-2.94 2.83-6 6.09-11 12.76-12 21.68-.05.49.13 1.18-.8 1.55-.48-2.3-1.66-4.33-1.4-6.7a4.2 4.2 0 00-.83-2.8c-.42-.64-.85-.56-1.5-.36s-.93.41-.87 1c.46 4.25.75 8.59 3.62 12.08.59.72.94 1.25.67 2.14-1 3.34-.15 6.81-.65 10.19-.16 1.09.5 1.52 1.47 1.61a1.26 1.26 0 001.51-1.53c-.7-6.4.65-12.62 1.6-18.88a4.22 4.22 0 012.38-3.26 45.12 45.12 0 008.63-7c.93-.87 1.52-2.3.42-3.1z"/></g></g></svg>