<svg xmlns="http://www.w3.org/2000/svg" viewBox="0 0 114.62 119.78"><defs><style>.cls-1{fill:#575756}</style></defs><g id="Слой_2" data-name="Слой 2"><g id="EVF11101"><path class="cls-1" d="M90.42 114.72a3.44 3.44 0 011.18-.72 21 21 0 005.4-3.11 14.94 14.94 0 011.7-1 33.22 33.22 0 003.72-2c3.42-2.42 6.72-5 10.12-7.41 1.14-.81 1.44-2.06 2-3.16a1 1 0 00-.2-.91c-1-1.21-2-2.4-3-3.56-.29-.32-.85-.43-1.16-.76-1.6-1.65-3.17-3.33-4.91-4.87-1.4-1.26-2.45-2.94-4-4.22-1.17-1-2.17-2.23-3.29-3.28s-2.6-2.19-3.76-3.4c-2.06-2.15-4-4.39-6-6.59-.23-.24-.49-.44-.73-.68-1.82-1.76-3.77-3.43-5.44-5.34-2.11-2.42-4-5-6-7.54-1.69-2.19-3.26-4.46-4.93-6.64-3.7-4.76-6.89-9.9-11-14.34a49 49 0 00-3.55-3.65 37.2 37.2 0 01-4.75-5.22Q42.51 13.69 33.18 1c-.92-1.23-1.24-1.28-2.55-.4-.16.11-.32.21-.46.32C26 4.18 21.56 7 17.62 10.51a38.69 38.69 0 00-4.27 3.93 39.35 39.35 0 00-4.55 5.93c-1 1.74-1.78 3.52-2.68 5.28a41 41 0 00-2.49 7.29c-.75 2.62-1.44 5.28-2.39 7.85a21.32 21.32 0 00-1.11 9.69c.18 1.92.38 3.84.42 5.77A8.62 8.62 0 001.09 59c.71 1.93 1.44 3.86 2 5.85 1.06 3.65 2 7.34 3.05 11 .52 1.87 1.08 3.73 1.74 5.54s1.33 3.33 2.05 5c.58 1.28 1.23 2.52 1.84 3.78l11.39 15.33c1.57 1 3.18 2 4.66 3.13a10.21 10.21 0 003.33 1.85 20.76 20.76 0 016.27 3c2.39 1.68 5.22 2.62 9.33 3.37a2.41 2.41 0 01.81.2 14.8 14.8 0 006.85 1.78c3.33.15 6.64.61 10 .93a8.27 8.27 0 001.11-.07 16.93 16.93 0 013.23-.25 19.38 19.38 0 005.64-.28c2.09-.36 4.18-.64 6.28-1a28.29 28.29 0 002.87-.64c1.18-.34 2.34-.77 3.51-1.12a8.93 8.93 0 003.37-1.68zm-3.23-.16h-.06v-.09zm11.7-8.38a1 1 0 01.07.24s-.08 0-.13.07l-.1-.26zm1.93-.94h-.09.06zm3.29-3h-.09l.06-.08zm2.08-1.53h-.09l.05-.07zm.94-.9h-.06v-.1zm1.15-.78v.12a.49.49 0 01-.12-.13.38.38 0 01.07-.08s.04.06.05.06zm1.14-1a1.57 1.57 0 01-.13.23h-.17a1.2 1.2 0 01.13-.21.34.34 0 01.17-.05zM77 59.09c.07 0 .13.14.19.2 1 1.16 2 2.26 2.92 3.47a39.68 39.68 0 007 7.36 7.52 7.52 0 01.72.67c2 2.2 3.93 4.44 6 6.58 1.3 1.36 2.79 2.52 4.17 3.78.23.21 1 .48-.08.65-.52.09-.53.73 0 .92 2.17.77 3.64 2.44 5.23 4 .17.16.36.31.54.45.45.36.88.69.49 1.42-.12.23.18.68.28 1a1.17 1.17 0 000 .27 1.75 1.75 0 01-.74 2.1 38.13 38.13 0 01-6 3.82c-.58.32-1.1.74-1.65 1.11a1.64 1.64 0 01-2.46-.35c-.85-1.18-2-2.17-2.23-3.74a1.78 1.78 0 00-.41-.73 13.39 13.39 0 01-2.55-5.15 7.27 7.27 0 00-.75-1.67c-.64-1.41-1.2-2.87-1.94-4.23-1.21-2.18-1.77-4.68-3.28-6.72a4.78 4.78 0 01-.35-.76 33.88 33.88 0 00-2.23-4.26A23.86 23.86 0 0176.55 62a8.51 8.51 0 00-.78-2c-.22-.43-.19-.77.22-.93a2.5 2.5 0 011.01.02zm9.15 41.27a1.23 1.23 0 00.1.56c.14.43.56 1 .41 1.28a5.07 5.07 0 01-1.34 1.21c-.18.16-.39.29-.57.43-.34.26-.6.5-.67-.23a6.16 6.16 0 00-.55-1.88c-.12-.24-.57-.35-.87-.51a5 5 0 000 .86c.07.52.21 1 .31 1.52.26 1.42-.17 2-1.51 2.51s-2.72 1.19-4.09 1.78a10.66 10.66 0 01-5.14.67c-1.94-.15-3.85-.59-5.78-.81-1-.12-1.31-.84-1.8-1.47a1.91 1.91 0 01-.58-2 11 11 0 00.15-2.25c.09-.78.22-1.56.34-2.35.17-1.11.33-2.23.55-3.34.57-3 1.11-6 1.77-9s1.56-6.18 2.29-9.28c.79-3.29 1.51-6.6 2.3-9.89.37-1.52.85-3 1.22-4.5.2-.78.25-1.57.4-2.36 0-.21.26-.38.4-.56.16.16.43.28.47.46.95 3.42 3.16 6.2 4.59 9.38.69 1.54 1.75 2.91 2.49 4.42a34 34 0 011.88 4.71c.55 1.75.87 3.57 1.36 5.33.65 2.38 1.31 4.75 3.06 6.62a4.21 4.21 0 011 2.44 9.83 9.83 0 00.76 2.72 3 3 0 01.12 1.92 1.17 1.17 0 000 .27 10.76 10.76 0 01-.71 1.35 4.32 4.32 0 01-.86.73 3.93 3.93 0 00-.38-1 3.5 3.5 0 00-.79-.62c-.13.32-.26.59-.32.88zm-23.55 3.13a2.63 2.63 0 010-.49c0-.13.17-.22.26-.32v-.09.08c0 .14.12.32.07.42a2 2 0 01-.33.4zm3.69-19.17v-.08c.1-.32.21-.66.33-1l-.09-.63v-.08.08c0 .21.07.43.11.64-.12.32-.23.66-.34 1zm.82-3.18a2 2 0 01-.1-.26c.08-.2.18-.4.27-.59v-.08.08c-.09.2-.18.39-.26.59a1.38 1.38 0 00.09.26zm.65-2.51v-.48c0-.13 0-.27.07-.4s0-.26.06-.41L68 77c0-.14 0-.27.06-.4s0-.27 0-.4a1.34 1.34 0 00.09-.26 2 2 0 010 .26c0 .13 0 .28-.06.4s0 .26-.06.41 0 .26-.06.39a2.57 2.57 0 01-.07.4 2.76 2.76 0 01-.06.4v.4zm.69-3.6a1.66 1.66 0 010-.33c.13-.44.28-.87.42-1.3 0-.26.08-.53.13-.8l.06-.38v-.07.08c0 .12 0 .25-.06.38v.79c-.07.46-.13.92-.22 1.36-.07.1-.24.18-.33.24zm16 6.16a2.61 2.61 0 01.31.43v.27c.84 1.83 1.71 3.66 2.54 5.5a1.66 1.66 0 010 .67c-.11-.15-.27-.28-.37-.43a13.27 13.27 0 01-2.23-5.74 1.69 1.69 0 01-.1-.27zM71.2 61.08c-.34 1.72-.74 3.42-1.24 5.08-1 3.34-2.14 6.65-3.16 10a17.52 17.52 0 00-.25 1.79c-.47 2.26-1.09 4.49-1.45 6.75-.33 2-.33 4-.57 6.07a37 37 0 01-2.08 9.23 2.92 2.92 0 01-.85 1.1c-.79.67-1.66 1.25-2.51 1.88-.6.46-1.21.9-1.83 1.36a4.56 4.56 0 01-4.45 1 41 41 0 01-6.81-2.63 2.78 2.78 0 01-.92-.85C44 100.34 43 98.8 42 97.28c-.15-.22-.43-.35-.62-.55s-.38-.33-.38-.49a2.68 2.68 0 011.08-2.57c1.78-1.14 2.92-2.93 4.16-4.58a23.75 23.75 0 013.45-3.91 12.83 12.83 0 001.65-2.11c.55-.7 1.12-1.39 1.67-2.09.79-1 1.54-2 2.35-3 1.55-1.83 3.16-3.61 4.71-5.46a11.78 11.78 0 001.72-2.39 25.29 25.29 0 013.41-4.62c.87-1.12 1.61-2.34 2.54-3.4a10.23 10.23 0 012.33-1.84c.83-.47 1.32-.12 1.13.81zM38.63 89.39c-1.47 1.46-3.21 1.11-4.93.75a7.85 7.85 0 01-2.17-.94c-.7-.37-1.34-.89-2-1.3A10.66 10.66 0 0126 84.27c-.44-.62-.9-1.22-1.36-1.83-.17-.23-.33-.56-.56-.62-1.49-.4-1.45-1.77-1.89-2.86a14.93 14.93 0 01-.83-4.14 1.18 1.18 0 01.86-1.41c1.21-.4 2.43-.74 3.65-1 2.16-.53 4.33-1 6.46-1.56q4.31-1.17 8.53-2.55c1.19-.38 2.31-1 3.47-1.48 3.68-1.59 7.34-3.2 11-4.74 2.08-.87 4.22-1.61 6.31-2.46.44-.17.81-.52 1.24-.71 1.22-.58 2.45-1.18 3.72-1.65.31-.11.86.19 1.19.45s.19.69-.12 1.06a30.58 30.58 0 01-5.05 5.12 6.76 6.76 0 00-1 1c-1.39 1.65-2.79 3.3-4.17 5-.47.58-.89 1.2-1.4 1.74-.89 1-1.91 1.82-2.76 2.82s-1.72 2.25-2.58 3.37c-1.57 2.06-3.09 4.16-4.77 6.15-1.16 1.36-2.29 2.72-3.33 4.2a7.5 7.5 0 01-2.46 1.58c-.08.06-.35-.06-.41-.18-.36-.63-.74-.51-1.11-.18zm-6.58-20.22a9 9 0 01.85-.37c3.11-1.08 6.23-2.12 9.34-3.24 1.82-.65 3.53-1.61 5.38-2.1 2.41-.63 4.44-2 6.7-2.93 1.47-.61 3-1.24 4.43-1.82 0 0 .19.12.21.23.11.45-.25.49-.56.62-1.7.71-3.4 1.42-5.09 2.15-2.28 1-4.55 2-6.83 3-1 .43-2 .79-3 1.19a71 71 0 01-8 2.73c-1.1.3-2.15.69-3.24 1a3.07 3.07 0 01-.68 0zm-2.92 1.29v-.06h.09zm-1.45.36h-.09l.06-.06zm-6.18 1.73h-.09l.06-.08zm24.65 13.1a31.58 31.58 0 012.83-4c1.5-2 3-4 4.58-5.93 1-1.26 2.28-2.36 3.37-3.59s2.16-2.58 3.25-3.88c.28-.32.58-.61.84-.94.5-.61.93-1.26 1.44-1.86a3.68 3.68 0 011.06-.86c.16-.08.5.12.76.19a4.52 4.52 0 01-.34.57 42.16 42.16 0 00-3.36 4.53 33.52 33.52 0 01-4.18 5.29 32.78 32.78 0 00-4 5.05c-.11.2-.36.31-.51.49A29.08 29.08 0 0050 83a12.13 12.13 0 01-2.22 2.54 16.81 16.81 0 00-2.28 2.66c-1.09 1.37-2.13 2.76-3.22 4.13a4.83 4.83 0 01-.91.69c-.31.06-.66.91-1.17.32s.35-.79.63-1.16c.58-.73 1.15-1.47 1.75-2.19a18.2 18.2 0 011.3-1.47 11.1 11.1 0 002.27-2.87zm25-34.59c.73 1.06 1.52 2.07 2.28 3.11.77 1 1.53 2.06 2.28 3.09.25.33.27.6-.23.72s-.71.24-1.07.35c-1.93.61-2.13.53-3.43-1-.23-.27-.57-.61-.88-.63-.86-.05-1.1-.33-.62-1.07a1.17 1.17 0 00-.17-1.55 4.39 4.39 0 01-.42-.57 1.43 1.43 0 01.32-2.23c.17-.15.39-.27.56-.42.52-.45.94-.42 1.37.2zm-7.45 2.2a20.22 20.22 0 013.13 1.31c-.2.23-.28.38-.38.42L63 56.14c-3.19 1.09-6.37 2.26-9.48 3.54-1.34.56-2.55 1.41-3.87 2-.94.43-2 .68-2.93 1L38 65.83c-.76.28-1.5.57-2.26.84-2.2.81-4.39 1.71-6.64 2.4a12.13 12.13 0 01-5.46.47c-.7-.1-1.41-.07-2.12-.13a1.43 1.43 0 01-.38-.13c.08-.1.15-.25.25-.28.68-.23 1.35-.42 2-.63 1.8-.53 3.6-1.05 5.4-1.62.51-.15 1.29-.37.93-1.08-.27-.55-.89-.13-1.38 0-1.43.49-2.87.94-4.32 1.37-1 .31-2 .54-3 .83a1.51 1.51 0 01-2.06-.65A27.86 27.86 0 0117 64.38a46.4 46.4 0 00-2.74-4.78 2.38 2.38 0 01-.26-2.17c.54-1.57.17-3.18-.05-4.78a39.35 39.35 0 01-.52-4.33A3.4 3.4 0 0115 44.93a4.81 4.81 0 00.57-.44 2.59 2.59 0 012.76-.59 67 67 0 007.06 1.32c1.07.2 2.11.48 3.17.7l8.74 1.73c2.19.44 4.35.89 6.51 1.34a32.4 32.4 0 015.51 1.24c1.47.57 3 .38 4.44.74a17.47 17.47 0 003.17.26 7.74 7.74 0 013.67 1 10.2 10.2 0 003.09 1.03zm2.19-2.57c.06.11.1.25.16.38a1.46 1.46 0 01-.39.09c-1-.09-2-.19-2.92-.31a12.47 12.47 0 01-1.38-.27c-2.2-.51-4.48-.45-6.69-.85a47.42 47.42 0 01-5.1-.73c-3.16-.92-6.44-1.41-9.66-2.08h-.28c-1.58-1.07-3.5-.49-5.19-1.06-.31-.11-.67-.07-1-.19l-5.92-2.3-.39-.06-.4-.06c-.13 0-.26 0-.4-.06h-.08.08c.13 0 .27 0 .4.06a2.9 2.9 0 01.41.06l.4.05c.19 0 .42 0 .54-.05a5.1 5.1 0 00.61-.7c-.26-.17-.49-.44-.76-.5-1.11-.21-2.23-.41-3.35-.56-1.81-.22-3.4-1.1-5.11-1.64-.22-.08-.43-.31-.63-.28-.44.06-.84.38-1.25-.19a3 3 0 01-.81-1.91c.15-2.06.26-4.13.51-6.18A7 7 0 0120.46 26 29.72 29.72 0 0126 23.14a1.06 1.06 0 011.37.28 7.23 7.23 0 001.54 1c1 .65 2.08 1.28 3 2 1.71 1.35 3.41 2.7 5 4.19 1.32 1.25 3 1.87 4.47 2.94.67.49 1.37.93 2.05 1.4 1.5 1 3 2 4.5 2.94 1.15.72 2.35 1.39 3.53 2.06a8.48 8.48 0 011.1.63c1.89 1.46 3.77 3 5.64 4.46.07.06.14.15.23.17 1.59.47 2.66 1.74 4 2.63s2 2 3.31 2.62a.9.9 0 01.14.23zm-38-29.07a2.45 2.45 0 00.74.43 2.44 2.44 0 011.61 1.05 6.53 6.53 0 001.32 1.06c.62.43 1.24.84 1.88 1.25l8 5.07a9.17 9.17 0 011.49 1 35.16 35.16 0 005.75 4.06 13.45 13.45 0 013.62 3.35l.42.25a1.41 1.41 0 01-.22-.06l-.22-.08c-1.32-.71-2.67-1.38-3.94-2.15-1.62-1-3.2-2-4.76-3-.91-.59-1.72-1.31-2.65-1.83-3.11-1.74-5.7-4.15-8.42-6.38a39.44 39.44 0 00-3.51-2.4c-.23-.16-.55-.26-.69-.48a7.64 7.64 0 01-.4-1.14zm25.79 18.46a5.1 5.1 0 011.11.46c.2.13.3.43.53.77a3.8 3.8 0 01-.42-.15c-.18-.14-.35-.3-.52-.45zm3.44 2.67v.1l-.08-.07zM36.42 10.6c.68.13 1.43.24 1.93-.49a.29.29 0 01.31 0 9.24 9.24 0 01.61.79l6.36 8.59q2.7 3.68 5.42 7.32a61.72 61.72 0 005.28 5.9c2.26 2.33 4.73 4.49 6.57 7.21 1.74 2.56 3.66 5 5.47 7.48.3.41 1 .77.55 1.44s-1 .69-2 .35c-1.81-.69-3.11-2.09-4.68-3.12-.34-.23-.66-.53-1-.79a4.53 4.53 0 01-1-.79c-1.34-1.85-3.41-2.94-4.83-4.72a1.66 1.66 0 00-.76-.59 4.54 4.54 0 01-2.33-1.79 20 20 0 00-4.6-3.72 25.47 25.47 0 01-4.1-2.95 22.11 22.11 0 00-3.18-2.09c-1.18-.84-2.27-1.78-3.4-2.69-.71-.56-1.39-1.15-2.08-1.7l-4.18-3.37a8.22 8.22 0 01-.67-.49 6.65 6.65 0 01-1.47-1.64c-.92-2.07-.56-3.46 1.2-5 1-.86 2.11-1.61 3.18-2.38a4.27 4.27 0 013.4-.76zM25.35 6.44a1 1 0 01.26-.14.6.6 0 01-.09.18 1.71 1.71 0 01-.23.13c.02-.06.02-.13.06-.17zm-1.47 1.45s-.05-.15-.07-.22l.4-.09c0 .12 0 .21-.08.24a.32.32 0 01-.25.07zm4.33-1.43a.82.82 0 01.25-.14.6.6 0 01-.09.18c-.07 0-.15.08-.23.13s.02-.13.07-.17zm-6.14 2.46a1 1 0 01.39-.14s.09.1.14.17a4.11 4.11 0 00-.49.27c-.03-.17-.11-.3-.04-.3zm-1.27 1.53c.05-.09.08-.21.16-.26s.16.06.24.09l-.17.2zm-3.7 1.76s.07 0 .12-.05a.31.31 0 010 .1l-.11.07s-.03-.1-.01-.12zm2.49-.52a.67.67 0 01.18-.25s.14.05.21.1l-.15.17zm-4 2l.22-.14v.11a.21.21 0 01-.11.08s-.08-.02-.11-.03zm2.63-.91h.14l-.12.08h-.09s.03-.06.07-.06zm-1.46 1.65c0-.09.08-.17.11-.26 0 .08 0 .17-.07.26a2.58 2.58 0 01-.08.26zm3.24-.26v-.13a.45.45 0 01.14.1s0 .06-.05.09a.6.6 0 01-.09-.06zM12.59 17l.06-.07zm2.13-.55h.1l-.07.06zm4.06-1.22h.09l-.05.09zM12.1 17.7h.09l-.06.07zm-1.23 1.52c.06-.06.18-.06.27-.08a4.35 4.35 0 01-.32.43 4.29 4.29 0 01-.43.24 7.19 7.19 0 01.48-.59zm3.39-.68a1.17 1.17 0 01.16-.36h.27c-.13.19-.21.33-.32.46zm2.57-1.14h.1l-.06.08zm-7.21 4c0-.07.12-.09.19-.13s0 .19 0 .25a1.25 1.25 0 01-.3.25 1.73 1.73 0 01.11-.35zm3.32-1.49s.18.1.28.13a4.73 4.73 0 01-.4.54s-.12-.07-.24-.15c.12-.16.23-.33.36-.5zm-1.45 2.13l.22-.12v.09a.26.26 0 01-.11.08s-.08-.01-.11-.03zm-3.15 1.38h.3c-.1.23-.18.49-.3.72 0 .05-.15.06-.23.1.07-.3.14-.57.23-.82zm-2.46 9.15l.44-.8c.07 0 .18.1.19.13-.09.28-.22.56-.32.84zm-.47 1.8a1.53 1.53 0 01.17-.27l.15.06c-.09.25-.17.51-.27.73a1.6 1.6 0 01-.22.31c.06-.28.11-.56.17-.83zm1.4.34s.15-.06.24-.1c0 .32 0 .64.06.83l-.54.19c.08-.3.14-.63.24-.92zM4.15 37.5l.28-.45v-.08.08a1.72 1.72 0 01-.09.52c-.07.13-.23.21-.35.31.07-.13.11-.26.16-.38zm1.85.21v-.48.08c0 .14 0 .27-.06.4v.08zm-3 3.23c.1-.19.19-.39.29-.6a2.07 2.07 0 000-.37c0-.13.05-.26.07-.39v-.08.08l.06.42-.06.39-.29.61H3zm-1 2.5c.09-.2.17-.39.26-.58s.07-.16.11-.25c0 .09-.05.18-.08.27s-.17.38-.26.56v.08zm1.42-.08a2.35 2.35 0 01.29-.49v-.08.07a4.11 4.11 0 01.06.69c0 .07-.22.13-.34.18a1.2 1.2 0 01.05-.37zm2.05 0v-.08.16zm-2.18 2.7l-.18-.94h.29c0 .31.05.63.06.94 0-.01-.17 0-.17 0zm3.2.5v-.08.16zM2 49.14v-.46.07c0 .14 0 .27-.06.4v.07zm2.34-.66l.06-.41V48v.08c0 .13 0 .27-.06.4v.08zM1.59 52a3.2 3.2 0 01-.06-.81c0-.12.15-.22.24-.33.09.12.27.23.29.35a11.87 11.87 0 01-.12 1.21c-.21-.22-.34-.3-.35-.42zm3.48 0C5 51.82 5 51.63 5 51.45h.24v.66c-.07-.04-.17-.11-.17-.11zM5 54.7c0-.31-.06-.62-.07-1h.23c0 .35.08.7.13 1.06-.2-.02-.29-.03-.29-.06zm-3.26 2.47a4.1 4.1 0 01.11-.61c.08 0 .16.07.29.12 0 .21-.09.41-.13.63-.09-.05-.26-.09-.27-.14zm3.2-.32a1.78 1.78 0 01.11-.52h.24L5.1 57c-.1-.07-.16-.11-.16-.15zM2.7 60.06c-.1-.26-.18-.53-.26-.8a3.31 3.31 0 010-.45 2.9 2.9 0 01.27.41c.1.26.14.53.22.8v.36a3.19 3.19 0 01-.23-.32zm1.16-1.31h.18v.26c-.06 0-.16 0-.16-.06a.71.71 0 01-.02-.2zm1.45.71c0-.1-.07-.19-.1-.28a2.29 2.29 0 00.1.28zm1.18-.55v.17V59zM4.3 61.62v.1zm2.34-.75l.18-.06v.25l-.13.07c.01-.13-.02-.19-.05-.26zm.11 6.19h.09l-.06.08zm.49 1.33v.12c0 .03-.07 0-.11 0a.68.68 0 01-.06-.09zM5.49 69h.21c.03 0 0 .09-.08.1s-.08-.05-.13-.1zm.36 1.87v-.25h.27v.37c-.12.01-.24.01-.27-.08zm1.68-.65h.1a.2.2 0 01.08.1.23.23 0 010 .07 1.37 1.37 0 00-.18-.13zm-1 2.47h.06v.11zm2 0c0-.09-.06-.16-.1-.24s-.08-.17-.11-.25a2.61 2.61 0 01.23.24.69.69 0 010 .25v.08zm1.36-.43a2.87 2.87 0 01-.17-.59 1.33 1.33 0 01.19 0 5.8 5.8 0 01.27.62zm-2.61 3c0-.23-.05-.47-.08-.72.13 0 .35 0 .37.07a7.21 7.21 0 01.15.9c-.3-.06-.46-.09-.49-.17zm1.57-.6a4.48 4.48 0 01.06-.62c.1.06.28.11.3.2a3.62 3.62 0 010 .78c-.21-.13-.39-.19-.41-.28zm1.54-.66c-.06-.06 0-.24 0-.36a1.78 1.78 0 01.61.17c.07 0 0 .29 0 .69a3.87 3.87 0 01-.66-.42zm-2.64 3.27c-.07-.13 0-.32 0-.49a1.58 1.58 0 01.55.21c.07 0 0 .28 0 .59-.3-.15-.49-.19-.55-.31zm1.7-.57c0-.14.09-.35.14-.53.13.1.32.18.38.31a3.69 3.69 0 010 .89c-.27-.37-.47-.49-.52-.67zm1.67-.6a.66.66 0 01.19-.64 1.05 1.05 0 01.75 0 12.57 12.57 0 010 1.52 6.17 6.17 0 01-.94-.88zm-2.2 4.4a8 8 0 01-.37-1.07c-.05-.13 0-.31 0-.47a1.44 1.44 0 01.35.4 10.77 10.77 0 01.43 1.29c-.21-.09-.33-.09-.41-.15zm4.34-2.14c.07.12 0 .33 0 .68-.43-.05-.93 0-1-.15a1 1 0 01.07-1c.35-.28.67.11.93.47zm.38 1.71H14v.68a4.35 4.35 0 01-.51 0 4.11 4.11 0 01.15-.68zm-1.41 1a2.82 2.82 0 01-.2.86c-.23-.16-.44-.21-.44-.29a4.67 4.67 0 01.07-.76c.2.12.54.12.57.2zm-2.74 1.3c-.06-.24-.07-.48-.11-.71.11 0 .3.06.32.15a4.32 4.32 0 01.17.94c-.24-.22-.36-.28-.38-.37zm4.6-.42a2.37 2.37 0 01.65 0 3.78 3.78 0 01-.34.56 1.58 1.58 0 01-.49.23v-.43c.09-.1.09-.31.18-.31zm-1.67.76c.11-.07.31 0 .63 0-.08.51-.14.88-.23 1.24-.05 0-.5 0-.55-.1-.2-.4-.33-.85.15-1.13zm-1.76 2.64c-.17-.32-.35-.63-.52-1a1 1 0 010-.39s.08-.06.08-.05c.17.32.35.65.51 1a1.37 1.37 0 01.11.36.71.71 0 01-.18.09zm4-1.27a3.92 3.92 0 01.37-.51c.06-.07.21-.06.57-.16a6.12 6.12 0 01-.58.66c-.02.07-.2.02-.33.02zm-1.75 1.35a2.86 2.86 0 01.24-.42c0-.06.21-.06.24 0s.12.31.2.49zm-1.54.91l.06-.08v.07zM15.52 85a2.43 2.43 0 01.51 0v1c-.22-.1-.53-.18-.61-.36s.03-.37.1-.64zm-1.89 1.5c.08 0 .22 0 .3.07a3.59 3.59 0 01.18.6c0 .1-.06.22-.09.34-.07 0-.19-.05-.22-.11a2 2 0 01-.36-.59.38.38 0 01.19-.31zm-1.88 1.85c.09-.42.13-.71.19-1 .22.07.58.06.65.19a2 2 0 010 .81zm4.59-.88h.06v.08zm-1.8 1.2l.12-.06a2.25 2.25 0 01.12.21l-.12.05a1.32 1.32 0 00-.12-.2zM13 89.84a.49.49 0 010-.38 2.91 2.91 0 01.51 0v.63c-.24-.09-.41-.16-.51-.25zm2.81.54c.05.15.1.29.16.44a2.72 2.72 0 01-.29-.3 5.46 5.46 0 01-.27-.48zm1.71-.9a.45.45 0 01.1.09v.13h-.11a1 1 0 01.04-.22zm-3.43 2.21a2.45 2.45 0 01-.17-.83l.82.29V92c-.2-.08-.5-.13-.62-.31zm4.4-.8c.1.08.21.15.3.23a3.69 3.69 0 01.29.39 3.79 3.79 0 01.25.56c0 .05-.07.2-.12.2h-.34a4.4 4.4 0 01-.4-.85 1.37 1.37 0 01.05-.53zm-1.11 1.58c.11.09.29.12.36.22a1.37 1.37 0 01.13.45 1 1 0 01-.33-.15 2.63 2.63 0 01-.34-.4c-.06-.1-.15-.29-.25-.48zm-1.92 1.36c0-.38 0-.63-.05-.87a2 2 0 01.74.39c.15.15.11.47.16.71zm4.38-.65c.2 0 .5.07.56.19a2.78 2.78 0 010 .83c-.32-.13-.64-.19-.65-.28a2.45 2.45 0 01.12-.74zm-2.81 2.08a.86.86 0 00.2-.13.18.18 0 010 .11.23.23 0 01-.1.07s-.05-.03-.07-.05zm1.58-.52v-.4c.07.06.16.1.18.16a1.36 1.36 0 01.07.35 1.89 1.89 0 00-.22-.11zm2.29 1c0-.09-.11-.22-.18-.34a1.06 1.06 0 01.27.18 2 2 0 01.15.37zm-1.81 1.4l-.21-.42a3.92 3.92 0 01.56.33c.07 0 0 .19.06.3zM20.4 99v-.85c.15.05.41.06.44.15a7 7 0 01.24 1zm1.71-1.76c.09 0 .21.06.25.13.16.25.29.51.52.92-.34-.11-.53-.11-.55-.19a6.78 6.78 0 01-.22-.88zm1.58 2.12a1.16 1.16 0 010-.18l.11.09a.69.69 0 000 .13s-.1-.04-.11-.06zm-1.86 1.35c0-.14 0-.23-.06-.31a1.28 1.28 0 01.35.06c.05 0 0 .17.05.25-.12-.02-.23-.01-.34-.02zm3.38-.29h.06v.1zM23 102.3c0-.15 0-.23-.06-.32s.25 0 .34.07 0 .15.05.24zm2.37.06a1.27 1.27 0 00.11-.13s.06 0 .1.07-.05.07-.07.08a.36.36 0 01-.12-.02zM24 103.51c0-.12 0-.3.11-.34a.39.39 0 01.36 0c.07.06.06.23.11.46zm3-.74a.77.77 0 01.71 0c.11.1 0 .43.08.85l-1-.26c.08-.2.09-.5.21-.59zm-1.5 1.81v-.35l.91.21-.13.5c-.21-.12-.49-.22-.75-.36zm3.1-.52h.14l-.11.08h-.11s.08-.07.11-.08zm.92.79a.63.63 0 01.24 0v.18h-.27s.04-.17.06-.18zM26.89 106a2 2 0 01.33-.16l-.23.28-.29.15a1.85 1.85 0 01.19-.27zm.89 1.11a.57.57 0 010-.32 5 5 0 01.72.07c-.1.22-.15.43-.2.45a2.14 2.14 0 01-.52-.17zm1.55 1.2l.11-.18a.54.54 0 000 .11s0 .07-.06.11zM32 108a1.2 1.2 0 01-.23-.33c.21.1.44.16.64.28a4 4 0 01.49.44 9.56 9.56 0 01-.9-.39zm-1.28.89c-.05 0-.06-.13-.08-.2l.71.15c0 .18.08.29.1.39-.3-.08-.53-.18-.78-.31zm3.24.33a2 2 0 01-.16-.36c.08 0 .21-.06.24 0a1.32 1.32 0 01.2.33c-.18.03-.31.08-.33.06zm-.95.62l.09.06-.1.1zm4 .84a.87.87 0 01-.2-.15c.07 0 .14-.09.18-.07a.73.73 0 01.17.18s-.16.09-.16.07zm1.63.83c-.05 0-.05-.13-.07-.2l.34.1a2.35 2.35 0 00.1.22 2.65 2.65 0 01-.38-.09zm2.06.88l-.47-.17.1-.06.38.2h.08zm-1 1.07h-.08.08l.48.18a.43.43 0 00-.1 0zm5.62.77c0-.05.15-.05.24-.08-.07.28-.14.58-.18.78s-.24.15-.31.19c.07-.27.15-.57.24-.86zm7.26 1.77s.07-.07.09-.06a.27.27 0 01.08.1.29.29 0 00-.06.11zm6 1.1l.15-.34c0-.11 0-.23-.05-.36h.23a3.23 3.23 0 01-.15.34 2 2 0 01.05.35zm23.11-5c-2 .61-4 1.15-6 1.62a56.7 56.7 0 01-7.47 1.48 23.94 23.94 0 01-6.92.15c-2.23-.44-4.5.13-6.74-.37-2.58-.58-5.2-.89-7.74-1.63a31.5 31.5 0 01-5.54-2.07c-2-1-3.9-2.07-5.8-3.18-1.17-.69-2.25-1.52-3.36-2.29a3.35 3.35 0 01-.61-.58 25.92 25.92 0 00-4.83-4.76 4.32 4.32 0 01-.83-1c-1.05-1.41-2.13-2.8-3.13-4.24-1.42-2-2.88-4-4.11-6.12a19.47 19.47 0 01-1.58-4.22 12 12 0 00-1.26-3.41 15.64 15.64 0 01-1.08-2.47 14.45 14.45 0 01-1.46-3.64c-.09-.63-.8-1.15-1.18-1.75a9.31 9.31 0 01-.81-1.48 68.44 68.44 0 01-3.2-11 39.82 39.82 0 01-.88-10.94c0-.61.19-1.2.21-1.8A44.21 44.21 0 019 37.47c.2-.65 0-1.42.18-2.1.34-1.57.69-3.15 1.18-4.66.71-2.22 1.46-4.42 2.35-6.54a11.81 11.81 0 014.24-5.53 11 11 0 002-1.81c1.59-1.67 3.14-3.37 4.74-5a20.72 20.72 0 012.1-2.09q3.53-2.86 7.11-5.65c.81-.63.86-.59 1.48.2 1 1.29 1.92 2.6 2.89 3.89.24.34.51.64-.24.65-1.33 0-2.65.11-4 .19A2.16 2.16 0 0032 9.2c-1.47 1.11-3.18 2-4.26 3.52a13.35 13.35 0 00-2.21 3.9 4.55 4.55 0 00.7 3.92c.39.5.31.71-.32.79a8.87 8.87 0 00-4.91 2c-1 .88-2.27 1.58-3.3 2.48a7.93 7.93 0 00-2.79 4.49c-.23 1.3-.32 2.63-.51 3.94a13.4 13.4 0 00.95 6 3.55 3.55 0 00.59 1c1 1.3.92 1.19-.38 2.16a22.47 22.47 0 00-2 1.55 3.1 3.1 0 00-1 1.5c-.49 2.4-1.11 4.77-.73 7.28a10.74 10.74 0 01-.06 2.53c-.21 2.22.84 4.24.95 6.41a2.16 2.16 0 00.39 1c1.31 1.82 2.64 3.62 4 5.38.71.93 1.51 1.82 2.31 2.69a3 3 0 01.75 2.35 14.21 14.21 0 001.27 6.29 4.54 4.54 0 00.42.89c2.05 3 4.13 5.9 6.18 8.86a3.36 3.36 0 001.66 1.27c1.3.51 2.54 1.19 3.84 1.69 1.67.67 3.34 1.27 5.19.73a.77.77 0 01.69.24c.22.34.5.81.41 1.14-.42 1.69.41 2.89 1.38 4.12 1.15 1.45 2.19 3 3.33 4.45.78 1 1.64 2 2.51 2.88a1.84 1.84 0 001 .32 12.8 12.8 0 012.92.15c1.69.54 3.33-.21 5 .11a2.58 2.58 0 001.83-.6c1.06-.68 2.23-1.24 3.32-1.85a1 1 0 011.46.4c.66.92 1.4 1.8 2 2.75a2.4 2.4 0 001.76 1.07 50.12 50.12 0 005.14.75 16 16 0 006.67-.78c1.49-.54 3.12-.79 4.56-1.45a43.86 43.86 0 004.38-2.57c1.41-1.22 2.72-2.32 4-3.49a5.08 5.08 0 00.87-1.37 8.53 8.53 0 00.47-1.18c.23-.58.57-.84 1.2-.58a4.16 4.16 0 003.67-.45 62 62 0 005.8-3.55 34.7 34.7 0 003.7-3.49c.25-.26.43-.55.75-.13a13 13 0 003.3 3.28c.07 0 0 .46-.06.53-2.12 1.42-3.28 3.79-5.26 5.31a27.78 27.78 0 01-6.53 4.22 36.72 36.72 0 00-6.84 3.34 49.13 49.13 0 01-6 3.18 29.4 29.4 0 01-4.43 1.54zM97 107.21l.08.06h-.06zm-1 .81l.08-.15a.3.3 0 01.1.07v.09zm-19.45 6.77h.09v.07zm1.76-.29a.55.55 0 01.09-.14l.1.06-.07.09zM80 114v-.18a.85.85 0 01.25 0v.19c0 .07-.2-.01-.25-.01zm11.15-3.18c0-.08.07-.17.13-.22s.14 0 .21 0 0 .23 0 .24a.82.82 0 01-.35-.04zm5.33-1.5l.1-.09c0 .06.1.11.14.18a.39.39 0 01-.09.08zm-1.22.53l.15.18-.09.08a1.22 1.22 0 01-.15-.17s.05-.08.08-.11zm-5.91 2.06a4.71 4.71 0 01.73-.28c-.11.26-.14.43-.21.47a4 4 0 01-.6.11c.01-.12 0-.28.07-.32zm-7.48 2.8a.64.64 0 010-.24 1.15 1.15 0 00.17.06 1.13 1.13 0 010 .25s-.16-.06-.18-.09zm4.83-1.43h.1l-.07.08zm1.28-.4h.06v.1zm5.39-1.42a1.77 1.77 0 000-.23h.14v.23zm-1.64.67a1.87 1.87 0 01.53 0v.48l-.64-.15c.02-.17.04-.33.1-.35zm-13.09 4.64h.1l-.07.09zm2.22-.37h-.08.16zm9.14-3.19l.44-.16c0 .1-.07.25-.14.28a7.38 7.38 0 01-.73.29zm-4.65 2.25v-.4a.9.9 0 01.39.08c.06 0 0 .23 0 .43-.16-.05-.35-.04-.39-.11z"/><path class="cls-1" d="M30.5 56.22c-.3 0-.48.07-.66.07-2.78.07-5.56.15-8.35.17a19.38 19.38 0 01-2.11-.28 11.77 11.77 0 00-2-.07c-.56 0-1-.09-1-.67s.57-.57.95-.61a3.59 3.59 0 011.13.07c3 .62 5.92.25 8.9.22.7 0 1.41-.1 2.11-.07a2 2 0 011 .45c.11.08.03.5.03.72zm28.31-.02l-3.91 1.13c-.77.22-1.54.45-2.32.63a2.37 2.37 0 01-.83-.17l.28-.71a3.78 3.78 0 01.65-.37l6-1.68c.18 0 .4-.15.54-.1a1.23 1.23 0 01.61.48c.05.11-.17.43-.33.56a1.79 1.79 0 01-.69.23zm-15.68 3.14c-1.84.4-3.69.8-5.52 1.17a5.18 5.18 0 01-.88 0c.08-.32.17-.64.22-.79.32-.2.43-.32.56-.34 1.41-.38 2.82-.74 4.24-1.09a16.51 16.51 0 012.08-.38 1 1 0 01.77.36c.25.37 0 .61-.39.73s-.73.26-1.08.34zm-11.67 3.55c-1.37.35-2.75.65-4.12.94a2.09 2.09 0 01-.65 0c-.48-.53-.29-.93.38-1.08 1.06-.25 2.11-.45 3.17-.71s2-.58 3-.8a1 1 0 01.93.27c.28.48-.2.61-.56.73-.74.19-1.43.46-2.15.65zm12.26-1.28a2.66 2.66 0 01-.85 0 6.13 6.13 0 01.35-.82c.07-.12.22-.18.34-.26l-.06-.14c1.27-.47 2.54-.94 3.82-1.39.75-.27 1.48-.58 2.24-.8.23-.07.5.07.75.12-.12.25-.16.65-.36.77a14.85 14.85 0 01-2.15 1.07c-1.34.53-2.7 1-4.08 1.45zM21.1 59.05c-1.19.12-2.41.21-3.6.31-.37 0-.74.09-1.11.1a3.07 3.07 0 01-1-.07.5.5 0 010-1 15.78 15.78 0 011.81-.26l2.8-.28a6 6 0 011.4 0c.17 0 .36.3.42.48s-.13.33-.2.48a2.14 2.14 0 01-.52.24zm16.45 5.41c-1.09.28-2.18.54-3.26.84a1 1 0 01-1.29-.61c-.18-.39 0-.73.38-.69 1.79.17 3.37-.56 5-1.07a2.79 2.79 0 01.76 0 7.69 7.69 0 01-.27.81c-.06.11-.22.18-.55.42a6.16 6.16 0 01-.77.3zm2.64-9.35c-.33 0-.59.13-.87.16-1.26.12-2.53.22-3.8.32a1.44 1.44 0 01-.41 0c-.43 0-1-.08-.91-.63 0-.25.48-.62.78-.63 1.59-.14 3.19-.19 4.78-.23a.71.71 0 01.55.3c.08.21-.07.46-.12.71zm-18.78 7.51l-4.32.58a4 4 0 00-.62.2c.06-.55 0-.78.11-.87a1.83 1.83 0 01.8-.56c1.43-.24 2.87-.45 4.31-.6a.76.76 0 01.62.43c0 .17-.2.47-.38.65a1 1 0 01-.52.17zm.8 3.08q-1.23.3-2.49.51c-.17 0-.5-.1-.55-.24a.67.67 0 01.18-.59 8.84 8.84 0 011.54-.69 15 15 0 012.18-.5 2.48 2.48 0 01.88.22c-.1.28-.19.57-.26.8-.58.2-1.03.38-1.48.49zm13.6-7.2c-1 .24-2.09.4-3.14.57-.11 0-.24-.11-.47-.19.08-.25.1-.57.25-.69a2.4 2.4 0 01.9-.36 15.57 15.57 0 012-.37 1 1 0 01.72.42c.11.12-.07.59-.26.62zm-7.57 1.34c-.94.13-1.87.28-2.81.36-.16 0-.41-.2-.51-.37s.07-.35.18-.47a3.9 3.9 0 013.24-.44c.19.13.22.48.33.72a2.81 2.81 0 01-.43.2zm19.37-5.4a12.56 12.56 0 01-2 .32c-.23 0-.49-.23-.61-.28-.37-.5-.25-.93.18-1a19.77 19.77 0 012.18-.06 2 2 0 01.68.33c-.17.25-.25.64-.43.69zm1.17 2.08a5.53 5.53 0 01-1.23.18 8.58 8.58 0 01-.88 0c.08-.31.17-.63.27-1a22.54 22.54 0 012.69-.48c.37 0 .55.41.23.71a2.9 2.9 0 01-1.08.59zm7.27-1.8a13.64 13.64 0 01-1.76.18c-.08 0-.28-.39-.23-.54a1.23 1.23 0 011.88-.36c.13.12.06.44.11.72zM76 93.82c-.14-.84-.23-1.68-.34-2.53-.27-2-.56-4-.78-6a3.31 3.31 0 01.12-1.35.74.74 0 01.65-.33.81.81 0 01.46.63c-.17 2.89.78 5.64.93 8.49A11.47 11.47 0 0177 94c-.53.49-.94.32-1-.18zm.3-19.67a5 5 0 01-.69-.39.79.79 0 01-.24-.34c-.57-2.38-1.53-4.67-1.49-7.16a1.32 1.32 0 01.6-.86.44.44 0 01.74.44c-.33 2.42.8 4.6 1.09 6.91a8.12 8.12 0 01-.01 1.4zM79.56 96c-.2 0-.49-.23-.63-.43a1.43 1.43 0 01-.12-.67 18.61 18.61 0 00-1.24-4.9 5.13 5.13 0 01-.29-1.23.81.81 0 01.28-.68c.17-.1.46.11.72.19.2.64.37 1.22.52 1.8.4 1.54.8 3.09 1.18 4.64a1.85 1.85 0 01.06.69c-.04.2-.28.52-.48.59zm-2.24-11.83a.62.62 0 01-.58-.19 6.87 6.87 0 01-.57-1.57c-.27-1.29-.45-2.6-.72-3.88-.08-.41-.32-.79-.44-1.19a1.71 1.71 0 01.06-.63 2.44 2.44 0 01.72.16c.15.09.23.3.53.69a5.13 5.13 0 01.26.78c.33 1.57.65 3.14 1 4.71a1.61 1.61 0 01.06.57c-.07.2-.16.49-.32.55zm2.35-2.06c-.21-.12-.55-.2-.62-.38q-.64-1.73-1.17-3.48a14.23 14.23 0 01-.46-2.25.92.92 0 01.42-.64c.12-.07.41.1.62.16.21.74.41 1.41.59 2.09.31 1.12.61 2.25.9 3.37 0 .14.14.3.11.41a3.85 3.85 0 01-.39.72zm3.81 16.33c-.12-.14-.22-.31-.33-.45A.31.31 0 0083 98c-.3-.69-.63-1.37-.87-2.07a8.11 8.11 0 00-1.24-3c-.12-.13 0-.48 0-.74.25 0 .58 0 .72.19A6 6 0 0183 94.84a17.93 17.93 0 001.23 3c.13.33.55.66.13 1s-.64-.13-.88-.4zm2.75-3.13a.53.53 0 01-.48-.12 3 3 0 01-.64-1.06 8.79 8.79 0 00-1.51-3.73c-.14-.17 0-.56 0-.85a2.83 2.83 0 01.71.26 6.18 6.18 0 01.6.8 11.18 11.18 0 011.59 4.14.73.73 0 01-.27.56zm-3.77-9.94c-.28-.19-.67-.32-.8-.58a9.71 9.71 0 01-.59-1.72c-.22-.72-.44-1.45-.62-2.17a2.8 2.8 0 010-.76c.26.11.55.18.8.3s.18.22.45.58l.6 2a9 9 0 01.37 1.49 2.85 2.85 0 01-.21.86zm-3.75 15.91c-.27-.11-.66-.15-.79-.35a5.33 5.33 0 01-.59-1.41c-.24-.85-.44-1.72-.63-2.59a3.53 3.53 0 010-.86c.26.11.54.21.8.34s.17.22.39.51c0 .11.17.41.26.72.23 1 .47 1.91.66 2.88a2.24 2.24 0 01-.1.76zm9.39-2.41a6 6 0 01-.63-1.67c-.14-.72 0-1.5-.43-2.18-.1-.12 0-.41.06-.62.25 0 .57 0 .71.18a3 3 0 01.89 2 12.39 12.39 0 00.53 2.14 1.17 1.17 0 000 .27c-.44.24-.89.39-1.13-.12zm-7.22 5.04l-.86-.38c-.22-1.23-.44-2.36-.61-3.52a.48.48 0 01.92-.19c.27.75.48 1.51.68 2.28a4 4 0 01.07 1 6.25 6.25 0 01-.2.81zM81 88.75a2.37 2.37 0 01-.52-.65c-.47-.76-.92-1.53-1.33-2.31-.1-.2 0-.49 0-.75a2.37 2.37 0 01.71.2 5.06 5.06 0 01.68.9.19.19 0 01.09 0c.36.7.74 1.4 1.07 2.12a.63.63 0 01-.11.61.7.7 0 01-.59-.12zm-7.2-12.98c-.2 0-.52-.19-.54-.35a18.75 18.75 0 01-.4-2.6c0-.18.33-.41.56-.54s.33.06.59.11c.06 1 .16 2 .18 3.06.01.11-.27.33-.39.32z"/><path class="cls-1" d="M74.68 80.78a.63.63 0 01-.51-.34 22.77 22.77 0 01-.1-2.47c0-.17.27-.38.46-.46s.31.11.57.2c0 .9.07 1.76 0 2.63.04.17-.24.42-.42.44zm4.15 24.96c-.39-.15-.68-.18-.76-.32a1.9 1.9 0 01-.35-1.1c.06-.28.49-.51.78-.7.09-.06.46.09.45.15.05.6-.06 1.23-.12 1.97zM39.87 87.88A8.89 8.89 0 0139 88a1.88 1.88 0 01.23-.82c1-1.16 2.09-2.28 3.16-3.42.69-.76 1.41-1.51 2.14-2.24a1.41 1.41 0 01.59-.4.55.55 0 01.48.11.57.57 0 01.08.49 3.13 3.13 0 01-.56.82c-1.51 1.6-3 3.21-4.58 4.8a2.56 2.56 0 01-.31.28c-.23.16-.23.25-.36.26zM56.3 68.15c-.06 0-.44 0-.51-.09s-.19-.68-.06-.82c.59-.66 1.3-1.23 1.93-1.86 1.09-1.09 2.17-2.21 3.25-3.33.34-.35.72-1 1.23-.57s-.1 1-.38 1.27C60.41 64.2 59 65.57 57.6 67c-.36.33-.76.66-1.3 1.15zM30.46 85.91a.51.51 0 01-.49-.07.7.7 0 010-.6 7.65 7.65 0 01.89-.91l4.09-4.06H35c.48-.3.95-.63 1.43-.91a.54.54 0 01.48.14.57.57 0 010 .51 1.76 1.76 0 01-.5.48c-1.71 1.13-2.89 2.81-4.36 4.19a11.93 11.93 0 01-1.59 1.23zm11.41-3.7c-.42-.59.53-.83.87-1.2.74-.79 1.49-1.56 2.22-2.35s1.23-1.41 1.9-2.06c.18-.17.56-.13.86-.19 0 .29 0 .67-.13.85-1.35 1.56-2.73 3.09-4 4.52-.75.12-1.17 1.22-1.72.43zm-4.13 1.89a.44.44 0 01-.55-.69c1.3-1.4 2.64-2.78 4-4.18h.07a12 12 0 011.19-.76.68.68 0 01.57.16c.07.06 0 .33 0 .49a.41.41 0 01-.19.2c-1.5.9-2.39 2.39-3.53 3.63a8.73 8.73 0 01-1.56 1.15zm13.77-13.72a3.23 3.23 0 01-.76 0c.06-.24 0-.56.21-.72a24.34 24.34 0 014.27-3.91 8.29 8.29 0 01.84-.52.59.59 0 01.49.15.65.65 0 010 .51.78.78 0 01-.29.31 19.21 19.21 0 00-3.84 3.53 2.13 2.13 0 01-.45.34 1.6 1.6 0 01-.47.31zm-16.42 19.4h-.87c0-.25 0-.58.11-.73q1.62-2 3.33-3.83c.15-.18.56-.09.86-.13 0 .26 0 .58-.11.75-1.07 1.27-2.15 2.56-3.32 3.94zm9.57-12.88c-.33.08-.84.28-1 .15-.39-.38.07-.65.33-.9l3.13-3c.18-.13.21-.17.26-.18.34-.2.7-.71 1.09-.25s-.18.72-.46 1c-1 1-2 2-3 2.94a.83.83 0 01-.35.24zm4.9-2.4c0-.24 0-.57.14-.71.8-.79 1.64-1.53 2.42-2.24.45-.29.84-.57 1.25-.79.12-.06.45 0 .48.08s.1.52 0 .61c-1.16 1-2.32 2-3.53 3-.17.14-.5.04-.76.05zm-10.9 2.91c-.2.11-.51 0-.76 0 0-.25 0-.6.17-.71 1-.78 1.94-1.51 3-2.2.15-.1.47 0 .71.06-.07.24-.09.56-.25.71A18.34 18.34 0 0140 76.42c-.42.32-.86.7-1.34.99zm5.73-4.31c-.1.08-.42 0-.56-.17s0-.39.07-.49c.37-.35.78-.66 1.24-1 .34-.22.73-.5 1.15-.72a.49.49 0 01.47.15c.09.11.1.42 0 .49-.76.64-1.55 1.19-2.37 1.74zM32.07 87.93a.63.63 0 01-.61-.07.59.59 0 01.05-.59c.74-.6 1.51-1.15 2.28-1.67a.59.59 0 01.57.14.69.69 0 01-.12.6c-.35.32-.76.58-1.13.86a8.11 8.11 0 01-1.04.73zm17.6-39.8a8.09 8.09 0 01-1-.27c-1-.4-2-.9-3-1.23-1.22-.38-2.46-.61-3.7-1a9.84 9.84 0 01-1.85-.63.7.7 0 01-.22-.71.78.78 0 01.68-.29c2.72 1 5.75 1.15 8.32 2.64a3 3 0 01.79.76c.1.12-.01.39-.02.73zM25.82 36.48a26.11 26.11 0 01-6.32-3 1.83 1.83 0 01-.27-.28c0-.13-.12-.46 0-.54a.87.87 0 01.71-.16 6.77 6.77 0 011.64.81 17.39 17.39 0 003.92 1.79c.26.1.6.14.77.32a2.52 2.52 0 01.3.85c-.26.08-.57.28-.75.21zm32.12 13.37l-5.07-1.67c-.4-.14-.8-.24-1.24-.37v-.59a.85.85 0 01.57-.37 2.9 2.9 0 01.94.21l4.68 1.49c.18.05.43.06.54.17s.48.56.44.79c-.03.49-.47.49-.86.34zM33.63 42.3l-.77-.3c-1.08-.47-2.13-1-3.24-1.39-.77-.28-1.63-.43-2.44-.64-.38-.1-.82-.27-.62-.71a1 1 0 01.93-.35c1.52.44 3 1 4.53 1.46.6.2 1.33.25 1.57 1a4.36 4.36 0 01.04.93zM23.41 31.57c-1.14-.57-2.3-1.07-3.41-1.63-.41-.21-.79-.5-1.37-.84.19-.28.31-.61.52-.68a1.24 1.24 0 01.8.14c1.38.63 2.74 1.26 4.09 1.93.49.24 1.13.44 1 1.17-.04.41-.8.34-1.63-.09zM36.63 45c-1.77-.45-3.52-.94-5.28-1.42-.12 0-.22-.17-.39-.32 0-.17-.09-.45 0-.58a.7.7 0 01.59-.19q2.48.58 4.92 1.25a1.15 1.15 0 01.56.39.62.62 0 01.13.51c-.11.2-.39.43-.53.36zm-2.85-5.82c-1.3-.61-2.62-1.24-3.92-1.89a2.89 2.89 0 01-.38-.33c0-.16-.13-.43 0-.58a.65.65 0 01.57-.21c.61.24 1.18.56 1.78.83.8.39 1.63.71 2.4 1.14.27.15.58.63.52.87-.15.49-.61.34-.97.17zm13.06 5.22a19.56 19.56 0 01-2-.79 10.22 10.22 0 01-1.31-.9c0-.29 0-.55-.06-.8a2.08 2.08 0 01.74 0c1 .39 2 .83 3 1.27.5.24 1.23.47 1 1.16s-.9.23-1.37.06zm-24.42-6.14c-.76-.28-1.52-.51-2.25-.82a12.36 12.36 0 01-1.41-.87v-.89a3 3 0 01.75.1c.93.35 1.84.73 2.75 1.11.25.11.59.17.74.37s.44.71.34.94c-.15.49-.58.18-.92.06zm16.85 3.83a1.55 1.55 0 01-1.09-.09c-.32-.17-.73-.64-.67-.88.1-.52.61-.43 1-.25l1.23.5c-.17.31-.28.68-.47.72zm8.82 59.69c-.29 0-.56.06-.7-.06a.79.79 0 01-.14-.6 1.81 1.81 0 01.22-.52c.83-2.1 1.64-4.2 2.52-6.27a28.48 28.48 0 011.53-3c.14-.22.62-.23.93-.34 0 .29.13.65 0 .89-1.36 2.59-2.11 5.42-3.25 8.08a15.24 15.24 0 01-1.11 1.82zM61 100.39c-.25 0-.52.12-.67 0a.73.73 0 01-.22-.59 11.12 11.12 0 01.35-1.07 24.19 24.19 0 001.54-6.5 1.63 1.63 0 01.27-.8 2.88 2.88 0 01.65-.6c.16.3.51.6.48.88a22.47 22.47 0 01-.59 3.34c-.41 1.48-.93 3-1.42 4.41-.13.31-.29.59-.39.93zm4.57-27.32c-.09 0-.24-.4-.19-.58.35-1.41.7-2.84 1.15-4.22a27.5 27.5 0 011.25-2.84 6.58 6.58 0 01.58-.89c.29-.21.4-.33.53-.35s.5-.09.62 0 .11.43 0 .6c-.79 1.75-1.63 3.47-2.4 5.24a12 12 0 00-.44 1.97 2.41 2.41 0 01-.37.9 1 1 0 01-.73.17zm-4.43 8.73c-.71-.07-.68-.8-.53-1.38.34-1.55.72-3.1 1.12-4.64a2.43 2.43 0 01.45-.66c.27-.16.39-.28.52-.3s.44 0 .49 0a.7.7 0 01.09.6 12.1 12.1 0 00-1.39 5.09c-.06.55.11 1.4-.75 1.29zm-3.36 9.51c-.12 0-.28-.27-.29-.43a2.66 2.66 0 01.08-.83c.31-1.36.67-2.72 1-4.1a2.3 2.3 0 011.06-1.74c.19-.11.47 0 .83 0a2.39 2.39 0 01-.16.64 6 6 0 00-.83 2.82c-.2.91-.4 1.83-.65 2.72a1.61 1.61 0 01-.4.75.76.76 0 01-.64.17zm-5.68 8.4a.51.51 0 01-.51 0 .61.61 0 01-.23-.46c.39-1.4.8-2.8 1.24-4.19a8.3 8.3 0 01.58-1.42.69.69 0 011.24-.14 2.32 2.32 0 01-.07.65 15.07 15.07 0 00-1.5 4.4c-.04.45-.46.81-.75 1.16zm4.11-10.41c-.18 0-.46.12-.59 0a.73.73 0 01-.21-.59 5.07 5.07 0 01.35-1.06 7.79 7.79 0 00.88-3.12A4 4 0 0157.2 83c.1-.19.53-.47.6-.42.23.17.58.53.52.72-.55 1.89-1.19 3.76-1.8 5.63-.04.07-.18.2-.31.37zm4.21 4.58c-.14.08-.41-.06-.67-.11a2.15 2.15 0 010-.75c.79-1.38.72-2.93 1-4.41a1.52 1.52 0 01.89-1.33c.41-.16.75.07.66.44-.4 1.87-.87 3.73-1.36 5.58a1.16 1.16 0 01-.52.58zm-3.27 8.99a2.67 2.67 0 01-.37-.68 1.53 1.53 0 01.1-.69c.3-1.18.59-2.35.93-3.51a8 8 0 01.52-1.3c.3 0 .62-.17.73-.07a.94.94 0 01.3.7q-.75 2.58-1.59 5.11c-.06.2-.41.3-.62.44zm-1-3.16c-.27 0-.55.07-.69 0a.78.78 0 01-.26-.6c.11-1.29.24-2.58.41-3.87a1.83 1.83 0 01.35-.86.68.68 0 01.61-.15c.12 0 .28.28.28.43-.09 1.39-.19 2.77-.33 4.15a3.4 3.4 0 01-.37.9zm5.95-15.5c0-.28-.2-.61-.12-.85a25.92 25.92 0 011.17-2.57 2.62 2.62 0 01.85-.87c.16-.11.49.06.83.12-.07.36 0 .69-.2.84a4.7 4.7 0 00-1.32 2.43 1.45 1.45 0 01-.47.68 2.2 2.2 0 01-.74.22zM64.43 79a1.29 1.29 0 01-.57-1 4.05 4.05 0 011.43-2.38.87.87 0 01.24-.15h.65c0 .25.09.57 0 .72a3.88 3.88 0 00-1 2.12c-.12.41-.31.9-.75.69zm-11.88 24.49c-.58-.72-.11-2.48.47-2.65a.68.68 0 01.49.13c.5.4.2.89.05 1.31a4.83 4.83 0 01-.73 1.11.39.39 0 01-.28.1zm2.66 1.2a2.53 2.53 0 01-.11-2.23c.1-.07.34-.12.38-.08a3.8 3.8 0 01.71 1.11.93.93 0 01-.67 1.11c-.17.07-.35.08-.31.09zM50 102.92v-1.6h.68c.57.71.59 1.19.11 1.52-.24.16-.55.06-.79.08zm-4.78-73.45c-1.63-1.27-3.24-2.56-4.87-3.83-.77-.6-1.6-1.13-2.38-1.73a1.8 1.8 0 01-.51-.68.74.74 0 010-.62.7.7 0 01.6 0c2 1.53 4 3.09 6 4.64.66.52 1.32 1 1.86 1.43.24.7 1.11 1.18.56 1.62-.71.59-.84-.5-1.26-.83zm-10.17-6.91c-.21 0-.49 0-.63-.1-1.6-1.46-3.17-2.95-4.75-4.46a5.67 5.67 0 01-.34-.47c0 .05-.11-.08-.15-.23a2.29 2.29 0 010-.64c.24 0 .56 0 .72.09 1.19 1.07 2.38 2.16 3.52 3.28a17.93 17.93 0 011.69 1.89c.1.14-.03.42-.06.64zm19.64 14.26c-1.52-1.31-3-2.64-4.7-4.11-.1-.35-.47-1.2-.34-1.29.82-.55.88.47 1.3.8 1 .74 1.95 1.46 2.86 2.27a10.44 10.44 0 011.43 1.73.48.48 0 01-.07.48c-.09.1-.39.19-.48.12zm-15.1-18.7c-.27-.08-.64-.08-.8-.28-.61-.71-1.14-1.5-1.7-2.26s-1.09-1.36-1.51-2.07c-.13-.2 0-.57 0-.86.24.09.58.09.7.27 1.13 1.45 2.23 2.94 3.31 4.44.1.18 0 .5 0 .76zm-2.33 1.74a7 7 0 01-.83-.39q-1.78-1.47-3.54-3c-.29-.23-.65-.57-.28-.92a.92.92 0 01.87-.11c1.24 1.08 2.44 2.2 3.6 3.34.16.22.1.56.18 1.08zm24.38 23.5c-1-.71-2.1-1.44-3.11-2.22a.74.74 0 01-.06-.72.83.83 0 01.74-.13c1 .61 1.86 1.29 2.66 1.85a3.57 3.57 0 01.36.63.62.62 0 01-.1.51.49.49 0 01-.49.08zM44.19 24.62c-.32.07-.75.21-1 .08-.74-.47-1.42-1-2.13-1.58-.12-.08-.28-.14-.33-.25a4.91 4.91 0 01-.21-.75c.24-.05.57-.23.72-.13 1 .61 1.93 1.28 2.93 2a3.52 3.52 0 01.02.63zM60.27 39.7c-.29 0-.69.14-.87 0-.71-.59-1.37-1.27-2.22-2.06 0-.27-.32-.91-.15-1.07.53-.5.75.21 1.06.49.66.59 1.34 1.16 1.95 1.8.17.19.16.56.23.84zM49.06 28.49L48 28.3c0-.49.05-.81.08-1.13a2.82 2.82 0 01.88.46c.13.2.04.57.1.86zm40.63 48.1c-.62-.78-1.18-1.6-1.77-2.39-.59-.79-1.2-1.58-1.75-2.4-.13-.18-.06-.5-.07-.76.27.08.66.06.8.24.72.87 1.36 1.81 2.07 2.7.49.63 1.05 1.19 1.58 1.79.25.26.62.57.25.94s-.8.29-1.11-.12zm8.23 14.72c-.27-.12-.63-.16-.81-.37-.54-.64-1-1.35-1.54-2s-1-1.27-1.41-2a2.22 2.22 0 01-.11-.87c.28.08.66.07.8.26a87.61 87.61 0 013.05 4.12c.1.2.02.55.02.86zm2.26-1.05a5.47 5.47 0 01-.69-.88h-.06c-.5-.89-1-1.77-1.51-2.68-.1-.19 0-.48.06-.73.23 0 .49 0 .63.15a7.33 7.33 0 01.85 1.12c.49.8 1 1.59 1.42 2.41.11.22 0 .57 0 .85-.24-.06-.53-.07-.7-.24zM91.77 82c-.24-.07-.57-.08-.71-.25-.43-.49-.8-1-1.2-1.58s-.76-1-1.08-1.48c-.12-.2 0-.51 0-.76.25 0 .6 0 .72.15.81 1 1.6 2.11 2.36 3.19.07.18-.07.51-.09.73zm3.72 2.56c-.18.06-.51.06-.6-.06-.47-.54-.87-1.12-1.29-1.69-.43-.57-.87-1.12-1.25-1.71-.07-.13 0-.44.16-.59a.52.52 0 01.49.06c.88 1.17 1.75 2.34 2.61 3.54.06.08-.04.44-.12.45zm7.81 5.18c-.68-.94-1.41-1.86-2.07-2.84-.13-.19 0-.55 0-.83.24.09.56.12.7.29.86 1 1.67 2.14 2.5 3.23a1.17 1.17 0 000 .27c-.43.23-.78.35-1.13-.12zm-5.09-5.69c-.28 0-.69.13-.84 0a9.62 9.62 0 01-1-1.33 9.31 9.31 0 01-.9-1.26c-.09-.16 0-.46.08-.71.21.06.49 0 .62.16.33.34.55.75.87 1.1s.81.79 1.13 1.23c.1.17.02.53.04.81zm-15.15-16.2a.59.59 0 01-.6-.12 12.59 12.59 0 01-.95-1.23c-.27-.38-.58-.75-.82-1.15a.65.65 0 01.06-.61.59.59 0 01.6 0c.64.81 1.26 1.65 1.85 2.49a.63.63 0 01-.14.62zm17.22 25.87a4.16 4.16 0 01-.48-.53 2.28 2.28 0 01-.28-.59c0-.15.21-.43.23-.43a5.67 5.67 0 011.15.59c.17.14.37.53.29.68-.19.34-.49.56-.91.28zm1.65-2.56c-.09-.16 0-.47.07-.71.46.1.93.19 1.39.31l-.16.62c-.61.35-1.04.27-1.3-.22z"/></g></g></svg>