<svg xmlns="http://www.w3.org/2000/svg" width="43.429" height="15.377" viewBox="0 0 143.07 50.66" shape-rendering="geometricPrecision" text-rendering="geometricPrecision" image-rendering="optimizeQuality" fill-rule="evenodd" clip-rule="evenodd"><path d="M17.49 33.2V20.79c2.84 0 4.26-1.08 4.26-3.24 0-1.97-1.09-2.97-3.27-2.97-2.21 0-3.32 1.36-3.32 4.07v30.91H1.11V20.1c0-3.05.31-5.55.92-7.5.6-1.95 1.66-3.76 3.13-5.45C6.83 5.28 8.91 3.8 11.4 2.73c2.5-1.09 5.07-1.63 7.72-1.63 4.81 0 8.86 1.62 12.12 4.85 3.28 3.23 4.91 7.24 4.91 12.01 0 4.65-1.47 8.41-4.4 11.29-2.67 2.66-6.72 3.99-12.11 3.99l-2.15-.04zM40.98 2.23h14.05v28.12c0 2.2.36 3.65 1.05 4.39.71.73 2.1 1.09 4.19 1.09h.72v13.73h-3.74c-5.13 0-9.12-1.5-11.98-4.49-2.86-2.99-4.29-7.14-4.29-12.45V2.24zm41.9 23.56v12.49h-4.05v11.28H64.78v-30.1c0-5.81 1.58-10.32 4.77-13.54C72.73 2.7 77.2 1.1 82.96 1.1c5.56 0 9.66 1.45 12.32 4.38 2.66 2.92 3.99 7.41 3.99 13.5v30.58H85.22V19.91c0-1.82-.22-3.07-.66-3.78-.45-.7-1.24-1.05-2.39-1.05-2.22 0-3.34 1.61-3.34 4.84v5.88h4.05zm58.2-23.56l-13.37 21.05v26.28h-14.05V23.28L100.18 2.23h14.27l6.09 9.76 6.54-9.76h14z" fill="#009846" fill-rule="nonzero" stroke="#727271" stroke-width="2.2" stroke-miterlimit="22.926"/></svg>