<svg xmlns="http://www.w3.org/2000/svg" width="77.144" height="15.377" viewBox="0 0 445.98 88.89" shape-rendering="geometricPrecision" text-rendering="geometricPrecision" image-rendering="optimizeQuality" fill-rule="evenodd" clip-rule="evenodd"><path d="M25.98 25.62v59.29H1.93V3.88h30.84c9.4 0 16.68 2.33 21.87 7.01 5.77 5.24 8.65 11.86 8.65 19.9 0 8.2-3.57 15.12-10.69 20.75l13.87 33.37H41.2L29.52 58.83V38.02h1.9c5.04 0 7.57-2.18 7.57-6.58 0-3.87-2.91-5.81-8.77-5.81h-4.23zm91.74 9.84v17.98h-15.65c-2.13 0-3.64.33-4.52.95-.89.65-1.34 1.72-1.34 3.24 0 1.72.45 2.84 1.36 3.38.91.55 2.75.81 5.55.81h16.18V84.9h-18.89c-8.91 0-15.73-2.13-20.45-6.36-4.72-4.25-7.07-10.39-7.07-18.4V28.39c0-7.78 2.23-13.81 6.68-18.1C84.04 6.02 90.3 3.87 98.4 3.87h20.9V27.2h-15.35c-4.11 0-6.16 1.36-6.16 4.05 0 1.58.49 2.67 1.46 3.28.99.63 2.73.93 5.22.93h13.24zm53.45-31.95v23.12c-1.74-.51-3.1-.77-4.03-.77-1.82 0-3.4.67-4.7 2.03-1.32 1.34-1.96 2.96-1.96 4.86 0 1.62.71 3.66 2.15 6.16l1.84 3.2c3.34 5.77 5 11.34 5 16.72 0 7.86-2.79 14.52-8.4 19.96-5.61 5.45-12.45 8.18-20.53 8.18-3.89 0-7.71-.91-11.52-2.71V60.82c2.29 1.48 4.33 2.23 6.12 2.23 2.1 0 3.85-.61 5.26-1.8 1.4-1.21 2.11-2.73 2.11-4.56 0-1.17-1.11-3.77-3.36-7.75-3.58-6.34-5.39-12.66-5.39-18.99 0-7.63 2.71-14.22 8.16-19.72 5.43-5.53 11.93-8.28 19.48-8.28 3.32 0 6.58.53 9.78 1.58zm47.44 23.69v57.71h-24.05V27.2h-18.47V3.87h60.87V27.2h-18.35zm56.57 17.01v21.38h-6.92v19.32h-24.05V33.38c0-9.94 2.71-17.68 8.16-23.18 5.45-5.51 13.1-8.26 22.96-8.26 9.52 0 16.54 2.49 21.1 7.49 4.56 5 6.83 12.69 6.83 23.12v52.36H279.2V34.15c0-3.12-.38-5.26-1.13-6.48-.77-1.2-2.12-1.8-4.09-1.8-3.81 0-5.71 2.75-5.71 8.28v10.06h6.92zm66.68-18.59v59.29h-24.05V3.88h30.84c9.4 0 16.68 2.33 21.87 7.01 5.77 5.24 8.65 11.86 8.65 19.9 0 8.2-3.56 15.12-10.69 20.75l13.87 33.37h-25.27L345.4 58.83V38.02h1.91c5.04 0 7.57-2.18 7.57-6.58 0-3.87-2.91-5.81-8.77-5.81h-4.23zm83.84 1.58v57.71h-24.05V27.2h-18.47V3.87h60.87V27.2H425.7z" fill="#ef7f1a" fill-rule="nonzero" stroke="#727271" stroke-width="3.85" stroke-miterlimit="22.926"/></svg>