<svg xmlns="http://www.w3.org/2000/svg" viewBox="0 0 118.32 100.91"><path d="M40.85 27.37c-1.11-.27-2.76.3-2.84-1.6 0-.73 2.46-1.58 3.59-1.17a4.26 4.26 0 011.4 1.16c1 1 4 1.21 5 .23.09-.09-.07-.67-.19-.69-3.22-.69-5.74-2.65-8.47-4.24a2.54 2.54 0 00-2 0c-1.69.75-3.3 1.68-4.94 2.55a12.8 12.8 0 01-2.25 1.13c-.47.14-1.07-.16-1.62-.27a11.38 11.38 0 01.7-1.5 3.92 3.92 0 01.87-.73c-.4-.09-.8-.2-1.2-.28a37.52 37.52 0 01-4.27-.86c-.57-.18-1.36-.92-1.35-1.4 0-1.08 1.09-1.1 1.94-1s1.63.28 2.46.35c2.49.23 5 .46 7.47.58.39 0 .81-.51 1.21-.79-.37-.18-.75-.33-1.1-.54a21.73 21.73 0 01-3.08-2c-2.69-2.33-3.71-2.5-7-.81-.56.29-1.12.58-1.69.86a1.26 1.26 0 01-2-.81c-.33-.92.22-1.34 1-1.54a6.94 6.94 0 00.93-.14c.57-.25 1.11-.58 1.66-.88-.58-.16-1.16-.37-1.75-.48a10.11 10.11 0 01-6.91-5.2l1.68-.9c1 .86 2 1.72 3 2.55a3.52 3.52 0 00.81.37 2.62 2.62 0 00.25-.78c0-.93-.19-1.86-.12-2.78a1.69 1.69 0 01.81-1.09 1.1 1.1 0 011 .41A10.87 10.87 0 0125 8.53a1.66 1.66 0 001.66 1.81c1.1.17 1.45-.3 1.26-1.42A30.19 30.19 0 0127.44 5a1.61 1.61 0 01.81-1.08c.2-.12.84.15 1 .42a4.55 4.55 0 01.95 2.23c-.11 3.37 1.57 5.8 3.93 7.88a2.19 2.19 0 001.89.39c.95-.43.83-1.38.36-2.16-.83-1.38-1.31-2.89-2.91-3.87a6 6 0 01-1.91-7.67c.27-.48.9-.77 1.36-1.14a7.18 7.18 0 011.22 1.62c.16.41-.14 1-.24 1.5s-.19 1.08-.28 1.62A10.1 10.1 0 0035.35 4C36 3.66 36.41 3 37 2.67c.35-.19 1.16-.16 1.33.08a2.46 2.46 0 01.35 1.65c0 .29-.59.53-.93.78-.76.54-2.23 1.37-2.16 1.55a12.56 12.56 0 002.26 3.64c.28.31 1.46-.27 2.23-.31a7.85 7.85 0 011.65.25c-.22.51-.33 1.36-.69 1.48-2.54.88-1 3.58-2.41 5a2.49 2.49 0 00.73.86c2.36 1.44 4.76 2.84 7.14 4.26.52.32.9.45 1.08-.35.32-1.51.73-3 1-4.5.1-.54.12-1.39-.94-.92s-1.56-.1-2-.9c-1.17-2.19-2.35-4.37-3.5-6.58-.34-.65-.65-1.48.35-1.78a1.73 1.73 0 011.51.69c1 1.59 1.8 3.26 2.71 4.89a5.21 5.21 0 00.78.85c.27-.42.82-.87.78-1.24-.3-2.6.06-5.46-2.51-7.27-.86-.61-1.92-1.45-1.18-2.49.91-1.27 1.85-.07 2.61.51.48.36.71.65 1.11-.09a3 3 0 011.06-1.1 1.14 1.14 0 011.84 1.12c-.06.82-.33 1.63-.45 2.45a12.15 12.15 0 00-.19 2.47 28.23 28.23 0 00.51 3 24.1 24.1 0 012.59-.79c.52-.09 1.37-.09 1.61.22.63.81-.16 1.28-.8 1.66s-1.1.64-1.67.92c-1.39.66-2 1.4-1.58 3.17.32 1.27-.39 2.8-.64 4.21v.24l.11-.22c1.15-1.2 2.32-2.39 3.44-3.62.57-.63 1.08-1.52 2-.79s.56 1.54 0 2.23a54.6 54.6 0 01-3.16 3.47c-1.89 1.93-1.9 2.19.46 3.53.9.51 1.9.83 2.82 1.31q4.81 2.46 9.62 5a13.54 13.54 0 001.39.65.54.54 0 00.49-.21c.07-.13 0-.48-.08-.53-.57-.27-1.18-.43-1.74-.71-.91-.46-1.58-1.23-1.08-2.23.39-.81 1.17-.56 1.9-.16s1.16.05 1.12-.79a1.59 1.59 0 01-.06-.3c0-1.12.57-2.62 0-3.23s-2.12-.23-3.22-.42a1.5 1.5 0 01-1.08-.81 1.42 1.42 0 01.65-1.2 11.58 11.58 0 012.37-.59 9.23 9.23 0 001.78-.4c.3-.14.44-.63.66-1-.27-.09-.53-.19-.8-.27a6.84 6.84 0 01-1.8-.52 6.11 6.11 0 01-1.7-1.66 1.43 1.43 0 01.06-1.36c.21-.25.91-.22 1.35-.13s.67.49 1 .59a10.07 10.07 0 001.74.19 7.6 7.6 0 00-.42-1.43c-.74-1.49-1.59-2.92-2.24-4.44-.17-.38.27-1 .43-1.54.44.17 1.08.22 1.28.54.83 1.31 1.51 2.72 2.28 4.06.63 1.09 1 1.07 1.65-.06.44-.71.8-1.47 1.21-2.19.71-1.25 1.12-2.36-.56-3.26-.45-.24-.93-1.35-.73-1.7.48-.87 1.42-.69 2.22-.24.09 0 .15.16.24.18.73.21 1.47.41 2.2.6-.17-.75-.3-1.51-.52-2.24-.15-.49-.57-.93-.6-1.42a1.78 1.78 0 01.52-1.25c.15-.15.76 0 1.07.21.7.4.74 2.08 2 1.21.45-.31.25-1.48.47-2.23a1.38 1.38 0 01.82-.8 1.3 1.3 0 011 .41c1.06 1.14 1.09 2.44 0 4C79.9 6.3 78.5 8 77.16 9.71a29.43 29.43 0 00-6.58 18.41c0 1.67-.35 3.3.69 4.79.54.77 1.2 1.3 2.09.83 2.69-1.45 5.4-2.91 6.54-6a4.33 4.33 0 00.08-1.2c-.29.1-.59.2-.89.28-1.68.44-4.3-.93-4.58-2.53-.06-.35.6-1.12 1-1.18s1.13.34 1.7.55l1.64.59c0-.6 0-1.21-.11-1.81-.14-1.43-.38-2.87-.45-4.31A1.44 1.44 0 0179 17a1.58 1.58 0 011.25.54 4.36 4.36 0 01.85 1.64 15.8 15.8 0 01.29 2.19 24.5 24.5 0 011.33-2.13c.74-1 1.51-2.62 2.86-1.87 1.66.91-.11 2.16-.44 3.21-.68 2.16-1.71 4.23-2.26 6.41-.36 1.4.11 1.61 1.43 1a26.14 26.14 0 018.45-2.13 26.6 26.6 0 004.79-1.4c5.92-1.69 11.31-4.55 16.65-7.51a12.94 12.94 0 012.26-1.14c.51-.17 1.39-.19 1.63.1a1.72 1.72 0 01.07 1.67 23.81 23.81 0 01-4.34 4c-7.61 4.79-15.85 7.78-24.88 8-2.51.07-4.61 1.2-6.85 2a15.24 15.24 0 00-2.53 1.32c-.82.46-1.63 1-2.44 1.44a22.79 22.79 0 012 1.64 12.4 12.4 0 011.25 1.76c1.34 1.94 3 3.08 5.53 2.19 1.58-.55 3.23-.87 4.85-1.3a13.9 13.9 0 013-.74c.5 0 1.14.67 1.43 1.19.11.19-.54 1.12-1 1.24-2.72.76-5.48 1.38-8.23 2-.41.1-.82.18-1.22.32a5 5 0 00-.71.46c.19.24.36.66.57.67 3.08.18 5.92 2.35 9.24.82 1-.46 2.81-1.15 3.11.65.26 1.5-1.47 1.4-2.55 1.59A62.33 62.33 0 0187.28 48c-1.38.1-.36.7-.29.8 1.53 2.31 3.07 4.62 4.7 6.86.78 1.08 1.8 2 2.59 3 .5.69 1.46 1.6.42 2.43s-1.94-.17-2.57-.92c-1.05-1.27-1.93-2.67-3-3.93a7.33 7.33 0 00-1.69-1.16 17.17 17.17 0 00-1 1.56c-.14.26 0 .75-.13.89a13.76 13.76 0 01-1.76 1.11c-.28-.58-.84-1.19-.78-1.72a6.51 6.51 0 011-2.59 4 4 0 000-5.11 15.08 15.08 0 01-.9-1.63 5.38 5.38 0 00-.52-.66 5.06 5.06 0 00.23.87c1.28 3.17-.62 5.85-1.51 8.68a1.21 1.21 0 01-1 .58c-.43-.1-1.09-.54-1.1-.85a7.6 7.6 0 01.44-3.28 6.53 6.53 0 00.4-5.91 5.25 5.25 0 01-.06-3.56c.75-1.93-1.08-2.26-1.76-3.21-.2-.28-1.64.21-2.46.52-1 .36-1.18 1.08-.66 2Q77 45 78.08 47a5.42 5.42 0 01.77 2c.05 1-.15 2.31-1.46 2.42s-1-1.17-1.25-2a41.08 41.08 0 00-1.41-4c-.09-.23-.39-.37-.6-.55a3.25 3.25 0 00-.47.77 25.92 25.92 0 00-.66 2.7 1.52 1.52 0 01-1.77 1.38c-1.12-.16-1-1.11-.82-2a16.72 16.72 0 00.52-1.8 10.11 10.11 0 000-1.74 9.29 9.29 0 00-1.74.65c-.61.38-1.06 1.08-1.69 1.37a1.66 1.66 0 01-1.57-.2 1.65 1.65 0 01-.07-1.61 5.87 5.87 0 011.83-1.2c2.79-1.51 5.6-3 8.38-4.52.32-.17.52-.56.78-.85l-1.07-.39a7 7 0 00-6.31.83c-2.73 1.61-5.61 3-8.37 4.52A46.29 46.29 0 0051.61 50a2.35 2.35 0 00-.61 1.55 13.74 13.74 0 001.95 7.7 46.23 46.23 0 012.21 4.11c.43.85.71 1.28 1.83.49A34.48 34.48 0 0162.27 61c.42-.2 1.09.12 1.64.2-.21.52-.27 1.22-.65 1.51-1.68 1.26-3.43 2.42-5.18 3.57-.83.54-.73 1.14-.35 1.86a1.17 1.17 0 001.8.57A5.06 5.06 0 0161 68.1c.34 0 1 .23 1 .35-.1 1.84 1.58 1.88 2.55 2.68a8.16 8.16 0 011.85 2.78 1.33 1.33 0 01-.4 1.27c-.29.17-1-.06-1.32-.3-1-.66-1.93-1.51-3-2.1-.41-.23-1.1 0-1.66 0a6.18 6.18 0 00.47 1.7c.75 1.21 1.67 2.32 2.44 3.53.4.63.63 1.49-.38 1.76-.39.11-1-.39-1.43-.76a15.21 15.21 0 01-1.06-1.52c-.64-.79-1.33-1.53-2-2.3l-1.34 3.45a1.13 1.13 0 00-.06.31c-.13.81.73 2-.79 2.28-.84.17-2-1.15-1.7-2.5a24 24 0 012.12-6c.44-.86.66-1.41.21-2.21s-1-1.83-1.47-2.74c-.6-1.08-1.24-2.14-1.86-3.21a31.76 31.76 0 00-1.74 3.12 3.87 3.87 0 00-.13 1.92c.19 1.5.62 3 .67 4.49 0 .49-.85 1-1.31 1.53a7.24 7.24 0 01-1.38-1.74c-.21-.52.1-1.22.11-1.84a2.24 2.24 0 00-.3-.77 6.9 6.9 0 00-.53.68A45.07 45.07 0 0146.29 76a6.23 6.23 0 01-2.12 1.7c-.23.12-1.12-.31-1.16-.58a2.18 2.18 0 00-.94-1.84c-.93-.66-.09-1.49.73-1.87 3.29-1.53 4.7-4.62 6.41-7.45a3.44 3.44 0 00.48-1.48c0-.44-.1-1.11-.39-1.27a1.54 1.54 0 00-1.3.33c-1.51 1.28-2.92 2.67-4.43 4a5 5 0 01-1.68.83.85.85 0 01-.79-.26c-.19-.32-.38-.92-.22-1.1a19.83 19.83 0 012.52-2.33c.69-.52 1.53-.84 1.07-1.93s.33-1.78 1.25-2.09a16.13 16.13 0 013.07-.66 12 12 0 012 0c-.25-.56-.54-1.11-.76-1.69-.46-1.25-.93-2.5-1.29-3.77-.27-1-.51-1.64-1.59-.7-3.85 3.37-7.63 6.83-11.59 10.06-1.33 1.08-1.64 2.22-1.09 3.47a9.9 9.9 0 010 7.86c-.35.9 0 1.2.8 1.61s1.32.11 1.76-.54a3.61 3.61 0 00.27-.56c.35-.8.82-1.7 1.82-1.24s.69 1.59.34 2.46a2 2 0 01-.77 1c-1.36.76-.38 1.29.13 1.82.19.2.63.17.82.37a12.52 12.52 0 011 1.32c-.59.37-1.2 1.06-1.76 1a5 5 0 01-2.19-1c-.68-.45-1.24-1.09-1.88-1.6s-1-.37-1.46.38a3.7 3.7 0 00-.24 3.83 21.73 21.73 0 011.53 3.05c.15.42-.25 1-.4 1.56a4 4 0 01-1.3-.51 11.14 11.14 0 01-1.26-1.62 12.65 12.65 0 01-.38 2 7 7 0 01-.89 1.44c-.46-.34-1.17-.58-1.34-1a3.86 3.86 0 01-.22-2.36c1.55-4.73 1.69-9.77 3.53-14.43a4.12 4.12 0 00.16-2.12 17 17 0 00-.84-2.56c-.71.51-1.46 1-2.14 1.53-1.28 1.07-2.57 2.13-3.75 3.3a2.24 2.24 0 00-.38 2.82 7.45 7.45 0 01.57 3.27c-.1 2.77-.33 5.54-.61 8.3a7 7 0 001 5 6.14 6.14 0 01.88 2 1.18 1.18 0 01-.47 1c-.28.15-1 .08-1.1-.12-1.41-2.46-3.58-4.66-3-7.9a5.38 5.38 0 000-.9 5.25 5.25 0 00-1 .55 10.48 10.48 0 01-1.62 1.46 2.24 2.24 0 01-1.65 0c-.17-.06-.23-1 0-1.33a14.56 14.56 0 012.77-3.39c2.61-2 1.89-4.6 1.91-7.11 0-.07-.77-.28-.85-.17-2.25 2.9-4.5 5.81-6.64 8.78-.66.92.52 4.17 1.94 4.75 2.26.93 3.19 2.79 4.27 4.67.55 1 1.37 1.79 1.93 2.76a4.23 4.23 0 01.24 1.57c-.67 0-1.65.29-2 0a20.38 20.38 0 01-2-3.11c-.16-.26-.37-.49-.55-.74a10.53 10.53 0 00-.45 1c-.51 1.56-.91 3.16-1.53 4.68a1 1 0 01-1.75.23c-.77-.92-1.25-2-.39-3.11 2.39-3.21.68-5.88-1-8.55-.59-.94-1.25-.82-1.88.17-1.38 2.2-2.67 4.46-4.22 6.54-1.66 2.36-4.44 3.34-7.01 4.52l-.88-1.62c1.52-.94 3.09-1.81 4.54-2.85.39-.27.42-1 .61-1.58A7 7 0 004 93.78c-.83.06-1.66.32-2.49.34a1.14 1.14 0 01-.85-.69c-.09-.3.11-1 .33-1a12.67 12.67 0 014.16-1.16 4.36 4.36 0 004.61-2.92A37.93 37.93 0 0113 83.38a2.71 2.71 0 00.23-.92c-1.15.22-2.12-.93-3.53.09a79.37 79.37 0 01-7.9 4.58c-.66.37-1.51.65-1.78-.33-.11-.39.36-1.16.78-1.43 1.43-.89 3-1.62 4.43-2.45 1.9-1.07 1.89-1.08.4-2.43a4.44 4.44 0 01-1.09-1.07A1.7 1.7 0 014.43 78a1.51 1.51 0 011.34-.36c2.08.6 4.13 1.33 6.2 2a4.36 4.36 0 004.69-.9 12.77 12.77 0 001.44-2.26 10 10 0 01-2.16.19c-2.89-.41-5.77-.85-8.62-1.41-.48-.09-1.23-1-1.14-1.19a2.84 2.84 0 011.44-1.37c.52-.19 1.21.11 1.83.22 1.33.23 2.66.45 4 .7A11.57 11.57 0 0024.5 70c.07-.08.17-.13.24-.2l3-2.73a16.11 16.11 0 00-4.15-.52c-6.29.84-12.68 1.24-18.73 3.5-.72.28-1.53.61-1.77-.39-.09-.39.4-1.11.82-1.42a17.16 17.16 0 012.49-1.37c.5-.26 1-.49 1.5-.73l-1.6-.82a6.51 6.51 0 01-1.86-1 2.12 2.12 0 01-.29-1.66c0-.2.89-.4 1.35-.37 2.29.16 4 1.55 5.79 2.77a2.26 2.26 0 002.28.19l10.78-1.36c.19 0 .38-.1.57-.14-.15-.23-.24-.6-.44-.67-2.25-.77-4.51-1.52-6.79-2.18-.21-.06-.81.48-.9.81a4.23 4.23 0 01-3.2 3.46c-1.29-1-.22-2 .09-3.06.4-1.29.08-1.76-1.29-1.69A10.35 10.35 0 0010 61c-.6.19-1.16.71-1.73.7a1.73 1.73 0 01-1.35-.87 1.58 1.58 0 01.61-1.43c1-.53 2.16-.75 3.2-1.23 2.1-1 2.11-1 .91-3a21.31 21.31 0 00-1.54-1.9c-.52-.66-.63-1.31.2-1.84s1.42-.5 1.89.28a25.86 25.86 0 011.93 3.54 4.58 4.58 0 004.65 3.27c2.31 0 3.62-.63 4.43-2.84.27-.73.17-1.24-.73-1.24-1.35 0-2.7.15-4 .08a4.66 4.66 0 01-1.57-.67c.36-.54.64-1.46 1.1-1.57a43 43 0 014.56-.54 2.51 2.51 0 00.68-.24 2.8 2.8 0 00-.48-.37c-1-.41-2.12-.74-3.12-1.23-.72-.37-1.63-.93-1.07-1.9a1.46 1.46 0 012.37-.43 25.31 25.31 0 002.54 1c.88.47 1.81 1.46 1.18-.68-.05-.17 1-1 1.27-.88a3 3 0 002.93-.67c.8-.53.57-1-.21-1.28-1.49-.47-3-.81-4.51-1.3a3.74 3.74 0 01-1.72-1c-.31-.39-.2-1.11-.27-1.69a5.65 5.65 0 011.67-.15c1.09.25 2.15.66 3.22 1l.82.24h.25l-.23-.1-.88-.24c-.1-.63-.21-1.27-.32-1.9.59-.1 1.28-.43 1.75-.24a3.61 3.61 0 011.84 1.46 8.45 8.45 0 003.56 3.71 6.31 6.31 0 011.75 2.09A16 16 0 0137 49.68a3.23 3.23 0 004 2.19c1.32-.18 2.68 0 4-.08a2.94 2.94 0 001.58-.61c3.29-2.71 6.42-5.68 9.9-8.18 2.83-2 6.08-3.38 9.13-5.07 1.19-.66 2.34-1.38 3.51-2.08-1.28-.64-2.57-1.26-3.84-1.91-.65-.33-1.27-.71-1.91-1l-10.78-5.48a3.77 3.77 0 00-.77-.19c.06.2.14.39.18.59a11 11 0 01-1.84 8.56A2.07 2.07 0 0050 38.9a29.59 29.59 0 011.71 3.31c.21.55.25 1.56-.09 1.87-.76.68-1.27-.09-1.67-.72-.17-.26-.3-.54-.46-.81s-.44-.79-.6.08a12.46 12.46 0 01-.7 2.4 3.41 3.41 0 01-1 1.53 2.13 2.13 0 01-1.66.18c-.27-.1-.43-.9-.37-1.35s.57-.9.66-1.39-.11-1.11-.35-1.19c-1.79-.58-1.59-1.61-.77-2.86a3.35 3.35 0 00.3-.55c.45-1 .59-1.84-1.06-1.6-.45.06-1-.42-1.46-.65.23-.42.36-1 .72-1.22a3.83 3.83 0 011.73-.64c.89-.09 2.18.39 2.59 0A11.82 11.82 0 0049.25 32a2.11 2.11 0 00.23-.91 8.64 8.64 0 00-.3-2.81C49 27.88 46 29.35 45.5 30c-1.5 1.71-2.87 3.53-4.5 5.13-.73.72-.95 1.18-.56 2.1a8.64 8.64 0 01.64 2.65 1.41 1.41 0 01-.8 1.12c-.35.08-.87-.32-1.22-.62s-.26-.54-.36-.84c-.23-.66-.27-1.59-.74-1.92s-1.31.2-2 .19c-.45 0-1.13-.16-1.27-.46a1.41 1.41 0 01.42-1.27c.85-.62 1.88-1 2.72-1.6a44.74 44.74 0 003.62-3c.83-.75.24-.93-.5-.92-1.14 0-2.28 0-3.42.08-.94.08-1.76-.06-2-1-.25-1.14.76-1.39 1.54-1.57 1.22-.29 2.48-.41 3.71-.6h.24zM30.16 55.05s-.12.28 0 .44c.79 1.5-.16 2.83-.49 4.2-.71 2.93-.69 3 2.27 3.29a3 3 0 001.8-.68c1.09-.81 2-1.77 3.1-2.63 1.84-1.54 3.71-3 5.55-4.58a2.88 2.88 0 00.48-.8h-.71l-8.68.59c-1.05.12-2.07.12-3.32.17zm4.4-5.44c-1.61-3-1.67-3-4.76-1.37a11.79 11.79 0 00-2.2 1.24A2.57 2.57 0 0027 51c-.09.74.36 1.05 1.14 1.07 1.56.05 3.11.28 4.68.29 3.18.02 3.18-.02 1.74-2.75zm-6.77 6c-.35-.29-.58-.62-.82-.63s-.54.3-.7.54a17 17 0 01-2.12 3.35c-.93.89-.63 1 .26 1.3 1.9.75 1.87.78 2.55-1.12a18.26 18.26 0 00.76-1.71 7.79 7.79 0 00.07-1.71z" fill="#575756" data-name="Слой 2"/></svg>