<?xml version="1.0" encoding="UTF-8"?>
<!DOCTYPE svg PUBLIC "-//W3C//DTD SVG 1.1//EN" "http://www.w3.org/Graphics/SVG/1.1/DTD/svg11.dtd">
<!-- Creator: CorelDRAW 2020 (64-Bit) -->
<svg xmlns="http://www.w3.org/2000/svg" xml:space="preserve" width="11.2073mm" height="4.0686mm" version="1.1" style="shape-rendering:geometricPrecision; text-rendering:geometricPrecision; image-rendering:optimizeQuality; fill-rule:evenodd; clip-rule:evenodd"
viewBox="0 0 136.48 49.55"
 xmlns:xlink="http://www.w3.org/1999/xlink"
 xmlns:xodm="http://www.corel.com/coreldraw/odm/2003">
 <defs>
  <style type="text/css">
   <![CDATA[
    .str0 {stroke:#727271;stroke-width:2.15;stroke-miterlimit:22.9256}
    .fil0 {fill:#A2D9F7;fill-rule:nonzero}
   ]]>
  </style>
 </defs>
 <g id="Слой_x0020_1">
  <metadata id="CorelCorpID_0Corel-Layer"/>
  <path class="fil0 str0" d="M26.06 19.76l0 10.02 -8.72 0c-1.18,0 -2.03,0.18 -2.52,0.53 -0.5,0.36 -0.75,0.96 -0.75,1.81 0,0.96 0.25,1.58 0.76,1.89 0.51,0.3 1.54,0.45 3.09,0.45l9.02 0 0 12.87 -10.53 0c-4.96,0 -8.77,-1.18 -11.4,-3.54 -2.63,-2.37 -3.94,-5.79 -3.94,-10.26l0 -17.69c0,-4.33 1.24,-7.7 3.73,-10.09 2.49,-2.38 5.98,-3.58 10.49,-3.58l11.65 0 0 13 -8.55 0c-2.29,0 -3.43,0.76 -3.43,2.26 0,0.88 0.27,1.49 0.81,1.83 0.55,0.35 1.52,0.52 2.91,0.52l7.38 0zm24.92 4.87l0 11.92 -3.86 0 0 10.77 -13.41 0 0 -28.72c0,-5.54 1.51,-9.85 4.55,-12.92 3.04,-3.07 7.3,-4.6 12.8,-4.6 5.3,0 9.22,1.39 11.76,4.18 2.54,2.79 3.8,7.08 3.8,12.89l0 29.18 -13.41 0 0 -28.29c0,-1.74 -0.21,-2.93 -0.63,-3.61 -0.43,-0.67 -1.18,-1 -2.28,-1 -2.12,0 -3.18,1.53 -3.18,4.62l0 5.61 3.86 0zm44.95 -22.68l0 12.89c-0.97,-0.28 -1.73,-0.43 -2.25,-0.43 -1.02,0 -1.89,0.37 -2.62,1.13 -0.73,0.74 -1.09,1.65 -1.09,2.71 0,0.9 0.39,2.04 1.2,3.43l1.03 1.78c1.86,3.22 2.79,6.32 2.79,9.32 0,4.38 -1.56,8.09 -4.68,11.13 -3.13,3.04 -6.94,4.56 -11.44,4.56 -2.17,0 -4.3,-0.51 -6.42,-1.51l0 -13.07c1.28,0.82 2.42,1.24 3.41,1.24 1.17,0 2.14,-0.34 2.93,-1 0.78,-0.68 1.17,-1.52 1.17,-2.54 0,-0.65 -0.62,-2.1 -1.87,-4.32 -2,-3.53 -3,-7.05 -3,-10.58 0,-4.25 1.51,-7.92 4.55,-10.99 3.02,-3.08 6.65,-4.62 10.86,-4.62 1.85,0 3.67,0.29 5.45,0.88zm38.6 0.2l-12.76 20.09 0 25.08 -13.41 0 0 -25.08 -12.87 -20.09 13.62 0 5.81 9.31 6.24 -9.31 13.36 0z"/>
 </g>
</svg>
