<?xml version="1.0" encoding="UTF-8"?>
<!DOCTYPE svg PUBLIC "-//W3C//DTD SVG 1.1//EN" "http://www.w3.org/Graphics/SVG/1.1/DTD/svg11.dtd">
<!-- Creator: CorelDRAW 2020 (64-Bit) -->
<svg xmlns="http://www.w3.org/2000/svg" xml:space="preserve" width="11.2073mm" height="4.0686mm" version="1.1" style="shape-rendering:geometricPrecision; text-rendering:geometricPrecision; image-rendering:optimizeQuality; fill-rule:evenodd; clip-rule:evenodd"
viewBox="0 0 139.49 50.64"
 xmlns:xlink="http://www.w3.org/1999/xlink"
 xmlns:xodm="http://www.corel.com/coreldraw/odm/2003">
 <defs>
  <style type="text/css">
   <![CDATA[
    .str0 {stroke:#727271;stroke-width:2.2;stroke-miterlimit:22.9256}
    .fil0 {fill:#FEFEFE;fill-rule:nonzero}
   ]]>
  </style>
 </defs>
 <g id="Слой_x0020_1">
  <metadata id="CorelCorpID_0Corel-Layer"/>
  <path class="fil0 str0" d="M26.63 20.2l0 10.24 -8.92 0c-1.21,0 -2.08,0.18 -2.57,0.54 -0.51,0.37 -0.76,0.98 -0.76,1.85 0,0.98 0.25,1.62 0.77,1.93 0.52,0.31 1.57,0.46 3.16,0.46l9.22 0 0 13.15 -10.76 0c-5.07,0 -8.96,-1.21 -11.65,-3.62 -2.69,-2.42 -4.03,-5.92 -4.03,-10.48l0 -18.08c0,-4.43 1.27,-7.87 3.81,-10.31 2.55,-2.43 6.11,-3.66 10.73,-3.66l11.9 0 0 13.29 -8.74 0c-2.34,0 -3.51,0.77 -3.51,2.31 0,0.9 0.28,1.52 0.83,1.87 0.57,0.36 1.56,0.53 2.98,0.53l7.54 0zm25.47 4.98l0 12.18 -3.95 0 0 11 -13.7 0 0 -29.35c0,-5.66 1.55,-10.07 4.65,-13.21 3.1,-3.14 7.46,-4.71 13.08,-4.71 5.42,0 9.42,1.42 12.02,4.27 2.6,2.85 3.89,7.23 3.89,13.17l0 29.83 -13.7 0 0 -28.92c0,-1.78 -0.22,-3 -0.65,-3.69 -0.44,-0.68 -1.21,-1.03 -2.33,-1.03 -2.17,0 -3.25,1.57 -3.25,4.72l0 5.73 3.95 0zm45.94 -23.18l0 13.17c-0.99,-0.29 -1.76,-0.44 -2.3,-0.44 -1.04,0 -1.94,0.38 -2.67,1.15 -0.75,0.76 -1.12,1.68 -1.12,2.77 0,0.92 0.4,2.09 1.22,3.51l1.05 1.82c1.9,3.29 2.85,6.46 2.85,9.53 0,4.48 -1.59,8.27 -4.79,11.37 -3.19,3.1 -7.09,4.66 -11.7,4.66 -2.21,0 -4.39,-0.52 -6.56,-1.55l0 -13.36c1.3,0.84 2.47,1.27 3.48,1.27 1.2,0 2.19,-0.35 3,-1.03 0.8,-0.69 1.2,-1.56 1.2,-2.59 0,-0.67 -0.63,-2.15 -1.91,-4.42 -2.04,-3.61 -3.07,-7.21 -3.07,-10.82 0,-4.35 1.55,-8.1 4.65,-11.24 3.09,-3.15 6.79,-4.72 11.1,-4.72 1.89,0 3.75,0.3 5.57,0.9zm39.45 0.21l-13.04 20.53 0 25.63 -13.7 0 0 -25.63 -13.15 -20.53 13.92 0 5.94 9.51 6.38 -9.51 13.66 0z"/>
 </g>
</svg>
