<?xml version="1.0" encoding="UTF-8"?>
<!DOCTYPE svg PUBLIC "-//W3C//DTD SVG 1.1//EN" "http://www.w3.org/Graphics/SVG/1.1/DTD/svg11.dtd">
<!-- Creator: CorelDRAW 2020 (64-Bit) -->
<svg xmlns="http://www.w3.org/2000/svg" xml:space="preserve" width="13.7808mm" height="3.9964mm" version="1.1" style="shape-rendering:geometricPrecision; text-rendering:geometricPrecision; image-rendering:optimizeQuality; fill-rule:evenodd; clip-rule:evenodd"
viewBox="0 0 315.61 91.53"
 xmlns:xlink="http://www.w3.org/1999/xlink"
 xmlns:xodm="http://www.corel.com/coreldraw/odm/2003">
 <defs>
  <style type="text/css">
   <![CDATA[
    .str0 {stroke:#727271;stroke-width:4.04;stroke-miterlimit:22.9256}
    .fil0 {fill:#FEFEFE;fill-rule:nonzero}
   ]]>
  </style>
 </defs>
 <g id="Слой_x0020_1">
  <metadata id="CorelCorpID_0Corel-Layer"/>
  <path class="fil0 str0" d="M34.24 34.5l0 22.41 -7 0 0 32.09 -25.22 0 0 -84.94 25.22 0 0 30.44 7 0zm29.54 -30.44l0 84.94 -25.22 0 0 -84.94 25.22 0zm47.71 42.28l0 22.41 -7.26 0 0 20.25 -25.21 0 0 -54.02c0,-10.42 2.84,-18.53 8.55,-24.3 5.71,-5.77 13.73,-8.66 24.07,-8.66 9.97,0 17.34,2.61 22.11,7.85 4.78,5.24 7.15,13.31 7.15,24.24l0 54.89 -25.22 0 0 -53.21c0,-3.27 -0.4,-5.52 -1.19,-6.79 -0.81,-1.25 -2.23,-1.89 -4.29,-1.89 -3.99,0 -5.99,2.89 -5.99,8.68l0 10.55 7.26 0zm69.89 -19.49l0 62.15 -25.22 0 0 -84.94 32.32 0c9.85,0 17.49,2.44 22.92,7.34 6.05,5.49 9.06,12.44 9.06,20.86 0,8.6 -3.74,15.86 -11.21,21.76l14.54 34.98 -26.49 0 -12.25 -27.34 0 -21.82 1.99 0c5.28,0 7.94,-2.29 7.94,-6.9 0,-4.05 -3.06,-6.09 -9.19,-6.09l-4.43 0zm76.17 1.66l0 60.49 -25.22 0 0 -84.94 32.84 0c14.41,0 25.7,3.27 33.87,9.83 9.7,7.85 14.54,18.48 14.54,31.94 0,12.86 -4.14,23.35 -12.44,31.47 -8.28,8.13 -18.95,12.2 -32.01,12.2 -1.53,0 -4.03,-0.08 -7.51,-0.25l0 -24.96 4.03 0c14.71,0 22.07,-6.16 22.07,-18.45 0,-11.57 -7.24,-17.34 -21.69,-17.34l-8.49 0z"/>
 </g>
</svg>
