<?xml version="1.0" encoding="UTF-8"?>
<!DOCTYPE svg PUBLIC "-//W3C//DTD SVG 1.1//EN" "http://www.w3.org/Graphics/SVG/1.1/DTD/svg11.dtd">
<!-- Creator: CorelDRAW 2020 (64-Bit) -->
<svg xmlns="http://www.w3.org/2000/svg" xml:space="preserve" width="13.7808mm" height="3.9964mm" version="1.1" style="shape-rendering:geometricPrecision; text-rendering:geometricPrecision; image-rendering:optimizeQuality; fill-rule:evenodd; clip-rule:evenodd"
viewBox="0 0 317.01 91.93"
 xmlns:xlink="http://www.w3.org/1999/xlink"
 xmlns:xodm="http://www.corel.com/coreldraw/odm/2003">
 <defs>
  <style type="text/css">
   <![CDATA[
    .str0 {stroke:#727271;stroke-width:4.06;stroke-miterlimit:22.9256}
    .fil0 {fill:#A2D9F7;fill-rule:nonzero}
   ]]>
  </style>
 </defs>
 <g id="Слой_x0020_1">
  <metadata id="CorelCorpID_0Corel-Layer"/>
  <path class="fil0 str0" d="M34.39 34.65l0 22.51 -7.03 0 0 32.23 -25.33 0 0 -85.32 25.33 0 0 30.57 7.03 0zm29.67 -30.57l0 85.32 -25.33 0 0 -85.32 25.33 0zm47.92 42.47l0 22.51 -7.29 0 0 20.34 -25.32 0 0 -54.26c0,-10.47 2.86,-18.61 8.59,-24.41 5.73,-5.8 13.79,-8.7 24.17,-8.7 10.02,0 17.42,2.62 22.21,7.89 4.8,5.27 7.19,13.37 7.19,24.35l0 55.13 -25.33 0 0 -53.45c0,-3.28 -0.4,-5.54 -1.19,-6.82 -0.81,-1.26 -2.24,-1.9 -4.31,-1.9 -4.01,0 -6.01,2.9 -6.01,8.72l0 10.6 7.29 0zm70.2 -19.57l0 62.42 -25.33 0 0 -85.32 32.47 0c9.89,0 17.57,2.45 23.02,7.38 6.08,5.52 9.1,12.49 9.1,20.95 0,8.63 -3.75,15.93 -11.26,21.85l14.6 35.13 -26.61 0 -12.3 -27.46 0 -21.91 2 0c5.31,0 7.97,-2.3 7.97,-6.93 0,-4.07 -3.07,-6.12 -9.23,-6.12l-4.45 0zm76.51 1.66l0 60.76 -25.33 0 0 -85.32 32.98 0c14.47,0 25.81,3.28 34.02,9.87 9.74,7.89 14.6,18.57 14.6,32.08 0,12.92 -4.16,23.45 -12.49,31.61 -8.31,8.16 -19.04,12.26 -32.15,12.26 -1.53,0 -4.05,-0.09 -7.55,-0.26l0 -25.07 4.05 0c14.77,0 22.17,-6.18 22.17,-18.53 0,-11.62 -7.27,-17.42 -21.79,-17.42l-8.53 0z"/>
 </g>
</svg>
