<?xml version="1.0" encoding="UTF-8"?>
<!DOCTYPE svg PUBLIC "-//W3C//DTD SVG 1.1//EN" "http://www.w3.org/Graphics/SVG/1.1/DTD/svg11.dtd">
<!-- Creator: CorelDRAW 2020 (64-Bit) -->
<svg xmlns="http://www.w3.org/2000/svg" xml:space="preserve" width="48.9109mm" height="8.1083mm" version="1.1" style="shape-rendering:geometricPrecision; text-rendering:geometricPrecision; image-rendering:optimizeQuality; fill-rule:evenodd; clip-rule:evenodd"
viewBox="0 0 2241.76 371.63"
 xmlns:xlink="http://www.w3.org/1999/xlink"
 xmlns:xodm="http://www.corel.com/coreldraw/odm/2003">
 <defs>
  <style type="text/css">
   <![CDATA[
    .str0 {stroke:#727271;stroke-width:16.17;stroke-miterlimit:22.9256}
    .fil0 {fill:#00A0E3;fill-rule:nonzero}
   ]]>
  </style>
 </defs>
 <g id="Слой_x0020_1">
  <metadata id="CorelCorpID_0Corel-Layer"/>
  <path class="fil0 str0" d="M143.9 88.8l0 184.33 -76.84 0 0 -184.33 -58.98 0 0 -74.51 194.42 0 0 74.51 -58.6 0zm152.76 -74.51l0 79.16c11.97,-8.8 23.93,-13.19 35.9,-13.19 18.17,0 32.53,6.6 43.2,19.72 10.67,13.2 15.98,30.92 15.98,53.36l0 119.78 -71.01 0 0 -99.93c0,-8.02 -0.84,-13.45 -2.53,-16.23 -1.68,-2.78 -4.91,-4.14 -9.76,-4.14 -7.83,0 -11.77,5.82 -11.77,17.53l0 102.77 -71.01 0 0 -258.84 71.01 0zm322.22 175.79l-107.43 0c-1.49,-5.43 -2.26,-10.35 -2.26,-14.87 0,-6.27 1.1,-12.49 3.24,-18.5l36.03 0c-2.53,-14.23 -10.41,-21.34 -23.67,-21.34 -8.86,0 -16.04,3.75 -21.6,11.32 -5.56,7.5 -8.35,17.2 -8.35,28.97 0,12.29 2.65,22.19 8.02,29.82 5.37,7.57 12.42,11.38 21.15,11.38 7.05,0 13.9,-3.56 20.44,-10.67l40.36 48.57c-18.82,14.81 -39.77,22.25 -62.8,22.25 -28,0 -51.61,-9.45 -70.69,-28.27 -19.08,-18.88 -28.66,-42.17 -28.66,-70.04 0,-27.68 9.64,-51.1 28.91,-70.18 19.34,-19.08 43.01,-28.65 71.08,-28.65 27.42,0 50.51,9.31 69.14,28 18.69,18.63 28,41.58 28,68.94 0,2.78 -0.32,7.18 -0.9,13.26zm126.31 83.05l0 -186.53c0,-23.09 6.99,-41.91 21.02,-56.59 14.04,-14.62 32.21,-21.93 54.59,-21.93 26.52,0 46.89,12.16 61.18,36.41 8.73,-13.13 18.11,-22.44 28.07,-28 10.02,-5.63 22.31,-8.41 36.99,-8.41 23.28,0 41.14,7.31 53.55,21.93 12.36,14.68 18.56,35.7 18.56,63.25l0 179.86 -76.84 0 0 -168.35c0,-8.15 -0.65,-13.59 -2,-16.23 -1.36,-2.65 -4.07,-4.01 -8.21,-4.01 -7.7,0 -11.51,6.34 -11.51,18.95l0 169.65 -76.84 0 0 -168.35c0,-8.02 -0.71,-13.45 -2.07,-16.17 -1.42,-2.72 -4.14,-4.07 -8.21,-4.07 -7.63,0 -11.45,6.72 -11.45,20.24l0 168.35 -76.84 0zm500.86 -83.05l-107.43 0c-1.49,-5.43 -2.26,-10.35 -2.26,-14.87 0,-6.27 1.1,-12.49 3.24,-18.5l36.03 0c-2.53,-14.23 -10.41,-21.34 -23.67,-21.34 -8.86,0 -16.04,3.75 -21.6,11.32 -5.56,7.5 -8.35,17.2 -8.35,28.97 0,12.29 2.65,22.19 8.02,29.82 5.37,7.57 12.42,11.38 21.15,11.38 7.05,0 13.9,-3.56 20.44,-10.67l40.36 48.57c-18.82,14.81 -39.77,22.25 -62.8,22.25 -28,0 -51.61,-9.45 -70.69,-28.27 -19.08,-18.88 -28.66,-42.17 -28.66,-70.04 0,-27.68 9.64,-51.1 28.91,-70.18 19.34,-19.08 43.01,-28.65 71.08,-28.65 27.42,0 50.51,9.31 69.14,28 18.69,18.63 28,41.58 28,68.94 0,2.78 -0.32,7.18 -0.9,13.26zm288.52 83.05l-71.01 0 0 -101.99c0,-7.89 -0.77,-13.39 -2.39,-16.43 -1.62,-3.04 -4.53,-4.59 -8.8,-4.59 -7.83,0 -11.71,7.05 -11.71,21.21l0 101.8 -71.01 0 0 -101.99c0,-7.89 -0.84,-13.39 -2.59,-16.43 -1.68,-3.04 -4.66,-4.59 -8.92,-4.59 -7.83,0 -11.77,7.05 -11.77,21.21l0 101.8 -71.01 0 0 -116.42c0,-21.22 7.18,-39.26 21.47,-54.13 14.3,-14.88 31.63,-22.31 52,-22.31 20.96,0 39.84,8.86 56.53,26.64 18.56,-17.78 37.06,-26.64 55.62,-26.64 23.61,0 42.49,8.6 56.79,25.8 11.19,13.39 16.82,32.92 16.82,58.66l0 108.4zm131.17 -192.86c26.84,0 49.8,9.63 68.94,28.91 19.21,19.27 28.78,42.36 28.78,69.27 0,27.29 -9.7,50.58 -29.11,69.79 -19.47,19.21 -42.88,28.78 -70.3,28.78 -27.49,0 -50.97,-9.64 -70.43,-28.91 -19.47,-19.27 -29.24,-42.49 -29.24,-69.66 0,-27.68 9.77,-50.96 29.24,-69.85 19.47,-18.88 43.52,-28.33 72.11,-28.33zm-1.88 69.85c-7.63,0 -14.03,2.78 -19.34,8.28 -5.3,5.5 -7.96,12.22 -7.96,20.24 0,7.82 2.65,14.55 8.02,20.18 5.37,5.56 11.77,8.35 19.27,8.35 7.57,0 14.03,-2.78 19.41,-8.35 5.37,-5.62 8.02,-12.35 8.02,-20.18 0,-8.02 -2.65,-14.75 -7.95,-20.24 -5.3,-5.5 -11.77,-8.28 -19.47,-8.28zm232.58 -67.85l0 75.8c-4.91,-2.71 -9.38,-4.07 -13.39,-4.07 -12.81,0 -19.21,9.83 -19.21,29.49l0 89.64 -71.01 0 0 -103.29c0,-27.29 7.44,-49.02 22.38,-65.26 14.87,-16.23 34.8,-24.31 59.63,-24.31 5.56,0 12.74,0.65 21.6,2zm45.34 273.58l0 -61.51c9.57,3.95 17.98,5.95 25.23,5.95 22.96,0 37.84,-12.94 44.69,-38.74 -12.36,7.44 -24.45,11.19 -36.35,11.19 -17.53,0 -31.95,-6.53 -43.33,-19.66 -11.32,-13.13 -17.01,-29.82 -17.01,-50.06l0 -118.87 71.01 0 0 101.61c0,11.44 4.59,17.14 13.84,17.14 8.86,0 13.32,-6.27 13.32,-18.88l0 -99.86 71.01 0 0 168.68c0,31.5 -8.86,56.92 -26.58,76.25 -21.08,22.96 -46.63,34.47 -76.57,34.47 -13.13,0 -26.26,-2.59 -39.26,-7.7zm283.16 -341.56l-1.29 160.66 -67.26 0 -4.01 -160.66 72.56 0zm-36.54 173.85c12.35,0 23.02,4.46 31.88,13.45 8.93,8.99 13.39,19.66 13.39,32.01 0,12.42 -4.4,22.89 -13.26,31.56 -8.86,8.67 -19.53,13 -32.01,13 -13.07,0 -23.74,-4.21 -32.15,-12.61 -8.41,-8.41 -12.61,-19.08 -12.61,-32.14 0,-12.61 4.33,-23.35 13.06,-32.08 8.73,-8.8 19.27,-13.2 31.69,-13.2z"/>
 </g>
</svg>
