<?xml version="1.0" encoding="UTF-8"?>
<!DOCTYPE svg PUBLIC "-//W3C//DTD SVG 1.1//EN" "http://www.w3.org/Graphics/SVG/1.1/DTD/svg11.dtd">
<!-- Creator: CorelDRAW 2020 (64-Bit) -->
<svg xmlns="http://www.w3.org/2000/svg" xml:space="preserve" width="36.9967mm" height="6.2471mm" version="1.1" style="shape-rendering:geometricPrecision; text-rendering:geometricPrecision; image-rendering:optimizeQuality; fill-rule:evenodd; clip-rule:evenodd"
viewBox="0 0 728.69 123.04"
 xmlns:xlink="http://www.w3.org/1999/xlink"
 xmlns:xodm="http://www.corel.com/coreldraw/odm/2003">
 <defs>
  <style type="text/css">
   <![CDATA[
    .str0 {stroke:#727271;stroke-width:3.47;stroke-miterlimit:22.9256}
    .fil0 {fill:#86776F;fill-rule:nonzero}
   ]]>
  </style>
 </defs>
 <g id="Слой_x0020_1">
  <metadata id="CorelCorpID_0Corel-Layer"/>
  <path class="fil0 str0" d="M1.74 119.14l0 -80.16c0,-9.92 3,-18.01 9.03,-24.32 6.03,-6.28 13.84,-9.42 23.46,-9.42 11.4,0 20.15,5.23 26.29,15.65 3.75,-5.64 7.78,-9.65 12.06,-12.03 4.31,-2.42 9.59,-3.61 15.9,-3.61 10.01,0 17.68,3.14 23.01,9.42 5.31,6.31 7.98,15.34 7.98,27.18l0 77.29 -33.02 0 0 -72.35c0,-3.5 -0.28,-5.84 -0.86,-6.98 -0.58,-1.14 -1.75,-1.72 -3.53,-1.72 -3.31,0 -4.95,2.72 -4.95,8.14l0 72.9 -33.02 0 0 -72.35c0,-3.45 -0.31,-5.78 -0.89,-6.95 -0.61,-1.17 -1.78,-1.75 -3.53,-1.75 -3.28,0 -4.92,2.89 -4.92,8.7l0 72.35 -33.02 0zm165.93 -81.21l0 81.21 -30.52 0 0 -81.21 30.52 0zm-15.09 -36.19c4.14,0 7.7,1.45 10.73,4.36 3.03,2.89 4.53,6.34 4.53,10.31 0,4.22 -1.42,7.73 -4.28,10.42 -2.86,2.72 -6.5,4.08 -10.98,4.08 -4.45,0 -8.11,-1.36 -10.98,-4.08 -2.86,-2.7 -4.28,-6.2 -4.28,-10.42 0,-3.97 1.5,-7.42 4.53,-10.31 3.03,-2.92 6.59,-4.36 10.73,-4.36zm83.8 37.36l0 32.1c-4.28,0 -7.23,0.81 -8.81,2.39 -1.61,1.61 -2.61,4.78 -3.06,9.48 -1.42,15.67 -7.48,26.74 -18.2,33.18 -5.7,3.36 -13.79,5.06 -24.24,5.06l-4.22 0 0 -32.19 1.39 0c4.86,0 8.34,-1.03 10.45,-3.06 2.08,-2.03 3.28,-5.62 3.61,-10.7 0.42,-8.31 1.2,-14.18 2.31,-17.54 1.11,-3.36 3.39,-6.7 6.78,-10.01 5.98,-5.81 14.23,-8.73 24.79,-8.73l9.2 0zm37.13 -31.18l0 31.18 13.67 0 0 32.19 -13.67 0c0,6.45 1,10.89 3.03,13.34 2.03,2.45 5.75,3.67 11.15,3.67l0 31.99c-1.59,0.03 -2.75,0.03 -3.5,0.03 -6.89,0 -13.4,-1.61 -19.48,-4.81 -6.12,-3.19 -11.01,-7.53 -14.7,-13.01 -4.67,-6.97 -7,-16.26 -7,-27.79l0 -66.79 30.52 0zm73.79 80.77l0 31.52c-2.5,0.42 -4.78,0.61 -6.84,0.61 -12.2,0 -22.35,-4.03 -30.49,-12.06 -8.14,-8.03 -12.2,-18.09 -12.2,-30.21 0,-11.79 4.11,-21.76 12.34,-29.96 8.2,-8.2 18.21,-12.31 29.99,-12.31 13.12,0 23.46,3.83 31.04,11.53 7.56,7.7 11.34,18.2 11.34,31.52l0 39.83 -30.52 0 0 -37.63c0,-4.28 -1.03,-7.7 -3.11,-10.26 -2.06,-2.53 -4.86,-3.81 -8.36,-3.81 -3.17,0 -5.92,1.17 -8.23,3.5 -2.31,2.34 -3.47,5.09 -3.47,8.28 0,3.36 1.06,6.14 3.14,8.31 2.11,2.17 4.78,3.25 8,3.25 2.64,0 5.11,-0.7 7.36,-2.11zm83.35 -80.77l0 111.23 -30.52 0 0 -111.23 30.52 0zm46.64 30.02l-14.9 29.57 22.12 51.64 -33.69 0 -19.07 -53.03 13.84 -28.18 31.68 0zm92.55 45.53l-46.17 0c-0.64,-2.33 -0.97,-4.45 -0.97,-6.39 0,-2.7 0.47,-5.37 1.39,-7.95l15.48 0c-1.09,-6.12 -4.47,-9.17 -10.17,-9.17 -3.81,0 -6.89,1.61 -9.28,4.86 -2.39,3.22 -3.59,7.39 -3.59,12.45 0,5.28 1.14,9.53 3.45,12.81 2.31,3.25 5.34,4.89 9.09,4.89 3.03,0 5.97,-1.53 8.78,-4.59l17.34 20.87c-8.09,6.37 -17.09,9.56 -26.99,9.56 -12.03,0 -22.18,-4.06 -30.38,-12.15 -8.2,-8.11 -12.31,-18.12 -12.31,-30.1 0,-11.9 4.14,-21.96 12.42,-30.16 8.31,-8.2 18.48,-12.31 30.54,-12.31 11.78,0 21.71,4 29.71,12.03 8.03,8 12.03,17.87 12.03,29.63 0,1.2 -0.14,3.09 -0.39,5.7zm63.45 -44.36l0 32.1c-4.28,0 -7.23,0.81 -8.81,2.39 -1.61,1.61 -2.61,4.78 -3.06,9.48 -1.42,15.67 -7.48,26.74 -18.2,33.18 -5.7,3.36 -13.79,5.06 -24.24,5.06l-4.22 0 0 -32.19 1.39 0c4.86,0 8.34,-1.03 10.45,-3.06 2.08,-2.03 3.28,-5.62 3.61,-10.7 0.42,-8.31 1.2,-14.18 2.31,-17.54 1.11,-3.36 3.39,-6.7 6.78,-10.01 5.98,-5.81 14.23,-8.73 24.79,-8.73l9.2 0zm74.21 43.52c5.31,0 9.89,1.92 13.7,5.78 3.84,3.86 5.75,8.45 5.75,13.76 0,5.34 -1.89,9.84 -5.7,13.56 -3.81,3.72 -8.39,5.59 -13.76,5.59 -5.62,0 -10.2,-1.81 -13.81,-5.42 -3.61,-3.61 -5.42,-8.2 -5.42,-13.81 0,-5.42 1.86,-10.03 5.61,-13.79 3.75,-3.78 8.28,-5.67 13.62,-5.67zm0 -46.36c5.31,0 9.89,1.92 13.7,5.78 3.84,3.86 5.75,8.45 5.75,13.76 0,5.34 -1.89,9.84 -5.7,13.56 -3.81,3.72 -8.39,5.59 -13.76,5.59 -5.62,0 -10.2,-1.81 -13.81,-5.42 -3.61,-3.61 -5.42,-8.2 -5.42,-13.81 0,-5.42 1.86,-10.03 5.61,-13.79 3.75,-3.78 8.28,-5.67 13.62,-5.67z"/>
 </g>
</svg>
