<svg xmlns="http://www.w3.org/2000/svg" viewBox="0 0 114.62 119.78"><defs><style>.cls-1{fill:#575756;}</style></defs><g id="Слой_2" data-name="Слой 2"><g id="EVF11101"><path class="cls-1" d="M90.42,114.72A3.44,3.44,0,0,1,91.6,114,21,21,0,0,0,97,110.89a14.94,14.94,0,0,1,1.7-1,33.22,33.22,0,0,0,3.72-2c3.42-2.42,6.72-5,10.12-7.41,1.14-.81,1.44-2.06,2-3.16a1,1,0,0,0-.2-.91c-1-1.21-2-2.4-3-3.56-.29-.32-.85-.43-1.16-.76-1.6-1.65-3.17-3.33-4.91-4.87-1.4-1.26-2.45-2.94-4-4.22-1.17-1-2.17-2.23-3.29-3.28s-2.6-2.19-3.76-3.4c-2.06-2.15-4-4.39-6-6.59-.23-.24-.49-.44-.73-.68-1.82-1.76-3.77-3.43-5.44-5.34-2.11-2.42-4-5-6-7.54-1.69-2.19-3.26-4.46-4.93-6.64-3.7-4.76-6.89-9.9-11-14.34a49,49,0,0,0-3.55-3.65,37.2,37.2,0,0,1-4.75-5.22Q42.51,13.69,33.18,1C32.26-.23,31.94-.28,30.63.6c-.16.11-.32.21-.46.32C26,4.18,21.56,7,17.62,10.51a38.69,38.69,0,0,0-4.27,3.93A39.35,39.35,0,0,0,8.8,20.37c-1,1.74-1.78,3.52-2.68,5.28a41,41,0,0,0-2.49,7.29c-.75,2.62-1.44,5.28-2.39,7.85A21.32,21.32,0,0,0,.13,50.48c.18,1.92.38,3.84.42,5.77A8.62,8.62,0,0,0,1.09,59c.71,1.93,1.44,3.86,2,5.85,1.06,3.65,2,7.34,3.05,11,.52,1.87,1.08,3.73,1.74,5.54s1.33,3.33,2.05,5c.58,1.28,1.23,2.52,1.84,3.78L23.16,105.5c1.57,1,3.18,2,4.66,3.13a10.21,10.21,0,0,0,3.33,1.85,20.76,20.76,0,0,1,6.27,3c2.39,1.68,5.22,2.62,9.33,3.37a2.41,2.41,0,0,1,.81.2,14.8,14.8,0,0,0,6.85,1.78c3.33.15,6.64.61,10,.93a8.27,8.27,0,0,0,1.11-.07,16.93,16.93,0,0,1,3.23-.25,19.38,19.38,0,0,0,5.64-.28c2.09-.36,4.18-.64,6.28-1a28.29,28.29,0,0,0,2.87-.64c1.18-.34,2.34-.77,3.51-1.12A8.93,8.93,0,0,0,90.42,114.72Zm-3.23-.16-.06,0v-.09Zm11.7-8.38a1,1,0,0,1,.07.24s-.08,0-.13.07l-.1-.26Zm1.93-.94-.09,0,.06,0Zm3.29-3-.09,0,.06-.08Zm2.08-1.53h-.09l.05-.07Zm.94-.9-.06,0,0-.1Zm1.15-.78s0,.08,0,.12a.49.49,0,0,1-.12-.13.38.38,0,0,1,.07-.08S108.27,99,108.28,99Zm1.14-1a1.57,1.57,0,0,1-.13.23s-.12,0-.17,0a1.2,1.2,0,0,1,.13-.21A.34.34,0,0,1,109.42,98ZM77,59.09c.07,0,.13.14.19.2,1,1.16,2,2.26,2.92,3.47a39.68,39.68,0,0,0,7,7.36,7.52,7.52,0,0,1,.72.67c2,2.2,3.93,4.44,6,6.58,1.3,1.36,2.79,2.52,4.17,3.78.23.21,1,.48-.08.65-.52.09-.53.73,0,.92,2.17.77,3.64,2.44,5.23,4,.17.16.36.31.54.45.45.36.88.69.49,1.42-.12.23.18.68.28,1a1.17,1.17,0,0,0,0,.27,1.75,1.75,0,0,1-.74,2.1,38.13,38.13,0,0,1-6,3.82c-.58.32-1.1.74-1.65,1.11a1.64,1.64,0,0,1-2.46-.35c-.85-1.18-2-2.17-2.23-3.74a1.78,1.78,0,0,0-.41-.73,13.39,13.39,0,0,1-2.55-5.15,7.27,7.27,0,0,0-.75-1.67c-.64-1.41-1.2-2.87-1.94-4.23-1.21-2.18-1.77-4.68-3.28-6.72a4.78,4.78,0,0,1-.35-.76,33.88,33.88,0,0,0-2.23-4.26A23.86,23.86,0,0,1,76.55,62a8.51,8.51,0,0,0-.78-2c-.22-.43-.19-.77.22-.93A2.5,2.5,0,0,1,77,59.09Zm9.15,41.27a1.23,1.23,0,0,0,.1.56c.14.43.56,1,.41,1.28a5.07,5.07,0,0,1-1.34,1.21c-.18.16-.39.29-.57.43-.34.26-.6.5-.67-.23a6.16,6.16,0,0,0-.55-1.88c-.12-.24-.57-.35-.87-.51a5,5,0,0,0,0,.86c.07.52.21,1,.31,1.52.26,1.42-.17,2-1.51,2.51s-2.72,1.19-4.09,1.78a10.66,10.66,0,0,1-5.14.67c-1.94-.15-3.85-.59-5.78-.81-1-.12-1.31-.84-1.8-1.47a1.91,1.91,0,0,1-.58-2,11,11,0,0,0,.15-2.25c.09-.78.22-1.56.34-2.35.17-1.11.33-2.23.55-3.34.57-3,1.11-6,1.77-9s1.56-6.18,2.29-9.28c.79-3.29,1.51-6.6,2.3-9.89.37-1.52.85-3,1.22-4.5.2-.78.25-1.57.4-2.36,0-.21.26-.38.4-.56.16.16.43.28.47.46.95,3.42,3.16,6.2,4.59,9.38.69,1.54,1.75,2.91,2.49,4.42a34,34,0,0,1,1.88,4.71c.55,1.75.87,3.57,1.36,5.33.65,2.38,1.31,4.75,3.06,6.62a4.21,4.21,0,0,1,1,2.44,9.83,9.83,0,0,0,.76,2.72,3,3,0,0,1,.12,1.92,1.17,1.17,0,0,0,0,.27,10.76,10.76,0,0,1-.71,1.35,4.32,4.32,0,0,1-.86.73,3.93,3.93,0,0,0-.38-1,3.5,3.5,0,0,0-.79-.62C86.35,99.8,86.22,100.07,86.16,100.36ZM62.6,103.49a2.63,2.63,0,0,1,0-.49c0-.13.17-.22.26-.32l0-.09v.08c0,.14.12.32.07.42A2,2,0,0,1,62.6,103.49Zm3.69-19.17v-.08c.1-.32.21-.66.33-1l-.09-.63,0-.08v.08c0,.21.07.43.11.64-.12.32-.23.66-.34,1Zm.82-3.18a2,2,0,0,1-.1-.26c.08-.2.18-.4.27-.59l0-.08v.08c-.09.2-.18.39-.26.59A1.38,1.38,0,0,0,67.11,81.14Zm.65-2.51v-.08c0-.14,0-.27,0-.4s0-.27.07-.4,0-.26.06-.41L68,77c0-.14,0-.27.06-.4s0-.27,0-.4a1.34,1.34,0,0,0,.09-.26,2,2,0,0,1,0,.26c0,.13,0,.28-.06.4s0,.26-.06.41,0,.26-.06.39a2.57,2.57,0,0,1-.07.4,2.76,2.76,0,0,1-.06.4c0,.13,0,.26,0,.4Zm.69-3.6a1.66,1.66,0,0,1,0-.33c.13-.44.28-.87.42-1.3,0-.26.08-.53.13-.8l.06-.38,0-.07v.08c0,.12,0,.25-.06.38L69,73.4c-.07.46-.13.92-.22,1.36C68.71,74.86,68.54,74.94,68.45,75Zm16,6.16a2.61,2.61,0,0,1,.31.43c0,.07,0,.17,0,.27.84,1.83,1.71,3.66,2.54,5.5a1.66,1.66,0,0,1,0,.67c-.11-.15-.27-.28-.37-.43a13.27,13.27,0,0,1-2.23-5.74,1.69,1.69,0,0,1-.1-.27ZM71.2,61.08c-.34,1.72-.74,3.42-1.24,5.08-1,3.34-2.14,6.65-3.16,10a17.52,17.52,0,0,0-.25,1.79c-.47,2.26-1.09,4.49-1.45,6.75-.33,2-.33,4-.57,6.07A37,37,0,0,1,62.45,100a2.92,2.92,0,0,1-.85,1.1c-.79.67-1.66,1.25-2.51,1.88-.6.46-1.21.9-1.83,1.36a4.56,4.56,0,0,1-4.45,1A41,41,0,0,1,46,102.71a2.78,2.78,0,0,1-.92-.85C44,100.34,43,98.8,42,97.28c-.15-.22-.43-.35-.62-.55S41,96.4,41,96.24a2.68,2.68,0,0,1,1.08-2.57c1.78-1.14,2.92-2.93,4.16-4.58a23.75,23.75,0,0,1,3.45-3.91,12.83,12.83,0,0,0,1.65-2.11c.55-.7,1.12-1.39,1.67-2.09.79-1,1.54-2,2.35-3,1.55-1.83,3.16-3.61,4.71-5.46a11.78,11.78,0,0,0,1.72-2.39,25.29,25.29,0,0,1,3.41-4.62c.87-1.12,1.61-2.34,2.54-3.4a10.23,10.23,0,0,1,2.33-1.84C70.9,59.8,71.39,60.15,71.2,61.08ZM38.63,89.39c-1.47,1.46-3.21,1.11-4.93.75a7.85,7.85,0,0,1-2.17-.94c-.7-.37-1.34-.89-2-1.3A10.66,10.66,0,0,1,26,84.27c-.44-.62-.9-1.22-1.36-1.83-.17-.23-.33-.56-.56-.62-1.49-.4-1.45-1.77-1.89-2.86a14.93,14.93,0,0,1-.83-4.14,1.18,1.18,0,0,1,.86-1.41c1.21-.4,2.43-.74,3.65-1,2.16-.53,4.33-1,6.46-1.56q4.31-1.17,8.53-2.55c1.19-.38,2.31-1,3.47-1.48,3.68-1.59,7.34-3.2,11-4.74,2.08-.87,4.22-1.61,6.31-2.46.44-.17.81-.52,1.24-.71,1.22-.58,2.45-1.18,3.72-1.65.31-.11.86.19,1.19.45s.19.69-.12,1.06a30.58,30.58,0,0,1-5.05,5.12,6.76,6.76,0,0,0-1,1c-1.39,1.65-2.79,3.3-4.17,5-.47.58-.89,1.2-1.4,1.74-.89,1-1.91,1.82-2.76,2.82s-1.72,2.25-2.58,3.37c-1.57,2.06-3.09,4.16-4.77,6.15-1.16,1.36-2.29,2.72-3.33,4.2a7.5,7.5,0,0,1-2.46,1.58c-.08.06-.35-.06-.41-.18C39.38,88.94,39,89.06,38.63,89.39ZM32.05,69.17a9,9,0,0,1,.85-.37c3.11-1.08,6.23-2.12,9.34-3.24,1.82-.65,3.53-1.61,5.38-2.1,2.41-.63,4.44-2,6.7-2.93,1.47-.61,3-1.24,4.43-1.82,0,0,.19.12.21.23.11.45-.25.49-.56.62-1.7.71-3.4,1.42-5.09,2.15-2.28,1-4.55,2-6.83,3-1,.43-2,.79-3,1.19a71,71,0,0,1-8,2.73c-1.1.3-2.15.69-3.24,1a3.07,3.07,0,0,1-.68,0Zm-2.92,1.29,0-.06.09,0Zm-1.45.36h-.09l.06-.06ZM21.5,72.55l-.09,0,.06-.08Zm24.65,13.1a31.58,31.58,0,0,1,2.83-4c1.5-2,3-4,4.58-5.93,1-1.26,2.28-2.36,3.37-3.59s2.16-2.58,3.25-3.88c.28-.32.58-.61.84-.94.5-.61.93-1.26,1.44-1.86a3.68,3.68,0,0,1,1.06-.86c.16-.08.5.12.76.19a4.52,4.52,0,0,1-.34.57,42.16,42.16,0,0,0-3.36,4.53,33.52,33.52,0,0,1-4.18,5.29,32.78,32.78,0,0,0-4,5.05c-.11.2-.36.31-.51.49A29.08,29.08,0,0,0,50,83a12.13,12.13,0,0,1-2.22,2.54,16.81,16.81,0,0,0-2.28,2.66c-1.09,1.37-2.13,2.76-3.22,4.13a4.83,4.83,0,0,1-.91.69c-.31.06-.66.91-1.17.32s.35-.79.63-1.16c.58-.73,1.15-1.47,1.75-2.19a18.2,18.2,0,0,1,1.3-1.47A11.1,11.1,0,0,0,46.15,85.65Zm25-34.59c.73,1.06,1.52,2.07,2.28,3.11h0c.77,1,1.53,2.06,2.28,3.09.25.33.27.6-.23.72s-.71.24-1.07.35c-1.93.61-2.13.53-3.43-1-.23-.27-.57-.61-.88-.63-.86-.05-1.1-.33-.62-1.07a1.17,1.17,0,0,0-.17-1.55,4.39,4.39,0,0,1-.42-.57,1.43,1.43,0,0,1,.32-2.23c.17-.15.39-.27.56-.42C70.29,50.41,70.71,50.44,71.14,51.06Zm-7.45,2.2a20.22,20.22,0,0,1,3.13,1.31c-.2.23-.28.38-.38.42L63,56.14c-3.19,1.09-6.37,2.26-9.48,3.54-1.34.56-2.55,1.41-3.87,2-.94.43-2,.68-2.93,1L38,65.83c-.76.28-1.5.57-2.26.84-2.2.81-4.39,1.71-6.64,2.4a12.13,12.13,0,0,1-5.46.47c-.7-.1-1.41-.07-2.12-.13a1.43,1.43,0,0,1-.38-.13c.08-.1.15-.25.25-.28.68-.23,1.35-.42,2-.63,1.8-.53,3.6-1.05,5.4-1.62.51-.15,1.29-.37.93-1.08-.27-.55-.89-.13-1.38,0-1.43.49-2.87.94-4.32,1.37-1,.31-2,.54-3,.83a1.51,1.51,0,0,1-2.06-.65A27.86,27.86,0,0,1,17,64.38a46.4,46.4,0,0,0-2.74-4.78A2.38,2.38,0,0,1,14,57.43c.54-1.57.17-3.18-.05-4.78a39.35,39.35,0,0,1-.52-4.33A3.4,3.4,0,0,1,15,44.93a4.81,4.81,0,0,0,.57-.44,2.59,2.59,0,0,1,2.76-.59,67,67,0,0,0,7.06,1.32c1.07.2,2.11.48,3.17.7l8.74,1.73c2.19.44,4.35.89,6.51,1.34a32.4,32.4,0,0,1,5.51,1.24c1.47.57,3,.38,4.44.74a17.47,17.47,0,0,0,3.17.26,7.74,7.74,0,0,1,3.67,1A10.2,10.2,0,0,0,63.69,53.26Zm2.19-2.57c.06.11.1.25.16.38a1.46,1.46,0,0,1-.39.09c-1-.09-2-.19-2.92-.31a12.47,12.47,0,0,1-1.38-.27c-2.2-.51-4.48-.45-6.69-.85A47.42,47.42,0,0,1,49.57,49c-3.16-.92-6.44-1.41-9.66-2.08-.09,0-.21,0-.28,0-1.58-1.07-3.5-.49-5.19-1.06-.31-.11-.67-.07-1-.19l-5.92-2.3-.39-.06-.4-.06c-.13,0-.26,0-.4-.06l-.08,0h.08c.13,0,.27,0,.4.06a2.9,2.9,0,0,1,.41.06l.4.05c.19,0,.42,0,.54-.05a5.1,5.1,0,0,0,.61-.7c-.26-.17-.49-.44-.76-.5-1.11-.21-2.23-.41-3.35-.56-1.81-.22-3.4-1.1-5.11-1.64-.22-.08-.43-.31-.63-.28-.44.06-.84.38-1.25-.19a3,3,0,0,1-.81-1.91c.15-2.06.26-4.13.51-6.18A7,7,0,0,1,20.46,26,29.72,29.72,0,0,1,26,23.14a1.06,1.06,0,0,1,1.37.28,7.23,7.23,0,0,0,1.54,1c1,.65,2.08,1.28,3,2,1.71,1.35,3.41,2.7,5,4.19,1.32,1.25,3,1.87,4.47,2.94.67.49,1.37.93,2.05,1.4,1.5,1,3,2,4.5,2.94,1.15.72,2.35,1.39,3.53,2.06a8.48,8.48,0,0,1,1.1.63c1.89,1.46,3.77,3,5.64,4.46.07.06.14.15.23.17,1.59.47,2.66,1.74,4,2.63s2,2,3.31,2.62A.9.9,0,0,1,65.88,50.69Zm-38-29.07a2.45,2.45,0,0,0,.74.43,2.44,2.44,0,0,1,1.61,1.05,6.53,6.53,0,0,0,1.32,1.06c.62.43,1.24.84,1.88,1.25l8,5.07a9.17,9.17,0,0,1,1.49,1,35.16,35.16,0,0,0,5.75,4.06,13.45,13.45,0,0,1,3.62,3.35l.42.25a1.41,1.41,0,0,1-.22-.06L52.28,39c-1.32-.71-2.67-1.38-3.94-2.15-1.62-1-3.2-2-4.76-3-.91-.59-1.72-1.31-2.65-1.83-3.11-1.74-5.7-4.15-8.42-6.38A39.44,39.44,0,0,0,29,23.24c-.23-.16-.55-.26-.69-.48A7.64,7.64,0,0,1,27.91,21.62ZM53.68,40.08a5.1,5.1,0,0,1,1.11.46c.2.13.3.43.53.77a3.8,3.8,0,0,1-.42-.15c-.18-.14-.35-.3-.52-.45Zm3.44,2.67,0,.1-.08-.07ZM36.42,10.6c.68.13,1.43.24,1.93-.49a.29.29,0,0,1,.31,0,9.24,9.24,0,0,1,.61.79l6.36,8.59q2.7,3.68,5.42,7.32a61.72,61.72,0,0,0,5.28,5.9c2.26,2.33,4.73,4.49,6.57,7.21,1.74,2.56,3.66,5,5.47,7.48.3.41,1,.77.55,1.44s-1,.69-2,.35c-1.81-.69-3.11-2.09-4.68-3.12-.34-.23-.66-.53-1-.79a4.53,4.53,0,0,1-1-.79c-1.34-1.85-3.41-2.94-4.83-4.72a1.66,1.66,0,0,0-.76-.59,4.54,4.54,0,0,1-2.33-1.79,20,20,0,0,0-4.6-3.72,25.47,25.47,0,0,1-4.1-2.95,22.11,22.11,0,0,0-3.18-2.09c-1.18-.84-2.27-1.78-3.4-2.69-.71-.56-1.39-1.15-2.08-1.7l-4.18-3.37a8.22,8.22,0,0,1-.67-.49,6.65,6.65,0,0,1-1.47-1.64c-.92-2.07-.56-3.46,1.2-5,1-.86,2.11-1.61,3.18-2.38A4.27,4.27,0,0,1,36.42,10.6ZM25.35,6.44a1,1,0,0,1,.26-.14.6.6,0,0,1-.09.18,1.71,1.71,0,0,1-.23.13C25.31,6.55,25.31,6.48,25.35,6.44ZM23.88,7.89s-.05-.15-.07-.22l.4-.09c0,.12,0,.21-.08.24A.32.32,0,0,1,23.88,7.89Zm4.33-1.43a.82.82,0,0,1,.25-.14.6.6,0,0,1-.09.18c-.07,0-.15.08-.23.13S28.16,6.5,28.21,6.46ZM22.07,8.92a1,1,0,0,1,.39-.14s.09.1.14.17a4.11,4.11,0,0,0-.49.27C22.08,9.05,22,8.92,22.07,8.92ZM20.8,10.45c.05-.09.08-.21.16-.26s.16.06.24.09l-.17.2Zm-3.7,1.76s.07,0,.12-.05a.31.31,0,0,1,0,.1l-.11.07S17.08,12.23,17.1,12.21Zm2.49-.52a.67.67,0,0,1,.18-.25s.14.05.21.1l-.15.17Zm-4,2,.22-.14s0,.08,0,.11a.21.21,0,0,1-.11.08S15.62,13.72,15.59,13.71Zm2.63-.91s.09,0,.14,0l-.12.08h-.09S18.18,12.8,18.22,12.8Zm-1.46,1.65c0-.09.08-.17.11-.26,0,.08,0,.17-.07.26a2.58,2.58,0,0,1-.08.26ZM20,14.17s0-.09,0-.13a.45.45,0,0,1,.14.1s0,.06-.05.09A.6.6,0,0,1,20,14.17ZM12.59,17l.06-.07,0,0Zm2.13-.55h.1l-.07.06Zm4.06-1.22.09,0-.05.09ZM12.1,17.7h.09l-.06.07Zm-1.23,1.52c.06-.06.18-.06.27-.08a4.35,4.35,0,0,1-.32.43,4.29,4.29,0,0,1-.43.24A7.19,7.19,0,0,1,10.87,19.22Zm3.39-.68a1.17,1.17,0,0,1,.16-.36s.11,0,.27,0c-.13.19-.21.33-.32.46Zm2.57-1.14.1,0-.06.08Zm-7.21,4c0-.07.12-.09.19-.13s0,.19,0,.25a1.25,1.25,0,0,1-.3.25A1.73,1.73,0,0,1,9.62,21.42Zm3.32-1.49s.18.1.28.13a4.73,4.73,0,0,1-.4.54s-.12-.07-.24-.15C12.7,20.27,12.81,20.1,12.94,19.93Zm-1.45,2.13.22-.12s0,.07,0,.09a.26.26,0,0,1-.11.08S11.52,22.08,11.49,22.06ZM8.34,23.42s.19,0,.3,0c-.1.23-.18.49-.3.72,0,.05-.15.06-.23.1C8.18,23.94,8.25,23.67,8.34,23.42ZM5.88,32.57l.44-.8c.07,0,.18.1.19.13-.09.28-.22.56-.32.84Zm-.47,1.8a1.53,1.53,0,0,1,.17-.27l.15.06c-.09.25-.17.51-.27.73a1.6,1.6,0,0,1-.22.31C5.3,34.92,5.35,34.64,5.41,34.37Zm1.4.34s.15-.06.24-.1c0,.32,0,.64.06.83l-.54.19C6.65,35.33,6.71,35,6.81,34.71ZM4.15,37.5l.28-.45,0-.08v.08a1.72,1.72,0,0,1-.09.52c-.07.13-.23.21-.35.31C4.06,37.75,4.1,37.62,4.15,37.5ZM6,37.71c0-.13,0-.27,0-.4l0-.08v.08c0,.14,0,.27-.06.4l0,.08ZM3,40.94c.1-.19.19-.39.29-.6a2.07,2.07,0,0,0,0-.37c0-.13.05-.26.07-.39l0-.08v.08L3.42,40l-.06.39L3.07,41,3,41Zm-1,2.5c.09-.2.17-.39.26-.58s.07-.16.11-.25c0,.09-.05.18-.08.27s-.17.38-.26.56l0,.08Zm1.42-.08a2.35,2.35,0,0,1,.29-.49l0-.08v.07a4.11,4.11,0,0,1,.06.69c0,.07-.22.13-.34.18A1.2,1.2,0,0,1,3.48,43.36Zm2.05,0,0-.08v.08l0,.08ZM3.29,46.06l-.18-.94.29,0c0,.31.05.63.06.94C3.46,46.05,3.29,46.06,3.29,46.06Zm3.2.5,0-.08v.08l0,.08ZM2,49.14c0-.13,0-.26,0-.39l0-.07v.07c0,.14,0,.27-.06.4l0,.07Zm2.34-.66.06-.41,0-.07v.08c0,.13,0,.27-.06.4l0,.08ZM1.59,52a3.2,3.2,0,0,1-.06-.81c0-.12.15-.22.24-.33.09.12.27.23.29.35a11.87,11.87,0,0,1-.12,1.21C1.73,52.2,1.6,52.12,1.59,52Zm3.48,0C5,51.82,5,51.63,5,51.45c.07,0,.14,0,.24,0,0,.23,0,.44,0,.66C5.17,52.07,5.07,52,5.07,52ZM5,54.7c0-.31-.06-.62-.07-1l.23,0c0,.35.08.7.13,1.06C5.09,54.74,5,54.73,5,54.7ZM1.74,57.17a4.1,4.1,0,0,1,.11-.61c.08,0,.16.07.29.12,0,.21-.09.41-.13.63C1.92,57.26,1.75,57.22,1.74,57.17Zm3.2-.32a1.78,1.78,0,0,1,.11-.52s.12,0,.24,0L5.1,57C5,56.93,4.94,56.89,4.94,56.85ZM2.7,60.06c-.1-.26-.18-.53-.26-.8a3.31,3.31,0,0,1,0-.45,2.9,2.9,0,0,1,.27.41c.1.26.14.53.22.8,0,.09,0,.17,0,.36A3.19,3.19,0,0,1,2.7,60.06Zm1.16-1.31.18,0,0,.26c-.06,0-.16,0-.16-.06A.71.71,0,0,1,3.86,58.75Zm1.45.71c0-.1-.07-.19-.1-.28v0A2.29,2.29,0,0,0,5.31,59.46Zm1.18-.55V59l0,.08V59ZM4.3,61.62l0,0,0,.1Zm2.34-.75.18-.06c0,.08,0,.17,0,.25l-.13.07C6.7,61,6.67,60.94,6.64,60.87Zm.11,6.19.09,0-.06.08Zm.49,1.33s0,.09,0,.12-.07,0-.11,0a.68.68,0,0,1-.06-.09ZM5.49,69,5.6,69s.07,0,.1,0,0,.09-.08.1S5.54,69.05,5.49,69Zm.36,1.87c0-.07,0-.16,0-.25l.27,0c0,.13,0,.25,0,.37C6,71,5.88,71,5.85,70.91Zm1.68-.65s.08,0,.1,0a.2.2,0,0,1,.08.1.23.23,0,0,1,0,.07A1.37,1.37,0,0,0,7.53,70.26Zm-1,2.47.06,0v.11Zm2,0c0-.09-.06-.16-.1-.24s-.08-.17-.11-.25a2.61,2.61,0,0,1,.23.24.69.69,0,0,1,0,.25l0,.08Zm1.36-.43a2.87,2.87,0,0,1-.17-.59,1.33,1.33,0,0,1,.19,0,5.8,5.8,0,0,1,.27.62Zm-2.61,3c0-.23-.05-.47-.08-.72.13,0,.35,0,.37.07a7.21,7.21,0,0,1,.15.9C7.42,75.45,7.26,75.42,7.23,75.34Zm1.57-.6a4.48,4.48,0,0,1,.06-.62c.1.06.28.11.3.2a3.62,3.62,0,0,1,0,.78C9,74.89,8.82,74.83,8.8,74.74Zm1.54-.66c-.06-.06,0-.24,0-.36a1.78,1.78,0,0,1,.61.17c.07,0,0,.29,0,.69A3.87,3.87,0,0,1,10.34,74.08ZM7.75,77.27c-.07-.13,0-.32,0-.49a1.58,1.58,0,0,1,.55.21c.07,0,0,.28,0,.59C8,77.43,7.81,77.39,7.75,77.27Zm1.7-.57c0-.14.09-.35.14-.53.13.1.32.18.38.31a3.69,3.69,0,0,1,0,.89C9.7,77,9.5,76.88,9.45,76.7Zm1.67-.6a.66.66,0,0,1,.19-.64,1.05,1.05,0,0,1,.75,0,12.57,12.57,0,0,1,0,1.52A6.17,6.17,0,0,1,11.12,76.1Zm-2.2,4.4a8,8,0,0,1-.37-1.07c-.05-.13,0-.31,0-.47a1.44,1.44,0,0,1,.35.4,10.77,10.77,0,0,1,.43,1.29C9.12,80.56,9,80.56,8.92,80.5Zm4.34-2.14c.07.12,0,.33,0,.68-.43-.05-.93,0-1-.15a1,1,0,0,1,.07-1C12.68,77.61,13,78,13.26,78.36Zm.38,1.71s.21,0,.36,0c0,.28,0,.48,0,.68a4.35,4.35,0,0,1-.51,0A4.11,4.11,0,0,1,13.64,80.07Zm-1.41,1a2.82,2.82,0,0,1-.2.86c-.23-.16-.44-.21-.44-.29a4.67,4.67,0,0,1,.07-.76C11.86,81,12.2,81,12.23,81.08Zm-2.74,1.3c-.06-.24-.07-.48-.11-.71.11,0,.3.06.32.15a4.32,4.32,0,0,1,.17.94C9.63,82.53,9.51,82.47,9.49,82.38Zm4.6-.42a2.37,2.37,0,0,1,.65,0,3.78,3.78,0,0,1-.34.56,1.58,1.58,0,0,1-.49.23l0-.43C14,82.21,14,82,14.09,82Zm-1.67.76c.11-.07.31,0,.63,0-.08.51-.14.88-.23,1.24-.05,0-.5,0-.55-.1C12.07,83.45,11.94,83,12.42,82.72Zm-1.76,2.64c-.17-.32-.35-.63-.52-1a1,1,0,0,1,0-.39s.08-.06.08-.05c.17.32.35.65.51,1a1.37,1.37,0,0,1,.11.36A.71.71,0,0,1,10.66,85.36Zm4-1.27a3.92,3.92,0,0,1,.37-.51c.06-.07.21-.06.57-.16a6.12,6.12,0,0,1-.58.66C15,84.14,14.82,84.09,14.69,84.09Zm-1.75,1.35a2.86,2.86,0,0,1,.24-.42c0-.06.21-.06.24,0s.12.31.2.49Zm-1.54.91.06-.08,0,.07ZM15.52,85a2.43,2.43,0,0,1,.51,0c0,.41,0,.71,0,1-.22-.1-.53-.18-.61-.36S15.45,85.27,15.52,85ZM13.63,86.5c.08,0,.22,0,.3.07a3.59,3.59,0,0,1,.18.6c0,.1-.06.22-.09.34-.07,0-.19-.05-.22-.11a2,2,0,0,1-.36-.59A.38.38,0,0,1,13.63,86.5Zm-1.88,1.85c.09-.42.13-.71.19-1,.22.07.58.06.65.19a2,2,0,0,1,0,.81Zm4.59-.88.06,0,0,.08Zm-1.8,1.2.12-.06a2.25,2.25,0,0,1,.12.21l-.12.05A1.32,1.32,0,0,0,14.54,88.67ZM13,89.84a.49.49,0,0,1,0-.38,2.91,2.91,0,0,1,.51,0c0,.16,0,.31,0,.63C13.27,90,13.1,89.93,13,89.84Zm2.81.54c.05.15.1.29.16.44a2.72,2.72,0,0,1-.29-.3,5.46,5.46,0,0,1-.27-.48Zm1.71-.9a.45.45,0,0,1,.1.09l0,.13s-.09,0-.11,0A1,1,0,0,1,17.55,89.48Zm-3.43,2.21a2.45,2.45,0,0,1-.17-.83l.82.29V92C14.54,91.92,14.24,91.87,14.12,91.69Zm4.4-.8c.1.08.21.15.3.23a3.69,3.69,0,0,1,.29.39,3.79,3.79,0,0,1,.25.56c0,.05-.07.2-.12.2s-.31,0-.34,0a4.4,4.4,0,0,1-.4-.85A1.37,1.37,0,0,1,18.52,90.89Zm-1.11,1.58c.11.09.29.12.36.22a1.37,1.37,0,0,1,.13.45,1,1,0,0,1-.33-.15,2.63,2.63,0,0,1-.34-.4c-.06-.1-.15-.29-.25-.48Zm-1.92,1.36c0-.38,0-.63-.05-.87a2,2,0,0,1,.74.39c.15.15.11.47.16.71Zm4.38-.65c.2,0,.5.07.56.19a2.78,2.78,0,0,1,0,.83c-.32-.13-.64-.19-.65-.28A2.45,2.45,0,0,1,19.87,93.18Zm-2.81,2.08a.86.86,0,0,0,.2-.13.18.18,0,0,1,0,.11.23.23,0,0,1-.1.07S17.08,95.28,17.06,95.26Zm1.58-.52v-.4c.07.06.16.1.18.16a1.36,1.36,0,0,1,.07.35A1.89,1.89,0,0,0,18.64,94.74Zm2.29,1c0-.09-.11-.22-.18-.34a1.06,1.06,0,0,1,.27.18,2,2,0,0,1,.15.37Zm-1.81,1.4-.21-.42a3.92,3.92,0,0,1,.56.33c.07,0,0,.19.06.3ZM20.4,99v-.85c.15.05.41.06.44.15a7,7,0,0,1,.24,1Zm1.71-1.76c.09,0,.21.06.25.13.16.25.29.51.52.92-.34-.11-.53-.11-.55-.19A6.78,6.78,0,0,1,22.11,97.22Zm1.58,2.12a1.16,1.16,0,0,1,0-.18l.11.09a.69.69,0,0,0,0,.13S23.7,99.36,23.69,99.34Zm-1.86,1.35c0-.14,0-.23-.06-.31a1.28,1.28,0,0,1,.35.06c.05,0,0,.17.05.25C22.05,100.69,21.94,100.7,21.83,100.69Zm3.38-.29.06,0,0,.1ZM23,102.3c0-.15,0-.23-.06-.32s.25,0,.34.07,0,.15.05.24Zm2.37.06a1.27,1.27,0,0,0,.11-.13s.06,0,.1.07-.05.07-.07.08A.36.36,0,0,1,25.39,102.36ZM24,103.51c0-.12,0-.3.11-.34a.39.39,0,0,1,.36,0c.07.06.06.23.11.46Zm3-.74a.77.77,0,0,1,.71,0c.11.1,0,.43.08.85l-1-.26C26.87,103.16,26.88,102.86,27,102.77Zm-1.5,1.81s0-.23,0-.35l.91.21-.13.5C26.07,104.82,25.79,104.72,25.53,104.58Zm3.1-.52c.05,0,.1,0,.14,0l-.11.08h-.11S28.6,104.07,28.63,104.06Zm.92.79a.63.63,0,0,1,.24,0s0,.11,0,.18l-.27,0S29.53,104.86,29.55,104.85ZM26.89,106a2,2,0,0,1,.33-.16l-.23.28-.29.15A1.85,1.85,0,0,1,26.89,106Zm.89,1.11a.57.57,0,0,1,0-.32,5,5,0,0,1,.72.07c-.1.22-.15.43-.2.45A2.14,2.14,0,0,1,27.78,107.14Zm1.55,1.2.11-.18a.54.54,0,0,0,0,.11s0,.07-.06.11ZM32,108a1.2,1.2,0,0,1-.23-.33c.21.1.44.16.64.28a4,4,0,0,1,.49.44A9.56,9.56,0,0,1,32,108Zm-1.28.89c-.05,0-.06-.13-.08-.2l.71.15c0,.18.08.29.1.39C31.15,109.15,30.92,109.05,30.67,108.92Zm3.24.33a2,2,0,0,1-.16-.36c.08,0,.21-.06.24,0a1.32,1.32,0,0,1,.2.33C34.06,109.22,33.93,109.27,33.91,109.25Zm-.95.62.09.06L33,110Zm4,.84a.87.87,0,0,1-.2-.15c.07,0,.14-.09.18-.07a.73.73,0,0,1,.17.18S37,110.73,37,110.71Zm1.63.83c-.05,0-.05-.13-.07-.2l.34.1a2.35,2.35,0,0,0,.1.22A2.65,2.65,0,0,1,38.63,111.54Zm2.06.88-.47-.17.1-.06.38.2.08,0Zm-1,1.07-.08,0h.08l.48.18a.43.43,0,0,0-.1,0Zm5.62.77c0-.05.15-.05.24-.08-.07.28-.14.58-.18.78s-.24.15-.31.19C45.14,114.85,45.22,114.55,45.31,114.26ZM52.58,116s.07-.07.09-.06a.27.27,0,0,1,.08.1.29.29,0,0,0-.06.11Zm6,1.1.15-.34c0-.11,0-.23-.05-.36l.23,0a3.23,3.23,0,0,1-.15.34,2,2,0,0,1,.05.35Zm23.11-5c-2,.61-4,1.15-6,1.62a56.7,56.7,0,0,1-7.47,1.48,23.94,23.94,0,0,1-6.92.15c-2.23-.44-4.5.13-6.74-.37-2.58-.58-5.2-.89-7.74-1.63a31.5,31.5,0,0,1-5.54-2.07c-2-1-3.9-2.07-5.8-3.18-1.17-.69-2.25-1.52-3.36-2.29a3.35,3.35,0,0,1-.61-.58,25.92,25.92,0,0,0-4.83-4.76,4.32,4.32,0,0,1-.83-1c-1.05-1.41-2.13-2.8-3.13-4.24-1.42-2-2.88-4-4.11-6.12a19.47,19.47,0,0,1-1.58-4.22,12,12,0,0,0-1.26-3.41,15.64,15.64,0,0,1-1.08-2.47,14.45,14.45,0,0,1-1.46-3.64c-.09-.63-.8-1.15-1.18-1.75a9.31,9.31,0,0,1-.81-1.48,68.44,68.44,0,0,1-3.2-11,39.82,39.82,0,0,1-.88-10.94c0-.61.19-1.2.21-1.8A44.21,44.21,0,0,1,9,37.47c.2-.65,0-1.42.18-2.1.34-1.57.69-3.15,1.18-4.66.71-2.22,1.46-4.42,2.35-6.54a11.81,11.81,0,0,1,4.24-5.53,11,11,0,0,0,2-1.81c1.59-1.67,3.14-3.37,4.74-5a20.72,20.72,0,0,1,2.1-2.09q3.53-2.86,7.11-5.65c.81-.63.86-.59,1.48.2,1,1.29,1.92,2.6,2.89,3.89.24.34.51.64-.24.65-1.33,0-2.65.11-4,.19A2.16,2.16,0,0,0,32,9.2c-1.47,1.11-3.18,2-4.26,3.52a13.35,13.35,0,0,0-2.21,3.9,4.55,4.55,0,0,0,.7,3.92c.39.5.31.71-.32.79a8.87,8.87,0,0,0-4.91,2c-1,.88-2.27,1.58-3.3,2.48a7.93,7.93,0,0,0-2.79,4.49c-.23,1.3-.32,2.63-.51,3.94a13.4,13.4,0,0,0,.95,6,3.55,3.55,0,0,0,.59,1c1,1.3.92,1.19-.38,2.16a22.47,22.47,0,0,0-2,1.55,3.1,3.1,0,0,0-1,1.5c-.49,2.4-1.11,4.77-.73,7.28a10.74,10.74,0,0,1-.06,2.53c-.21,2.22.84,4.24.95,6.41a2.16,2.16,0,0,0,.39,1c1.31,1.82,2.64,3.62,4,5.38.71.93,1.51,1.82,2.31,2.69a3,3,0,0,1,.75,2.35,14.21,14.21,0,0,0,1.27,6.29,4.54,4.54,0,0,0,.42.89c2.05,3,4.13,5.9,6.18,8.86a3.36,3.36,0,0,0,1.66,1.27c1.3.51,2.54,1.19,3.84,1.69,1.67.67,3.34,1.27,5.19.73a.77.77,0,0,1,.69.24c.22.34.5.81.41,1.14-.42,1.69.41,2.89,1.38,4.12,1.15,1.45,2.19,3,3.33,4.45.78,1,1.64,2,2.51,2.88a1.84,1.84,0,0,0,1,.32,12.8,12.8,0,0,1,2.92.15c1.69.54,3.33-.21,5,.11a2.58,2.58,0,0,0,1.83-.6c1.06-.68,2.23-1.24,3.32-1.85a1,1,0,0,1,1.46.4c.66.92,1.4,1.8,2,2.75A2.4,2.4,0,0,0,66.34,109a50.12,50.12,0,0,0,5.14.75,16,16,0,0,0,6.67-.78c1.49-.54,3.12-.79,4.56-1.45a43.86,43.86,0,0,0,4.38-2.57c1.41-1.22,2.72-2.32,4-3.49a5.08,5.08,0,0,0,.87-1.37,8.53,8.53,0,0,0,.47-1.18c.23-.58.57-.84,1.2-.58a4.16,4.16,0,0,0,3.67-.45,62,62,0,0,0,5.8-3.55,34.7,34.7,0,0,0,3.7-3.49c.25-.26.43-.55.75-.13a13,13,0,0,0,3.3,3.28c.07,0,0,.46-.06.53-2.12,1.42-3.28,3.79-5.26,5.31A27.78,27.78,0,0,1,99,104.05a36.72,36.72,0,0,0-6.84,3.34,49.13,49.13,0,0,1-6,3.18A29.4,29.4,0,0,1,81.73,112.11ZM97,107.21l.08.06-.06,0Zm-1,.81.08-.15a.3.3,0,0,1,.1.07s0,.06,0,.09Zm-19.45,6.77h.09l0,.07Zm1.76-.29a.55.55,0,0,1,.09-.14l.1.06-.07.09ZM80,114s0-.11,0-.18a.85.85,0,0,1,.25,0s0,.12,0,.19S80.05,114,80,114Zm11.15-3.18c0-.08.07-.17.13-.22s.14,0,.21,0,0,.23,0,.24A.82.82,0,0,1,91.14,110.8Zm5.33-1.5.1-.09c0,.06.1.11.14.18a.39.39,0,0,1-.09.08Zm-1.22.53.15.18-.09.08a1.22,1.22,0,0,1-.15-.17S95.22,109.86,95.25,109.83Zm-5.91,2.06a4.71,4.71,0,0,1,.73-.28c-.11.26-.14.43-.21.47a4,4,0,0,1-.6.11C89.28,112.09,89.27,111.93,89.34,111.89Zm-7.48,2.8a.64.64,0,0,1,0-.24,1.15,1.15,0,0,0,.17.06,1.13,1.13,0,0,1,0,.25S81.88,114.72,81.86,114.69Zm4.83-1.43.1,0-.07.08Zm1.28-.4.06,0v.1Zm5.39-1.42a1.77,1.77,0,0,0,0-.23h.14c0,.07,0,.15,0,.23Zm-1.64.67a1.87,1.87,0,0,1,.53,0c0,.12,0,.25,0,.48l-.64-.15C91.64,112.29,91.66,112.13,91.72,112.11Zm-13.09,4.64.1,0-.07.09Zm2.22-.37-.08,0h.08l.08,0ZM90,113.21l.44-.16c0,.1-.07.25-.14.28a7.38,7.38,0,0,1-.73.29Zm-4.65,2.25c0-.1,0-.26,0-.4a.9.9,0,0,1,.39.08c.06,0,0,.23,0,.43C85.58,115.52,85.39,115.53,85.35,115.46Z"/><path class="cls-1" d="M30.5,56.22c-.3,0-.48.07-.66.07-2.78.07-5.56.15-8.35.17a19.38,19.38,0,0,1-2.11-.28,11.77,11.77,0,0,0-2-.07c-.56,0-1-.09-1-.67s.57-.57.95-.61a3.59,3.59,0,0,1,1.13.07c3,.62,5.92.25,8.9.22.7,0,1.41-.1,2.11-.07a2,2,0,0,1,1,.45C30.58,55.58,30.5,56,30.5,56.22Z"/><path class="cls-1" d="M58.81,56.2,54.9,57.33c-.77.22-1.54.45-2.32.63a2.37,2.37,0,0,1-.83-.17l.28-.71a3.78,3.78,0,0,1,.65-.37l6-1.68c.18,0,.4-.15.54-.1a1.23,1.23,0,0,1,.61.48c.05.11-.17.43-.33.56A1.79,1.79,0,0,1,58.81,56.2Z"/><path class="cls-1" d="M43.13,59.34c-1.84.4-3.69.8-5.52,1.17a5.18,5.18,0,0,1-.88,0c.08-.32.17-.64.22-.79.32-.2.43-.32.56-.34,1.41-.38,2.82-.74,4.24-1.09a16.51,16.51,0,0,1,2.08-.38,1,1,0,0,1,.77.36c.25.37,0,.61-.39.73S43.48,59.26,43.13,59.34Z"/><path class="cls-1" d="M31.46,62.89c-1.37.35-2.75.65-4.12.94a2.09,2.09,0,0,1-.65,0c-.48-.53-.29-.93.38-1.08,1.06-.25,2.11-.45,3.17-.71s2-.58,3-.8a1,1,0,0,1,.93.27c.28.48-.2.61-.56.73C32.87,62.43,32.18,62.7,31.46,62.89Z"/><path class="cls-1" d="M43.72,61.61a2.66,2.66,0,0,1-.85,0,6.13,6.13,0,0,1,.35-.82c.07-.12.22-.18.34-.26l-.06-.14c1.27-.47,2.54-.94,3.82-1.39.75-.27,1.48-.58,2.24-.8.23-.07.5.07.75.12-.12.25-.16.65-.36.77a14.85,14.85,0,0,1-2.15,1.07C46.46,60.69,45.1,61.16,43.72,61.61Z"/><path class="cls-1" d="M21.1,59.05c-1.19.12-2.41.21-3.6.31-.37,0-.74.09-1.11.1a3.07,3.07,0,0,1-1-.07.5.5,0,0,1,0-1,15.78,15.78,0,0,1,1.81-.26L20,57.85a6,6,0,0,1,1.4,0c.17,0,.36.3.42.48s-.13.33-.2.48A2.14,2.14,0,0,1,21.1,59.05Z"/><path class="cls-1" d="M37.55,64.46c-1.09.28-2.18.54-3.26.84A1,1,0,0,1,33,64.69c-.18-.39,0-.73.38-.69,1.79.17,3.37-.56,5-1.07a2.79,2.79,0,0,1,.76,0,7.69,7.69,0,0,1-.27.81c-.06.11-.22.18-.55.42A6.16,6.16,0,0,1,37.55,64.46Z"/><path class="cls-1" d="M40.19,55.11c-.33,0-.59.13-.87.16-1.26.12-2.53.22-3.8.32a1.44,1.44,0,0,1-.41,0c-.43,0-1-.08-.91-.63,0-.25.48-.62.78-.63,1.59-.14,3.19-.19,4.78-.23a.71.71,0,0,1,.55.3C40.39,54.61,40.24,54.86,40.19,55.11Z"/><path class="cls-1" d="M21.41,62.62l-4.32.58a4,4,0,0,0-.62.2c.06-.55,0-.78.11-.87a1.83,1.83,0,0,1,.8-.56c1.43-.24,2.87-.45,4.31-.6a.76.76,0,0,1,.62.43c0,.17-.2.47-.38.65A1,1,0,0,1,21.41,62.62Z"/><path class="cls-1" d="M22.21,65.7q-1.23.3-2.49.51c-.17,0-.5-.1-.55-.24a.67.67,0,0,1,.18-.59,8.84,8.84,0,0,1,1.54-.69,15,15,0,0,1,2.18-.5,2.48,2.48,0,0,1,.88.22c-.1.28-.19.57-.26.8C23.11,65.41,22.66,65.59,22.21,65.7Z"/><path class="cls-1" d="M35.81,58.5c-1,.24-2.09.4-3.14.57-.11,0-.24-.11-.47-.19.08-.25.1-.57.25-.69a2.4,2.4,0,0,1,.9-.36,15.57,15.57,0,0,1,2-.37,1,1,0,0,1,.72.42C36.18,58,36,58.47,35.81,58.5Z"/><path class="cls-1" d="M28.24,59.84c-.94.13-1.87.28-2.81.36-.16,0-.41-.2-.51-.37s.07-.35.18-.47a3.9,3.9,0,0,1,3.24-.44c.19.13.22.48.33.72A2.81,2.81,0,0,1,28.24,59.84Z"/><path class="cls-1" d="M47.61,54.44a12.56,12.56,0,0,1-2,.32c-.23,0-.49-.23-.61-.28-.37-.5-.25-.93.18-1a19.77,19.77,0,0,1,2.18-.06,2,2,0,0,1,.68.33C47.87,54,47.79,54.39,47.61,54.44Z"/><path class="cls-1" d="M48.78,56.52a5.53,5.53,0,0,1-1.23.18,8.58,8.58,0,0,1-.88,0c.08-.31.17-.63.27-1a22.54,22.54,0,0,1,2.69-.48c.37,0,.55.41.23.71A2.9,2.9,0,0,1,48.78,56.52Z"/><path class="cls-1" d="M56.05,54.72a13.64,13.64,0,0,1-1.76.18c-.08,0-.28-.39-.23-.54A1.23,1.23,0,0,1,55.94,54C56.07,54.12,56,54.44,56.05,54.72Z"/><path class="cls-1" d="M76,93.82c-.14-.84-.23-1.68-.34-2.53-.27-2-.56-4-.78-6A3.31,3.31,0,0,1,75,83.94a.74.74,0,0,1,.65-.33.81.81,0,0,1,.46.63c-.17,2.89.78,5.64.93,8.49A11.47,11.47,0,0,1,77,94C76.47,94.49,76.06,94.32,76,93.82Z"/><path class="cls-1" d="M76.3,74.15a5,5,0,0,1-.69-.39.79.79,0,0,1-.24-.34c-.57-2.38-1.53-4.67-1.49-7.16a1.32,1.32,0,0,1,.6-.86.44.44,0,0,1,.74.44c-.33,2.42.8,4.6,1.09,6.91A8.12,8.12,0,0,1,76.3,74.15Z"/><path class="cls-1" d="M79.56,96c-.2,0-.49-.23-.63-.43a1.43,1.43,0,0,1-.12-.67A18.61,18.61,0,0,0,77.57,90a5.13,5.13,0,0,1-.29-1.23.81.81,0,0,1,.28-.68c.17-.1.46.11.72.19.2.64.37,1.22.52,1.8.4,1.54.8,3.09,1.18,4.64a1.85,1.85,0,0,1,.06.69C80,95.61,79.76,95.93,79.56,96Z"/><path class="cls-1" d="M77.32,84.17a.62.62,0,0,1-.58-.19,6.87,6.87,0,0,1-.57-1.57c-.27-1.29-.45-2.6-.72-3.88-.08-.41-.32-.79-.44-1.19a1.71,1.71,0,0,1,.06-.63,2.44,2.44,0,0,1,.72.16c.15.09.23.3.53.69a5.13,5.13,0,0,1,.26.78c.33,1.57.65,3.14,1,4.71a1.61,1.61,0,0,1,.06.57C77.57,83.82,77.48,84.11,77.32,84.17Z"/><path class="cls-1" d="M79.67,82.11c-.21-.12-.55-.2-.62-.38q-.64-1.73-1.17-3.48A14.23,14.23,0,0,1,77.42,76a.92.92,0,0,1,.42-.64c.12-.07.41.1.62.16.21.74.41,1.41.59,2.09.31,1.12.61,2.25.9,3.37,0,.14.14.3.11.41A3.85,3.85,0,0,1,79.67,82.11Z"/><path class="cls-1" d="M83.48,98.44c-.12-.14-.22-.31-.33-.45A.31.31,0,0,0,83,98c-.3-.69-.63-1.37-.87-2.07a8.11,8.11,0,0,0-1.24-3c-.12-.13,0-.48,0-.74.25,0,.58,0,.72.19A6,6,0,0,1,83,94.84a17.93,17.93,0,0,0,1.23,3c.13.33.55.66.13,1S83.72,98.71,83.48,98.44Z"/><path class="cls-1" d="M86.23,95.31a.53.53,0,0,1-.48-.12,3,3,0,0,1-.64-1.06A8.79,8.79,0,0,0,83.6,90.4c-.14-.17,0-.56,0-.85a2.83,2.83,0,0,1,.71.26,6.18,6.18,0,0,1,.6.8,11.18,11.18,0,0,1,1.59,4.14A.73.73,0,0,1,86.23,95.31Z"/><path class="cls-1" d="M82.46,85.37c-.28-.19-.67-.32-.8-.58a9.71,9.71,0,0,1-.59-1.72c-.22-.72-.44-1.45-.62-2.17a2.8,2.8,0,0,1,0-.76c.26.11.55.18.8.3s.18.22.45.58l.6,2a9,9,0,0,1,.37,1.49A2.85,2.85,0,0,1,82.46,85.37Z"/><path class="cls-1" d="M78.71,101.28c-.27-.11-.66-.15-.79-.35a5.33,5.33,0,0,1-.59-1.41c-.24-.85-.44-1.72-.63-2.59a3.53,3.53,0,0,1,0-.86c.26.11.54.21.8.34s.17.22.39.51c0,.11.17.41.26.72.23,1,.47,1.91.66,2.88A2.24,2.24,0,0,1,78.71,101.28Z"/><path class="cls-1" d="M88.1,98.87a6,6,0,0,1-.63-1.67c-.14-.72,0-1.5-.43-2.18-.1-.12,0-.41.06-.62.25,0,.57,0,.71.18a3,3,0,0,1,.89,2,12.39,12.39,0,0,0,.53,2.14,1.17,1.17,0,0,0,0,.27C88.79,99.23,88.34,99.38,88.1,98.87Z"/><path class="cls-1" d="M80.88,103.91l-.86-.38c-.22-1.23-.44-2.36-.61-3.52a.48.48,0,0,1,.92-.19c.27.75.48,1.51.68,2.28a4,4,0,0,1,.07,1A6.25,6.25,0,0,1,80.88,103.91Z"/><path class="cls-1" d="M81,88.75a2.37,2.37,0,0,1-.52-.65c-.47-.76-.92-1.53-1.33-2.31-.1-.2,0-.49,0-.75a2.37,2.37,0,0,1,.71.2,5.06,5.06,0,0,1,.68.9.19.19,0,0,1,.09,0c.36.7.74,1.4,1.07,2.12a.63.63,0,0,1-.11.61A.7.7,0,0,1,81,88.75Z"/><path class="cls-1" d="M73.8,75.77c-.2,0-.52-.19-.54-.35a18.75,18.75,0,0,1-.4-2.6c0-.18.33-.41.56-.54s.33.06.59.11c.06,1,.16,2,.18,3.06C74.2,75.56,73.92,75.78,73.8,75.77Z"/><path class="cls-1" d="M74.68,80.78a.63.63,0,0,1-.51-.34,22.77,22.77,0,0,1-.1-2.47c0-.17.27-.38.46-.46s.31.11.57.2c0,.9.07,1.76,0,2.63C75.14,80.51,74.86,80.76,74.68,80.78Z"/><path class="cls-1" d="M78.83,105.74c-.39-.15-.68-.18-.76-.32a1.9,1.9,0,0,1-.35-1.1c.06-.28.49-.51.78-.7.09-.06.46.09.45.15C79,104.37,78.89,105,78.83,105.74Z"/><path class="cls-1" d="M39.87,87.88A8.89,8.89,0,0,1,39,88a1.88,1.88,0,0,1,.23-.82c1-1.16,2.09-2.28,3.16-3.42.69-.76,1.41-1.51,2.14-2.24a1.41,1.41,0,0,1,.59-.4.55.55,0,0,1,.48.11.57.57,0,0,1,.08.49,3.13,3.13,0,0,1-.56.82c-1.51,1.6-3,3.21-4.58,4.8a2.56,2.56,0,0,1-.31.28C40,87.78,40,87.87,39.87,87.88Z"/><path class="cls-1" d="M56.3,68.15c-.06,0-.44,0-.51-.09s-.19-.68-.06-.82c.59-.66,1.3-1.23,1.93-1.86,1.09-1.09,2.17-2.21,3.25-3.33.34-.35.72-1,1.23-.57s-.1,1-.38,1.27C60.41,64.2,59,65.57,57.6,67,57.24,67.33,56.84,67.66,56.3,68.15Z"/><path class="cls-1" d="M30.46,85.91a.51.51,0,0,1-.49-.07.7.7,0,0,1,0-.6,7.65,7.65,0,0,1,.89-.91l4.09-4.06.05,0c.48-.3.95-.63,1.43-.91a.54.54,0,0,1,.48.14.57.57,0,0,1,0,.51,1.76,1.76,0,0,1-.5.48c-1.71,1.13-2.89,2.81-4.36,4.19A11.93,11.93,0,0,1,30.46,85.91Z"/><path class="cls-1" d="M41.87,82.21c-.42-.59.53-.83.87-1.2.74-.79,1.49-1.56,2.22-2.35s1.23-1.41,1.9-2.06c.18-.17.56-.13.86-.19,0,.29,0,.67-.13.85-1.35,1.56-2.73,3.09-4,4.52C42.84,81.9,42.42,83,41.87,82.21Z"/><path class="cls-1" d="M37.74,84.1a.44.44,0,0,1-.55-.69c1.3-1.4,2.64-2.78,4-4.18l.07,0a12,12,0,0,1,1.19-.76.68.68,0,0,1,.57.16c.07.06,0,.33,0,.49a.41.41,0,0,1-.19.2c-1.5.9-2.39,2.39-3.53,3.63A8.73,8.73,0,0,1,37.74,84.1Z"/><path class="cls-1" d="M51.51,70.38a3.23,3.23,0,0,1-.76,0c.06-.24,0-.56.21-.72a24.34,24.34,0,0,1,4.27-3.91,8.29,8.29,0,0,1,.84-.52.59.59,0,0,1,.49.15.65.65,0,0,1,0,.51.78.78,0,0,1-.29.31,19.21,19.21,0,0,0-3.84,3.53,2.13,2.13,0,0,1-.45.34A1.6,1.6,0,0,1,51.51,70.38Z"/><path class="cls-1" d="M35.09,89.78l-.87,0c0-.25,0-.58.11-.73q1.62-2,3.33-3.83c.15-.18.56-.09.86-.13,0,.26,0,.58-.11.75C37.34,87.11,36.26,88.4,35.09,89.78Z"/><path class="cls-1" d="M44.66,76.9c-.33.08-.84.28-1,.15-.39-.38.07-.65.33-.9l3.13-3c.18-.13.21-.17.26-.18.34-.2.7-.71,1.09-.25s-.18.72-.46,1c-1,1-2,2-3,2.94A.83.83,0,0,1,44.66,76.9Z"/><path class="cls-1" d="M49.56,74.5c0-.24,0-.57.14-.71.8-.79,1.64-1.53,2.42-2.24.45-.29.84-.57,1.25-.79.12-.06.45,0,.48.08s.1.52,0,.61c-1.16,1-2.32,2-3.53,3C50.15,74.59,49.82,74.49,49.56,74.5Z"/><path class="cls-1" d="M38.66,77.41c-.2.11-.51,0-.76,0,0-.25,0-.6.17-.71,1-.78,1.94-1.51,3-2.2.15-.1.47,0,.71.06-.07.24-.09.56-.25.71A18.34,18.34,0,0,1,40,76.42C39.58,76.74,39.14,77.12,38.66,77.41Z"/><path class="cls-1" d="M44.39,73.1c-.1.08-.42,0-.56-.17s0-.39.07-.49c.37-.35.78-.66,1.24-1,.34-.22.73-.5,1.15-.72a.49.49,0,0,1,.47.15c.09.11.1.42,0,.49C46,72,45.21,72.55,44.39,73.1Z"/><path class="cls-1" d="M32.07,87.93a.63.63,0,0,1-.61-.07.59.59,0,0,1,.05-.59c.74-.6,1.51-1.15,2.28-1.67a.59.59,0,0,1,.57.14.69.69,0,0,1-.12.6c-.35.32-.76.58-1.13.86h0A8.11,8.11,0,0,1,32.07,87.93Z"/><path class="cls-1" d="M49.67,48.13a8.09,8.09,0,0,1-1-.27c-1-.4-2-.9-3-1.23-1.22-.38-2.46-.61-3.7-1A9.84,9.84,0,0,1,40.12,45a.7.7,0,0,1-.22-.71.78.78,0,0,1,.68-.29c2.72,1,5.75,1.15,8.32,2.64a3,3,0,0,1,.79.76C49.79,47.52,49.68,47.79,49.67,48.13Z"/><path class="cls-1" d="M25.82,36.48a26.11,26.11,0,0,1-6.32-3,1.83,1.83,0,0,1-.27-.28c0-.13-.12-.46,0-.54a.87.87,0,0,1,.71-.16,6.77,6.77,0,0,1,1.64.81A17.39,17.39,0,0,0,25.5,35.1c.26.1.6.14.77.32a2.52,2.52,0,0,1,.3.85C26.31,36.35,26,36.55,25.82,36.48Z"/><path class="cls-1" d="M57.94,49.85l-5.07-1.67c-.4-.14-.8-.24-1.24-.37,0-.26,0-.48,0-.59a.85.85,0,0,1,.57-.37,2.9,2.9,0,0,1,.94.21l4.68,1.49c.18.05.43.06.54.17s.48.56.44.79C58.77,50,58.33,50,57.94,49.85Z"/><path class="cls-1" d="M33.63,42.3,32.86,42c-1.08-.47-2.13-1-3.24-1.39-.77-.28-1.63-.43-2.44-.64-.38-.1-.82-.27-.62-.71a1,1,0,0,1,.93-.35c1.52.44,3,1,4.53,1.46.6.2,1.33.25,1.57,1A4.36,4.36,0,0,1,33.63,42.3Z"/><path class="cls-1" d="M23.41,31.57C22.27,31,21.11,30.5,20,29.94c-.41-.21-.79-.5-1.37-.84.19-.28.31-.61.52-.68a1.24,1.24,0,0,1,.8.14c1.38.63,2.74,1.26,4.09,1.93.49.24,1.13.44,1,1.17C25,32.07,24.24,32,23.41,31.57Z"/><path class="cls-1" d="M36.63,45c-1.77-.45-3.52-.94-5.28-1.42-.12,0-.22-.17-.39-.32,0-.17-.09-.45,0-.58a.7.7,0,0,1,.59-.19q2.48.58,4.92,1.25a1.15,1.15,0,0,1,.56.39.62.62,0,0,1,.13.51C37.05,44.84,36.77,45.07,36.63,45Z"/><path class="cls-1" d="M33.78,39.18c-1.3-.61-2.62-1.24-3.92-1.89a2.89,2.89,0,0,1-.38-.33c0-.16-.13-.43,0-.58a.65.65,0,0,1,.57-.21c.61.24,1.18.56,1.78.83.8.39,1.63.71,2.4,1.14.27.15.58.63.52.87C34.6,39.5,34.14,39.35,33.78,39.18Z"/><path class="cls-1" d="M46.84,44.4a19.56,19.56,0,0,1-2-.79,10.22,10.22,0,0,1-1.31-.9c0-.29,0-.55-.06-.8a2.08,2.08,0,0,1,.74,0c1,.39,2,.83,3,1.27.5.24,1.23.47,1,1.16S47.31,44.57,46.84,44.4Z"/><path class="cls-1" d="M22.42,38.26c-.76-.28-1.52-.51-2.25-.82a12.36,12.36,0,0,1-1.41-.87c0-.31,0-.6,0-.89a3,3,0,0,1,.75.1c.93.35,1.84.73,2.75,1.11.25.11.59.17.74.37s.44.71.34.94C23.19,38.69,22.76,38.38,22.42,38.26Z"/><path class="cls-1" d="M39.27,42.09A1.55,1.55,0,0,1,38.18,42c-.32-.17-.73-.64-.67-.88.1-.52.61-.43,1-.25l1.23.5C39.57,41.68,39.46,42.05,39.27,42.09Z"/><path class="cls-1" d="M48.09,101.78c-.29,0-.56.06-.7-.06a.79.79,0,0,1-.14-.6,1.81,1.81,0,0,1,.22-.52c.83-2.1,1.64-4.2,2.52-6.27a28.48,28.48,0,0,1,1.53-3c.14-.22.62-.23.93-.34,0,.29.13.65,0,.89-1.36,2.59-2.11,5.42-3.25,8.08A15.24,15.24,0,0,1,48.09,101.78Z"/><path class="cls-1" d="M61,100.39c-.25,0-.52.12-.67,0a.73.73,0,0,1-.22-.59,11.12,11.12,0,0,1,.35-1.07A24.19,24.19,0,0,0,62,92.23a1.63,1.63,0,0,1,.27-.8,2.88,2.88,0,0,1,.65-.6c.16.3.51.6.48.88a22.47,22.47,0,0,1-.59,3.34c-.41,1.48-.93,3-1.42,4.41C61.26,99.77,61.1,100.05,61,100.39Z"/><path class="cls-1" d="M65.57,73.07c-.09,0-.24-.4-.19-.58.35-1.41.7-2.84,1.15-4.22a27.5,27.5,0,0,1,1.25-2.84,6.58,6.58,0,0,1,.58-.89c.29-.21.4-.33.53-.35s.5-.09.62,0,.11.43,0,.6c-.79,1.75-1.63,3.47-2.4,5.24A12,12,0,0,0,66.67,72a2.41,2.41,0,0,1-.37.9A1,1,0,0,1,65.57,73.07Z"/><path class="cls-1" d="M61.14,81.8c-.71-.07-.68-.8-.53-1.38.34-1.55.72-3.1,1.12-4.64a2.43,2.43,0,0,1,.45-.66c.27-.16.39-.28.52-.3s.44,0,.49,0a.7.7,0,0,1,.09.6,12.1,12.1,0,0,0-1.39,5.09C61.83,81.06,62,81.91,61.14,81.8Z"/><path class="cls-1" d="M57.78,91.31c-.12,0-.28-.27-.29-.43a2.66,2.66,0,0,1,.08-.83c.31-1.36.67-2.72,1-4.1a2.3,2.3,0,0,1,1.06-1.74c.19-.11.47,0,.83,0a2.39,2.39,0,0,1-.16.64,6,6,0,0,0-.83,2.82c-.2.91-.4,1.83-.65,2.72a1.61,1.61,0,0,1-.4.75A.76.76,0,0,1,57.78,91.31Z"/><path class="cls-1" d="M52.1,99.71a.51.51,0,0,1-.51,0,.61.61,0,0,1-.23-.46c.39-1.4.8-2.8,1.24-4.19a8.3,8.3,0,0,1,.58-1.42.69.69,0,0,1,1.24-.14,2.32,2.32,0,0,1-.07.65,15.07,15.07,0,0,0-1.5,4.4C52.81,99,52.39,99.36,52.1,99.71Z"/><path class="cls-1" d="M56.21,89.3c-.18,0-.46.12-.59,0a.73.73,0,0,1-.21-.59,5.07,5.07,0,0,1,.35-1.06,7.79,7.79,0,0,0,.88-3.12A4,4,0,0,1,57.2,83c.1-.19.53-.47.6-.42.23.17.58.53.52.72-.55,1.89-1.19,3.76-1.8,5.63C56.48,89,56.34,89.13,56.21,89.3Z"/><path class="cls-1" d="M60.42,93.88c-.14.08-.41-.06-.67-.11a2.15,2.15,0,0,1,0-.75c.79-1.38.72-2.93,1-4.41a1.52,1.52,0,0,1,.89-1.33c.41-.16.75.07.66.44-.4,1.87-.87,3.73-1.36,5.58A1.16,1.16,0,0,1,60.42,93.88Z"/><path class="cls-1" d="M57.15,102.87a2.67,2.67,0,0,1-.37-.68,1.53,1.53,0,0,1,.1-.69c.3-1.18.59-2.35.93-3.51a8,8,0,0,1,.52-1.3c.3,0,.62-.17.73-.07a.94.94,0,0,1,.3.7q-.75,2.58-1.59,5.11C57.71,102.63,57.36,102.73,57.15,102.87Z"/><path class="cls-1" d="M56.15,99.71c-.27,0-.55.07-.69,0a.78.78,0,0,1-.26-.6c.11-1.29.24-2.58.41-3.87a1.83,1.83,0,0,1,.35-.86.68.68,0,0,1,.61-.15c.12,0,.28.28.28.43-.09,1.39-.19,2.77-.33,4.15A3.4,3.4,0,0,1,56.15,99.71Z"/><path class="cls-1" d="M62.1,84.21c0-.28-.2-.61-.12-.85a25.92,25.92,0,0,1,1.17-2.57,2.62,2.62,0,0,1,.85-.87c.16-.11.49.06.83.12-.07.36,0,.69-.2.84a4.7,4.7,0,0,0-1.32,2.43,1.45,1.45,0,0,1-.47.68A2.2,2.2,0,0,1,62.1,84.21Z"/><path class="cls-1" d="M64.43,79a1.29,1.29,0,0,1-.57-1,4.05,4.05,0,0,1,1.43-2.38.87.87,0,0,1,.24-.15l.65,0c0,.25.09.57,0,.72a3.88,3.88,0,0,0-1,2.12C65.06,78.72,64.87,79.21,64.43,79Z"/><path class="cls-1" d="M52.55,103.49c-.58-.72-.11-2.48.47-2.65a.68.68,0,0,1,.49.13c.5.4.2.89.05,1.31a4.83,4.83,0,0,1-.73,1.11A.39.39,0,0,1,52.55,103.49Z"/><path class="cls-1" d="M55.21,104.69a2.53,2.53,0,0,1-.11-2.23c.1-.07.34-.12.38-.08a3.8,3.8,0,0,1,.71,1.11.93.93,0,0,1-.67,1.11C55.35,104.67,55.17,104.68,55.21,104.69Z"/><path class="cls-1" d="M50,102.92c0-.53,0-1.06,0-1.6h.68c.57.71.59,1.19.11,1.52C50.55,103,50.24,102.9,50,102.92Z"/><path class="cls-1" d="M45.22,29.47c-1.63-1.27-3.24-2.56-4.87-3.83-.77-.6-1.6-1.13-2.38-1.73a1.8,1.8,0,0,1-.51-.68.74.74,0,0,1,0-.62.7.7,0,0,1,.6,0c2,1.53,4,3.09,6,4.64.66.52,1.32,1,1.86,1.43.24.7,1.11,1.18.56,1.62C45.77,30.89,45.64,29.8,45.22,29.47Z"/><path class="cls-1" d="M35.05,22.56c-.21,0-.49,0-.63-.1C32.82,21,31.25,19.51,29.67,18a5.67,5.67,0,0,1-.34-.47c0,.05-.11-.08-.15-.23a2.29,2.29,0,0,1,0-.64c.24,0,.56,0,.72.09,1.19,1.07,2.38,2.16,3.52,3.28a17.93,17.93,0,0,1,1.69,1.89C35.21,22.06,35.08,22.34,35.05,22.56Z"/><path class="cls-1" d="M54.69,36.82c-1.52-1.31-3-2.64-4.7-4.11-.1-.35-.47-1.2-.34-1.29.82-.55.88.47,1.3.8,1,.74,1.95,1.46,2.86,2.27a10.44,10.44,0,0,1,1.43,1.73.48.48,0,0,1-.07.48C55.08,36.8,54.78,36.89,54.69,36.82Z"/><path class="cls-1" d="M39.59,18.12c-.27-.08-.64-.08-.8-.28-.61-.71-1.14-1.5-1.7-2.26S36,14.22,35.58,13.51c-.13-.2,0-.57,0-.86.24.09.58.09.7.27,1.13,1.45,2.23,2.94,3.31,4.44C39.69,17.54,39.59,17.86,39.59,18.12Z"/><path class="cls-1" d="M37.26,19.86a7,7,0,0,1-.83-.39q-1.78-1.47-3.54-3c-.29-.23-.65-.57-.28-.92a.92.92,0,0,1,.87-.11c1.24,1.08,2.44,2.2,3.6,3.34C37.24,19,37.18,19.34,37.26,19.86Z"/><path class="cls-1" d="M61.64,43.36c-1-.71-2.1-1.44-3.11-2.22a.74.74,0,0,1-.06-.72.83.83,0,0,1,.74-.13c1,.61,1.86,1.29,2.66,1.85a3.57,3.57,0,0,1,.36.63.62.62,0,0,1-.1.51A.49.49,0,0,1,61.64,43.36Z"/><path class="cls-1" d="M44.19,24.62c-.32.07-.75.21-1,.08-.74-.47-1.42-1-2.13-1.58-.12-.08-.28-.14-.33-.25a4.91,4.91,0,0,1-.21-.75c.24-.05.57-.23.72-.13,1,.61,1.93,1.28,2.93,2A3.52,3.52,0,0,1,44.19,24.62Z"/><path class="cls-1" d="M60.27,39.7c-.29,0-.69.14-.87,0-.71-.59-1.37-1.27-2.22-2.06,0-.27-.32-.91-.15-1.07.53-.5.75.21,1.06.49.66.59,1.34,1.16,1.95,1.8C60.21,39.05,60.2,39.42,60.27,39.7Z"/><path class="cls-1" d="M49.06,28.49,48,28.3c0-.49.05-.81.08-1.13a2.82,2.82,0,0,1,.88.46C49.09,27.83,49,28.2,49.06,28.49Z"/><path class="cls-1" d="M89.69,76.59c-.62-.78-1.18-1.6-1.77-2.39h0c-.59-.79-1.2-1.58-1.75-2.4-.13-.18-.06-.5-.07-.76.27.08.66.06.8.24.72.87,1.36,1.81,2.07,2.7.49.63,1.05,1.19,1.58,1.79.25.26.62.57.25.94S90,77,89.69,76.59Z"/><path class="cls-1" d="M97.92,91.31c-.27-.12-.63-.16-.81-.37-.54-.64-1-1.35-1.54-2s-1-1.27-1.41-2a2.22,2.22,0,0,1-.11-.87c.28.08.66.07.8.26,1.05,1.34,2.08,2.72,3.05,4.12C98,90.65,97.92,91,97.92,91.31Z"/><path class="cls-1" d="M100.18,90.26a5.47,5.47,0,0,1-.69-.88l-.06,0c-.5-.89-1-1.77-1.51-2.68-.1-.19,0-.48.06-.73.23,0,.49,0,.63.15a7.33,7.33,0,0,1,.85,1.12c.49.8,1,1.59,1.42,2.41.11.22,0,.57,0,.85C100.64,90.44,100.35,90.43,100.18,90.26Z"/><path class="cls-1" d="M91.77,82c-.24-.07-.57-.08-.71-.25-.43-.49-.8-1-1.2-1.58s-.76-1-1.08-1.48c-.12-.2,0-.51,0-.76.25,0,.6,0,.72.15.81,1,1.6,2.11,2.36,3.19C91.93,81.45,91.79,81.78,91.77,82Z"/><path class="cls-1" d="M95.49,84.56c-.18.06-.51.06-.6-.06-.47-.54-.87-1.12-1.29-1.69h0c-.43-.57-.87-1.12-1.25-1.71-.07-.13,0-.44.16-.59a.52.52,0,0,1,.49.06c.88,1.17,1.75,2.34,2.61,3.54C95.67,84.19,95.57,84.55,95.49,84.56Z"/><path class="cls-1" d="M103.3,89.74c-.68-.94-1.41-1.86-2.07-2.84-.13-.19,0-.55,0-.83.24.09.56.12.7.29.86,1,1.67,2.14,2.5,3.23a1.17,1.17,0,0,0,0,.27C104,90.09,103.65,90.21,103.3,89.74Z"/><path class="cls-1" d="M98.21,84.05c-.28,0-.69.13-.84,0a9.62,9.62,0,0,1-1-1.33,9.31,9.31,0,0,1-.9-1.26c-.09-.16,0-.46.08-.71.21.06.49,0,.62.16.33.34.55.75.87,1.1s.81.79,1.13,1.23C98.27,83.41,98.19,83.77,98.21,84.05Z"/><path class="cls-1" d="M83.06,67.85a.59.59,0,0,1-.6-.12,12.59,12.59,0,0,1-.95-1.23c-.27-.38-.58-.75-.82-1.15a.65.65,0,0,1,.06-.61.59.59,0,0,1,.6,0c.64.81,1.26,1.65,1.85,2.49A.63.63,0,0,1,83.06,67.85Z"/><path class="cls-1" d="M100.28,93.72a4.16,4.16,0,0,1-.48-.53,2.28,2.28,0,0,1-.28-.59c0-.15.21-.43.23-.43a5.67,5.67,0,0,1,1.15.59c.17.14.37.53.29.68C101,93.78,100.7,94,100.28,93.72Z"/><path class="cls-1" d="M101.93,91.16c-.09-.16,0-.47.07-.71.46.1.93.19,1.39.31l-.16.62C102.62,91.73,102.19,91.65,101.93,91.16Z"/></g></g></svg>