<?xml version="1.0" encoding="UTF-8"?>
<!DOCTYPE svg PUBLIC "-//W3C//DTD SVG 1.1//EN" "http://www.w3.org/Graphics/SVG/1.1/DTD/svg11.dtd">
<!-- Creator: CorelDRAW 2020 (64-Bit) -->
<svg xmlns="http://www.w3.org/2000/svg" xml:space="preserve" width="11.4907mm" height="4.0684mm" version="1.1" style="shape-rendering:geometricPrecision; text-rendering:geometricPrecision; image-rendering:optimizeQuality; fill-rule:evenodd; clip-rule:evenodd"
viewBox="0 0 143.07 50.66"
 xmlns:xlink="http://www.w3.org/1999/xlink"
 xmlns:xodm="http://www.corel.com/coreldraw/odm/2003">
 <defs>
  <style type="text/css">
   <![CDATA[
    .str0 {stroke:#727271;stroke-width:2.2;stroke-miterlimit:22.9256}
    .fil0 {fill:#009846;fill-rule:nonzero}
   ]]>
  </style>
 </defs>
 <g id="Слой_x0020_1">
  <metadata id="CorelCorpID_0Corel-Layer"/>
  <path class="fil0 str0" d="M17.49 33.2l0 -12.41c2.84,0 4.26,-1.08 4.26,-3.24 0,-1.97 -1.09,-2.97 -3.27,-2.97 -2.21,0 -3.32,1.36 -3.32,4.07l0 30.91 -14.05 0 0 -29.46c0,-3.05 0.31,-5.55 0.92,-7.5 0.6,-1.95 1.66,-3.76 3.13,-5.45 1.67,-1.87 3.75,-3.35 6.24,-4.42 2.5,-1.09 5.07,-1.63 7.72,-1.63 4.81,0 8.86,1.62 12.12,4.85 3.28,3.23 4.91,7.24 4.91,12.01 0,4.65 -1.47,8.41 -4.4,11.29 -2.67,2.66 -6.72,3.99 -12.11,3.99l-2.15 -0.04zm23.49 -30.97l14.05 0 0 28.12c0,2.2 0.36,3.65 1.05,4.39 0.71,0.73 2.1,1.09 4.19,1.09l0.72 0 0 13.73 -3.74 0c-5.13,0 -9.12,-1.5 -11.98,-4.49 -2.86,-2.99 -4.29,-7.14 -4.29,-12.45l0 -30.38zm41.9 23.56l0 12.49 -4.05 0 0 11.28 -14.05 0 0 -30.1c0,-5.81 1.58,-10.32 4.77,-13.54 3.18,-3.22 7.65,-4.82 13.41,-4.82 5.56,0 9.66,1.45 12.32,4.38 2.66,2.92 3.99,7.41 3.99,13.5l0 30.58 -14.05 0 0 -29.65c0,-1.82 -0.22,-3.07 -0.66,-3.78 -0.45,-0.7 -1.24,-1.05 -2.39,-1.05 -2.22,0 -3.34,1.61 -3.34,4.84l0 5.88 4.05 0zm58.2 -23.56l-13.37 21.05 0 26.28 -14.05 0 0 -26.28 -13.48 -21.05 14.27 0 6.09 9.76 6.54 -9.76 14 0z"/>
 </g>
</svg>
