<?xml version="1.0" encoding="UTF-8"?>
<!DOCTYPE svg PUBLIC "-//W3C//DTD SVG 1.1//EN" "http://www.w3.org/Graphics/SVG/1.1/DTD/svg11.dtd">
<!-- Creator: CorelDRAW 2020 (64-Bit) -->
<svg xmlns="http://www.w3.org/2000/svg" xml:space="preserve" width="20.411mm" height="4.0684mm" version="1.1" style="shape-rendering:geometricPrecision; text-rendering:geometricPrecision; image-rendering:optimizeQuality; fill-rule:evenodd; clip-rule:evenodd"
viewBox="0 0 445.98 88.89"
 xmlns:xlink="http://www.w3.org/1999/xlink"
 xmlns:xodm="http://www.corel.com/coreldraw/odm/2003">
 <defs>
  <style type="text/css">
   <![CDATA[
    .str0 {stroke:#727271;stroke-width:3.85;stroke-miterlimit:22.9256}
    .fil0 {fill:#EF7F1A;fill-rule:nonzero}
   ]]>
  </style>
 </defs>
 <g id="Слой_x0020_1">
  <metadata id="CorelCorpID_0Corel-Layer"/>
  <path class="fil0 str0" d="M25.98 25.62l0 59.29 -24.05 0 0 -81.03 30.84 0c9.4,0 16.68,2.33 21.87,7.01 5.77,5.24 8.65,11.86 8.65,19.9 0,8.2 -3.57,15.12 -10.69,20.75l13.87 33.37 -25.27 0 -11.68 -26.08 0 -20.81 1.9 0c5.04,0 7.57,-2.18 7.57,-6.58 0,-3.87 -2.91,-5.81 -8.77,-5.81l-4.23 0zm91.74 9.84l0 17.98 -15.65 0c-2.13,0 -3.64,0.33 -4.52,0.95 -0.89,0.65 -1.34,1.72 -1.34,3.24 0,1.72 0.45,2.84 1.36,3.38 0.91,0.55 2.75,0.81 5.55,0.81l16.18 0 0 23.08 -18.89 0c-8.91,0 -15.73,-2.13 -20.45,-6.36 -4.72,-4.25 -7.07,-10.39 -7.07,-18.4l0 -31.75c0,-7.78 2.23,-13.81 6.68,-18.1 4.47,-4.27 10.73,-6.42 18.83,-6.42l20.9 0 0 23.33 -15.35 0c-4.11,0 -6.16,1.36 -6.16,4.05 0,1.58 0.49,2.67 1.46,3.28 0.99,0.63 2.73,0.93 5.22,0.93l13.24 0zm53.45 -31.95l0 23.12c-1.74,-0.51 -3.1,-0.77 -4.03,-0.77 -1.82,0 -3.4,0.67 -4.7,2.03 -1.32,1.34 -1.96,2.96 -1.96,4.86 0,1.62 0.71,3.66 2.15,6.16l1.84 3.2c3.34,5.77 5,11.34 5,16.72 0,7.86 -2.79,14.52 -8.4,19.96 -5.61,5.45 -12.45,8.18 -20.53,8.18 -3.89,0 -7.71,-0.91 -11.52,-2.71l0 -23.44c2.29,1.48 4.33,2.23 6.12,2.23 2.1,0 3.85,-0.61 5.26,-1.8 1.4,-1.21 2.11,-2.73 2.11,-4.56 0,-1.17 -1.11,-3.77 -3.36,-7.75 -3.58,-6.34 -5.39,-12.66 -5.39,-18.99 0,-7.63 2.71,-14.22 8.16,-19.72 5.43,-5.53 11.93,-8.28 19.48,-8.28 3.32,0 6.58,0.53 9.78,1.58zm47.44 23.69l0 57.71 -24.05 0 0 -57.71 -18.47 0 0 -23.33 60.87 0 0 23.33 -18.35 0zm56.57 17.01l0 21.38 -6.92 0 0 19.32 -24.05 0 0 -51.53c0,-9.94 2.71,-17.68 8.16,-23.18 5.45,-5.51 13.1,-8.26 22.96,-8.26 9.52,0 16.54,2.49 21.1,7.49 4.56,5 6.83,12.69 6.83,23.12l0 52.36 -24.06 0 0 -50.76c0,-3.12 -0.38,-5.26 -1.13,-6.48 -0.77,-1.2 -2.12,-1.8 -4.09,-1.8 -3.81,0 -5.71,2.75 -5.71,8.28l0 10.06 6.92 0zm66.68 -18.59l0 59.29 -24.05 0 0 -81.03 30.84 0c9.4,0 16.68,2.33 21.87,7.01 5.77,5.24 8.65,11.86 8.65,19.9 0,8.2 -3.56,15.12 -10.69,20.75l13.87 33.37 -25.27 0 -11.68 -26.08 0 -20.81 1.91 0c5.04,0 7.57,-2.18 7.57,-6.58 0,-3.87 -2.91,-5.81 -8.77,-5.81l-4.23 0zm83.84 1.58l0 57.71 -24.05 0 0 -57.71 -18.47 0 0 -23.33 60.87 0 0 23.33 -18.35 0z"/>
 </g>
</svg>
